<svg width="100" height="100" viewBox="0 0 100 100" fill="none" xmlns="http://www.w3.org/2000/svg">
<path d="M0 0H100V100H0V0Z" fill="black"/>
<path d="M50 35.545C31.6644 35.545 16.6158 49.5858 15 67.5H85C83.3842 49.5858 68.3356 35.545 50 35.545ZM63.386 54.4902C63.386 52.8802 64.6913 51.575 66.3013 51.575C67.9113 51.575 69.2165 52.8802 69.2165 54.4902C69.2165 56.1002 67.9113 57.4054 66.3013 57.4054C64.6913 57.4054 63.386 56.1002 63.386 54.4902ZM33.6987 57.4054C32.0887 57.4054 30.7835 56.1002 30.7835 54.4902C30.7835 52.8802 32.0887 51.575 33.6987 51.575C35.3087 51.575 36.614 52.8802 36.614 54.4902C36.614 56.1002 35.3087 57.4054 33.6987 57.4054Z" fill="#30DC80"/>
<path d="M64.6387 43.1648C64.4346 43.1648 64.2289 43.1138 64.0408 43.0044C63.4677 42.6733 63.2723 41.9413 63.6019 41.3681L71.1808 28.2315C71.5119 27.6569 72.244 27.46 72.8171 27.7925C73.3902 28.1235 73.5856 28.8556 73.256 29.4288L65.6771 42.5654C65.4554 42.9504 65.0529 43.1648 64.6387 43.1648Z" fill="#30DC80"/>
<path d="M35.3613 43.1648C34.9471 43.1648 34.5446 42.949 34.3229 42.5654L26.7454 29.4288C26.4144 28.8556 26.6113 28.1235 27.1829 27.7925C27.7546 27.46 28.4881 27.6569 28.8192 28.2315L36.3981 41.3681C36.7292 41.9427 36.5323 42.6748 35.9592 43.0044C35.771 43.1138 35.5654 43.1648 35.3613 43.1648Z" fill="#30DC80"/>
</svg>
