<svg width="100" height="100" viewBox="0 0 100 100" fill="none" xmlns="http://www.w3.org/2000/svg">
<path d="M0 0H100V100H0V0Z" fill="#DBDBDB"/>
<circle cx="49.8575" cy="45.8575" r="30.8575" fill="#4EDF8F"/>
<g filter="url(#filter0_d)">
<path d="M54.7132 46.687C54.4371 46.2087 53.8255 46.0448 53.3472 46.321L49.0072 48.8267C48.5289 49.1028 48.365 49.7144 48.6411 50.1927L66.846 81.7244C66.984 81.9635 67.2149 82.1349 67.4837 82.198L70.8963 82.9981C71.4168 83.1202 71.9413 82.8112 72.0868 82.2967L73.0194 78.9999C73.0929 78.7401 73.0582 78.4615 72.9232 78.2277L54.7132 46.687Z" fill="#D9F0FE"/>
</g>
<g filter="url(#filter1_d)">
<path d="M71.8047 45.821C71.8047 49.2545 71.0139 52.64 69.496 55.7044C67.9782 58.7688 65.7758 61.4263 63.0666 63.4626C60.3573 65.4989 57.2169 66.8569 53.8988 67.4273C50.5806 67.9976 46.2826 67.3701 43.0691 66.3518L46.0101 61.2579C48.3647 62.004 50.5142 62.0704 52.9455 61.6525C55.3768 61.2346 57.6779 60.2396 59.663 58.7475C61.6482 57.2555 63.2619 55.3082 64.3741 53.0629C65.4863 50.8175 66.0657 48.3368 66.0657 45.821H71.8047Z" fill="#D9F0FE"/>
<path d="M46.3883 46.58C46.6303 46.1608 47.1663 46.0172 47.5855 46.2592L52.1396 48.8885C52.5588 49.1305 52.7024 49.6665 52.4604 50.0857L34.167 81.7707C34.046 81.9803 33.8437 82.1305 33.6081 82.1858L30.0285 83.0251C29.5722 83.132 29.1126 82.8612 28.9851 82.4103L28.0061 78.9497C27.9417 78.7219 27.9721 78.4779 28.0904 78.2729L46.3883 46.58Z" fill="#D9F0FE"/>
</g>
<g filter="url(#filter2_d)">
<path d="M48.3003 23.9103H50.6165H52.9327C53.485 23.9103 53.9327 24.358 53.9327 24.9103V28.2992C53.9327 28.8514 54.3804 29.2992 54.9327 29.2992H59.9796C60.5319 29.2992 60.9796 29.7469 60.9796 30.2992V44.2104C60.9796 44.4827 60.8686 44.7432 60.6721 44.9318L51.309 53.9204C50.922 54.2919 50.3109 54.2919 49.9239 53.9204L40.5608 44.9318C40.3644 44.7432 40.2533 44.4827 40.2533 44.2104V30.2992C40.2533 29.7469 40.701 29.2992 41.2533 29.2992H46.3003C46.8525 29.2992 47.3003 28.8514 47.3003 28.2992V24.9103C47.3003 24.358 47.748 23.9103 48.3003 23.9103Z" fill="#153B4C"/>
</g>
<circle cx="51.0443" cy="39.8138" r="4.50994" fill="#4EDF8F"/>
<g filter="url(#filter3_d)">
<path d="M54.8044 39.5564C54.1822 39.1421 53.7828 38.4238 53.0384 38.3554C52.294 38.2871 51.0515 38.3755 50.3642 38.6695C49.6769 38.9635 48.8704 39.7163 48.4058 40.3018C47.9411 40.8874 47.7866 41.8111 47.6564 42.5473C47.5263 43.2834 47.8045 44.0119 48.0402 44.7213C48.276 45.4307 48.9663 46.0172 49.5111 46.529C50.0559 47.0409 50.3829 47.1791 51.1056 47.3701C51.8284 47.5611 52.7709 47.5327 53.4975 47.3569L53.1265 46.6736C52.5664 46.8091 51.9814 46.803 51.4244 46.6558C50.8673 46.5085 50.3556 46.2248 49.9357 45.8303C49.5157 45.4358 49.2006 44.9429 49.0189 44.3961C48.8372 43.8492 48.7946 43.2658 48.8949 42.6984C48.9952 42.1309 49.2353 41.5975 49.5934 41.1461C49.9516 40.6947 50.4166 40.3397 50.9463 40.113C51.4761 39.8864 52.054 39.7953 52.6278 39.848C53.2016 39.9007 53.7532 40.0955 54.2329 40.4149L54.8044 39.5564Z" fill="#4EDF8F" fill-opacity="0.01"/>
</g>
<defs>
<filter id="filter0_d" x="44.507" y="46.1868" width="32.5502" height="44.8379" filterUnits="userSpaceOnUse" color-interpolation-filters="sRGB">
<feFlood flood-opacity="0" result="BackgroundImageFix"/>
<feColorMatrix in="SourceAlpha" type="matrix" values="0 0 0 0 0 0 0 0 0 0 0 0 0 0 0 0 0 0 127 0"/>
<feOffset dy="4"/>
<feGaussianBlur stdDeviation="2"/>
<feColorMatrix type="matrix" values="0 0 0 0 0 0 0 0 0 0 0 0 0 0 0 0 0 0 0.25 0"/>
<feBlend mode="normal" in2="BackgroundImageFix" result="effect1_dropShadow"/>
<feBlend mode="normal" in="SourceGraphic" in2="effect1_dropShadow" result="shape"/>
</filter>
<filter id="filter1_d" x="23.973" y="45.821" width="51.8317" height="45.2274" filterUnits="userSpaceOnUse" color-interpolation-filters="sRGB">
<feFlood flood-opacity="0" result="BackgroundImageFix"/>
<feColorMatrix in="SourceAlpha" type="matrix" values="0 0 0 0 0 0 0 0 0 0 0 0 0 0 0 0 0 0 127 0"/>
<feOffset dy="4"/>
<feGaussianBlur stdDeviation="2"/>
<feColorMatrix type="matrix" values="0 0 0 0 0 0 0 0 0 0 0 0 0 0 0 0 0 0 0.25 0"/>
<feBlend mode="normal" in2="BackgroundImageFix" result="effect1_dropShadow"/>
<feBlend mode="normal" in="SourceGraphic" in2="effect1_dropShadow" result="shape"/>
</filter>
<filter id="filter2_d" x="36.2533" y="23.9103" width="28.7263" height="38.2887" filterUnits="userSpaceOnUse" color-interpolation-filters="sRGB">
<feFlood flood-opacity="0" result="BackgroundImageFix"/>
<feColorMatrix in="SourceAlpha" type="matrix" values="0 0 0 0 0 0 0 0 0 0 0 0 0 0 0 0 0 0 127 0"/>
<feOffset dy="4"/>
<feGaussianBlur stdDeviation="2"/>
<feColorMatrix type="matrix" values="0 0 0 0 0 0 0 0 0 0 0 0 0 0 0 0 0 0 0.25 0"/>
<feBlend mode="normal" in2="BackgroundImageFix" result="effect1_dropShadow"/>
<feBlend mode="normal" in="SourceGraphic" in2="effect1_dropShadow" result="shape"/>
</filter>
<filter id="filter3_d" x="43.6232" y="35.3336" width="15.1812" height="17.1679" filterUnits="userSpaceOnUse" color-interpolation-filters="sRGB">
<feFlood flood-opacity="0" result="BackgroundImageFix"/>
<feColorMatrix in="SourceAlpha" type="matrix" values="0 0 0 0 0 0 0 0 0 0 0 0 0 0 0 0 0 0 127 0"/>
<feOffset dy="1"/>
<feGaussianBlur stdDeviation="2"/>
<feColorMatrix type="matrix" values="0 0 0 0 0 0 0 0 0 0 0 0 0 0 0 0 0 0 1 0"/>
<feBlend mode="normal" in2="BackgroundImageFix" result="effect1_dropShadow"/>
<feBlend mode="normal" in="SourceGraphic" in2="effect1_dropShadow" result="shape"/>
</filter>
</defs>
</svg>
