<svg width="100" height="100" viewBox="0 0 100 100" fill="none" xmlns="http://www.w3.org/2000/svg">
<rect width="100" height="100" rx="25" fill="#175DDC"/>
<path d="M25 26C25 24.3431 26.3431 23 28 23H49.878V83C34.7618 75.2857 27.9968 70.1921 25.0735 57.4716C25.0245 57.258 25 57.0358 25 56.8167V26Z" fill="white"/>
<path d="M74.7561 26C74.7561 24.3431 73.4129 23 71.7561 23H49.878L49.8781 29.8293H68.8905V55.5952C68.8905 55.8143 68.8663 56.0362 68.8168 56.2496C66.5732 65.9152 61.4001 69.8029 49.8781 75.6829L49.878 83C64.9943 75.2857 71.7593 70.1921 74.6826 57.4716C74.7316 57.258 74.7561 57.0358 74.7561 56.8167V26Z" fill="white"/>
</svg>
