<svg width="100" height="100" viewBox="0 0 100 100" fill="none" xmlns="http://www.w3.org/2000/svg">
<path d="M0 25C0 11.1929 11.1929 0 25 0H75C88.8071 0 100 11.1929 100 25V75C100 88.8071 88.8071 100 75 100H25C11.1929 100 0 88.8071 0 75V25Z" fill="#DBE4EB"/>
<g filter="url(#filter0_d)">
<path d="M60.995 57.815L48.755 79.97C32.765 79.325 20 66.14 20 50C20 33.44 33.44 20 50 20V36.5C42.545 36.5 36.5 42.545 36.5 50C36.5 57.455 42.545 63.5 50 63.5C54.545 63.5 58.55 61.265 60.995 57.815Z" fill="#4CAF50"/>
<path d="M80 50C80 66.575 66.575 80 50 80H48.74L60.995 57.815C62.57 55.61 63.5 52.91 63.5 50C63.5 42.545 57.455 36.5 50 36.5V20C61.715 20 71.825 26.72 76.775 36.5C78.815 40.565 80 45.14 80 50Z" fill="#FFD747"/>
<path d="M76.76 36.5H50C42.545 36.5 36.5 42.545 36.5 50C36.5 52.235 37.04 54.335 38.015 56.195H38L24.74 33.89H24.71C30.02 25.535 39.365 20 50 20C61.7 20 71.825 26.72 76.76 36.5Z" fill="#F7572F"/>
</g>
<defs>
<filter id="filter0_d" x="16" y="20" width="68" height="68" filterUnits="userSpaceOnUse" color-interpolation-filters="sRGB">
<feFlood flood-opacity="0" result="BackgroundImageFix"/>
<feColorMatrix in="SourceAlpha" type="matrix" values="0 0 0 0 0 0 0 0 0 0 0 0 0 0 0 0 0 0 127 0"/>
<feOffset dy="4"/>
<feGaussianBlur stdDeviation="2"/>
<feColorMatrix type="matrix" values="0 0 0 0 0 0 0 0 0 0 0 0 0 0 0 0 0 0 0.25 0"/>
<feBlend mode="normal" in2="BackgroundImageFix" result="effect1_dropShadow"/>
<feBlend mode="normal" in="SourceGraphic" in2="effect1_dropShadow" result="shape"/>
</filter>
</defs>
</svg>
