<svg width="100" height="100" viewBox="0 0 100 100" fill="none" xmlns="http://www.w3.org/2000/svg">
<path d="M0 25C0 11.1929 11.1929 0 25 0H75C88.8071 0 100 11.1929 100 25V75C100 88.8071 88.8071 100 75 100H25C11.1929 100 0 88.8071 0 75V25Z" fill="url(#paint0_linear)"/>
<g filter="url(#filter0_d)">
<path d="M75.413 31.3065C75.385 31.2643 75.3593 31.2376 75.319 31.207C74.6447 30.694 67.9663 25.7515 60.0854 25.0282C59.8831 25.0096 59.6906 25.1187 59.5998 25.3004L59.2677 25.9646C59.1242 26.2517 59.2857 26.5978 59.5964 26.6779C64.8816 28.0404 68.1303 29.8104 70.889 31.9167C71.354 32.2718 70.9197 32.9255 70.3912 32.6743C65.1037 30.1609 59.3002 28.125 50.375 28.125C41.4498 28.125 35.6463 30.1609 30.3588 32.6743C29.8303 32.9255 29.4091 32.2874 29.8768 31.9358C32.7908 29.745 36.265 27.8578 41.1409 26.6708C41.4563 26.594 41.6223 26.2445 41.4771 25.9542L41.1532 25.3064C41.0609 25.1217 40.8632 25.0125 40.658 25.0347C32.4063 25.9283 26.069 30.7101 25.4284 31.2081C25.39 31.2379 25.3653 31.2638 25.3384 31.3043C24.7548 32.1816 17.3659 43.6788 16.0126 65.4187C16.0045 65.5492 16.049 65.6818 16.1354 65.7799C23.5275 74.1625 34.3156 74.9244 36.0679 74.9932C36.2262 74.9994 36.3686 74.9253 36.4636 74.7985L38.4627 72.1335C38.6659 71.8626 38.5473 71.4725 38.2298 71.3549C35.1895 70.2285 31.9094 68.5117 28.7954 65.8775C28.3365 65.4894 28.8568 64.8605 29.3776 65.1605C34.2644 67.9749 40.9502 70.3125 50.375 70.3125C59.7998 70.3125 66.4856 67.9749 71.3724 65.1605C71.8931 64.8605 72.4135 65.4894 71.9546 65.8775C68.8406 68.5117 65.5605 70.2285 62.5202 71.3549C62.2027 71.4725 62.0841 71.8626 62.2873 72.1335L64.2864 74.7985C64.3814 74.9253 64.5238 74.9994 64.6821 74.9932C66.4344 74.9244 77.2225 74.1625 84.6146 65.7799C84.701 65.6818 84.7455 65.5492 84.7374 65.4187C83.3852 43.6963 76.0071 32.2002 75.413 31.3065ZM40.2188 59.375C37.1984 59.375 34.75 56.5766 34.75 53.125C34.75 49.6734 37.1984 46.875 40.2188 46.875C43.2391 46.875 45.6875 49.6734 45.6875 53.125C45.6875 56.5766 43.2391 59.375 40.2188 59.375ZM60.5312 59.375C57.5109 59.375 55.0625 56.5766 55.0625 53.125C55.0625 49.6734 57.5109 46.875 60.5312 46.875C63.5516 46.875 66 49.6734 66 53.125C66 56.5766 63.5516 59.375 60.5312 59.375Z" fill="white"/>
</g>
<defs>
<filter id="filter0_d" x="12.0117" y="25.0261" width="76.7266" height="57.9675" filterUnits="userSpaceOnUse" color-interpolation-filters="sRGB">
<feFlood flood-opacity="0" result="BackgroundImageFix"/>
<feColorMatrix in="SourceAlpha" type="matrix" values="0 0 0 0 0 0 0 0 0 0 0 0 0 0 0 0 0 0 127 0"/>
<feOffset dy="4"/>
<feGaussianBlur stdDeviation="2"/>
<feColorMatrix type="matrix" values="0 0 0 0 0 0 0 0 0 0 0 0 0 0 0 0 0 0 0.25 0"/>
<feBlend mode="normal" in2="BackgroundImageFix" result="effect1_dropShadow"/>
<feBlend mode="normal" in="SourceGraphic" in2="effect1_dropShadow" result="shape"/>
</filter>
<linearGradient id="paint0_linear" x1="50" y1="0" x2="50" y2="100" gradientUnits="userSpaceOnUse">
<stop stop-color="#93ADFF"/>
<stop offset="1" stop-color="#3A549F"/>
</linearGradient>
</defs>
</svg>
