<svg width="100" height="100" viewBox="0 0 100 100" fill="none" xmlns="http://www.w3.org/2000/svg">
<path d="M0 0H100V100H0V0Z" fill="#042556"/>
<path d="M29 70.5C29 64.701 33.701 60 39.5 60H50V70.5C50 76.299 45.299 81 39.5 81V81C33.701 81 29 76.299 29 70.5V70.5Z" fill="#0ACF83"/>
<path d="M50 49.5C50 43.701 54.701 39 60.5 39V39C66.299 39 71 43.701 71 49.5V49.5C71 55.299 66.299 60 60.5 60V60C54.701 60 50 55.299 50 49.5V49.5Z" fill="#1ABCFE"/>
<path d="M29 49.5C29 43.701 33.701 39 39.5 39H50V60H39.5C33.701 60 29 55.299 29 49.5V49.5Z" fill="#A259FF"/>
<path d="M29 28.5C29 22.701 33.701 18 39.5 18H50V39H39.5C33.701 39 29 34.299 29 28.5V28.5Z" fill="#F24E1E"/>
<path d="M71 28.5C71 22.701 66.299 18 60.5 18H50V39H60.5C66.299 39 71 34.299 71 28.5V28.5Z" fill="#FF7262"/>
</svg>
