<svg width="100" height="100" viewBox="0 0 100 100" fill="none" xmlns="http://www.w3.org/2000/svg">
<rect width="100" height="100" rx="25" fill="url(#paint0_linear)"/>
<path d="M15 29C15 26.7909 16.7909 25 19 25H31.9987C32.9843 25 33.9353 25.3639 34.6691 26.0219L37.5368 28.5934C38.2706 29.2515 39.2216 29.6154 40.2072 29.6154H81C83.2091 29.6154 85 31.4062 85 33.6154V37H15V29Z" fill="url(#paint1_linear)"/>
<path d="M18.0883 35C18.0883 33.8954 18.9837 33 20.0883 33H79.9118C81.0164 33 81.9118 33.8954 81.9118 35V35H18.0883V35Z" fill="#F7FBFF"/>
<path d="M15 37C15 35.8954 15.8954 35 17 35H83C84.1046 35 85 35.8954 85 37V70C85 72.2091 83.2091 74 81 74H19C16.7909 74 15 72.2091 15 70V37Z" fill="url(#paint2_linear)"/>
<defs>
<linearGradient id="paint0_linear" x1="50" y1="0" x2="50" y2="100" gradientUnits="userSpaceOnUse">
<stop stop-color="#E3F1FE"/>
<stop offset="1" stop-color="#D6E9FB"/>
</linearGradient>
<linearGradient id="paint1_linear" x1="50" y1="25" x2="50" y2="37" gradientUnits="userSpaceOnUse">
<stop stop-color="#37ADF2"/>
<stop offset="1" stop-color="#0084D1"/>
</linearGradient>
<linearGradient id="paint2_linear" x1="50" y1="35" x2="50" y2="74" gradientUnits="userSpaceOnUse">
<stop stop-color="#37ADF2"/>
<stop offset="1" stop-color="#008FE2"/>
</linearGradient>
</defs>
</svg>
