<svg width="100" height="100" viewBox="0 0 100 100" fill="none" xmlns="http://www.w3.org/2000/svg">
<g clip-path="url(#clip0)">
<rect width="100" height="100" rx="25" fill="url(#paint0_linear)"/>
<path d="M64.452 100C62.9645 94.7654 61.7918 89.4165 60.9909 84.0389L60.2758 78.3467C59.389 69.9371 59.389 61.413 60.1899 53.0034C60.3044 51.8593 59.9325 50.7151 59.1602 49.857C58.3879 48.9989 57.2723 48.5126 56.1282 48.5126H44.9439C45.2872 40.3032 46.2883 32.0938 47.8902 24.0561C49.5778 15.9039 51.8947 7.80892 54.8124 0H5.47883C-0.859841 0 -6 5.14016 -6 11.4788V88.5498C-6 94.8741 -0.87414 100 5.45023 100H64.452Z" fill="url(#paint1_linear)"/>
<path d="M80.0518 69.3189C72.4076 74.8472 64.3534 77.3728 58.1078 78.3533C56.3474 78.6245 54.7318 78.7914 53.3331 78.8748C51.9827 78.9791 50.8252 79 49.933 79C34.4756 79 24.3105 72.1769 20.3557 69.3189C19.3188 68.5679 18.5075 67.5548 19.3515 66.6786C20.2197 65.8024 21.3512 65.8155 22.364 66.5456C25.9088 69.1325 36.0431 75.9196 49.933 75.9196C50.6805 75.9196 51.8543 75.9822 52.9394 75.9196C54.3139 75.8362 55.6496 75.7717 57.4582 75.4796C63.0527 74.5825 70.7894 71.5811 77.5414 66.6786C78.5784 65.9484 79.642 65.6694 80.486 66.5456C81.3541 67.4218 81.0647 68.5679 80.0518 69.3189Z" fill="black"/>
<rect x="71" y="26" width="4" height="11" rx="2" fill="black"/>
<rect x="26" y="26" width="4" height="11" rx="2" fill="black"/>
</g>
<defs>
<linearGradient id="paint0_linear" x1="50" y1="0" x2="50" y2="100" gradientUnits="userSpaceOnUse">
<stop stop-color="#EFEFF0"/>
<stop offset="1" stop-color="#D1DAE5"/>
</linearGradient>
<linearGradient id="paint1_linear" x1="29.226" y1="0" x2="29.226" y2="100" gradientUnits="userSpaceOnUse">
<stop stop-color="#1AD1FC"/>
<stop offset="0.484375" stop-color="#1B9FF7"/>
<stop offset="1" stop-color="#1D6AF1"/>
</linearGradient>
<clipPath id="clip0">
<rect width="100" height="100" rx="25" fill="white"/>
</clipPath>
</defs>
</svg>
