<svg width="100" height="100" viewBox="0 0 100 100" fill="none" xmlns="http://www.w3.org/2000/svg">
<path d="M0 25C0 11.1929 11.1929 0 25 0H75C88.8071 0 100 11.1929 100 25V75C100 88.8071 88.8071 100 75 100H25C11.1929 100 0 88.8071 0 75V25Z" fill="url(#paint0_linear)"/>
<path d="M35.046 54.5251L37.1161 60.2643L40.2267 64.4611L47.5298 65.854L51.0237 66.1512L56.9881 64.6611L59.5576 62.1982L35.046 54.5251V54.5251Z" fill="#09204D"/>
<path d="M65.9532 46.0595L65.222 43.6335L63.1313 39.6884L60.7397 37.1677L58.2008 35.3551L55.9964 34.4898L53.3513 33.5489L48.9961 33.2718L46.2498 33.7674L44.009 34.4562L40.0329 36.7831L37.5479 39.5554L35.2565 43.2768L34.3551 46.4438L34.1867 51.2489L35.046 54.5251L36.9413 58.2551L38.2782 60.0566L40.1266 61.7512L42.4352 63.313L45.282 64.5511L50.0461 65.1103L52.5337 65.1796L56.2154 64.1426L59.5062 62.3365L61.6234 60.5303L63.2651 58.5717L65.5862 54.0283L66.0986 50.9202L65.9532 46.0595V46.0595Z" fill="#09204D"/>
<path d="M49.0758 35.4552L47.1254 37.3903L50.307 38.68L52.6737 35.745L49.0758 35.4552V35.4552Z" fill="#0E56D7"/>
<path d="M50.3069 38.68L56.4665 38.4931L52.6737 35.745L50.3069 38.68Z" fill="#1053D1"/>
<path d="M56.0089 35.7244L52.6736 35.745L56.4665 38.4931L59.9739 38.2641L56.0089 35.7244V35.7244Z" fill="#0B4FBF"/>
<path d="M59.9739 38.2641L57.98 35.5147L60.7396 37.1677L59.9739 38.2641V38.2641Z" fill="#0B48B0"/>
<path d="M62.6143 39.9478L59.9739 38.2641L60.7396 37.1677L62.6143 39.9478Z" fill="#0C45A7"/>
<path d="M59.974 38.264L59.5322 40.1476L61.9472 41.1128L59.974 38.264Z" fill="#0F46AF"/>
<path d="M59.9739 38.264L62.6143 39.9477L61.9471 41.1128L59.9739 38.264Z" fill="#0C47AD"/>
<path d="M56.4666 38.493L59.9739 38.264L59.5322 40.1476L56.4666 38.493V38.493Z" fill="#0E4FC3"/>
<path d="M56.4665 38.4931L53.6953 41.0014L57.2619 42.748L56.4665 38.4931V38.4931Z" fill="#174DCA"/>
<path d="M50.3069 38.68L56.4665 38.4931L53.6954 41.0014L50.3069 38.68V38.68Z" fill="#1650D4"/>
<path d="M59.5322 40.1476L61.2095 43.4003L61.9472 41.1129L59.5322 40.1476V40.1476Z" fill="#1246B2"/>
<path d="M61.2094 43.4003L61.9471 41.1129L63.7044 45.2922L61.2094 43.4003Z" fill="#133EA1"/>
<path d="M61.9471 41.1129L64.6253 43.0742L63.7044 45.2922L61.9471 41.1129V41.1129Z" fill="#103D98"/>
<path d="M62.6144 39.9478L63.1313 39.6884L64.6254 43.0742L62.6144 39.9478V39.9478Z" fill="#0B3785"/>
<path d="M64.6254 43.0742L65.222 43.6336L63.1313 39.6884L64.6254 43.0742V43.0742Z" fill="#0B3685"/>
<path d="M64.6254 43.0741L62.6144 39.9478L61.9472 41.1133L64.6254 43.0741ZM60.7397 37.1679L62.6144 39.9479L63.1313 39.6881L60.7397 37.1679Z" fill="#0C3B91"/>
<path d="M65.8188 47.9549L65.222 43.6335L65.9532 46.0595L65.8091 47.9549H65.8188V47.9549Z" fill="#0B3279"/>
<path d="M64.6254 43.0742L65.8188 47.9549L65.222 43.6335L64.6254 43.0742V43.0742Z" fill="#0F388D"/>
<path d="M63.7044 45.2922L65.8188 47.9549L64.6253 43.0742L63.7044 45.2922V45.2922Z" fill="#0D3481"/>
<path d="M65.8091 47.955L65.9532 46.0595L66.0987 50.9203L65.8188 47.955H65.8091V47.955Z" fill="#0B2E71"/>
<path d="M65.4644 51.7964L66.0987 50.9203L65.8188 47.955L65.4644 51.7964Z" fill="#0E2F77"/>
<path d="M65.5863 54.0283L65.0792 54.2726L66.0987 50.9203L65.5863 54.0283Z" fill="#0E2969"/>
<path d="M65.0792 54.2726L66.0987 50.9203L65.4644 51.7964L65.0792 54.2726V54.2726Z" fill="#0C2A69"/>
<path d="M65.4643 51.7964L65.8187 47.955L64.7325 49.2363L65.4643 51.7964Z" fill="#123180"/>
<path d="M65.0791 54.2726L65.4644 51.7963L63.3693 55.3172L65.0791 54.2726V54.2726Z" fill="#112B70"/>
<path d="M63.7044 45.2922L65.8188 47.955L64.7325 49.2363L63.7044 45.2922V45.2922Z" fill="#12378C"/>
<path d="M65.4644 51.7964L64.7325 49.2363L63.628 52.3896L65.4644 51.7964Z" fill="#122E7B"/>
<path d="M63.2651 58.5717L65.0791 54.2726L63.382 57.4066L63.2651 58.5717Z" fill="#11296C"/>
<path d="M63.382 57.4066L65.0791 54.2726L63.3693 55.3173L63.382 57.4066V57.4066Z" fill="#142A72"/>
<path d="M65.0791 54.2726L63.2651 58.5723L65.5859 54.0283L65.0791 54.2726ZM61.6234 60.5303L63.2651 58.5723L63.382 57.4071L61.6234 60.5303ZM59.5062 62.3365L61.6234 60.5303L59.3859 61.5594L59.5062 62.3365Z" fill="#112768"/>
<path d="M47.1492 63.5946L45.0101 64.1178L45.0753 62.625L47.1492 63.5946Z" fill="#1C226A"/>
<path d="M35.2566 43.2769L35.8462 43.0584L34.3552 46.4438L35.2566 43.2769V43.2769Z" fill="#182B7A"/>
<path d="M34.3552 46.4438L35.4841 46.2338L35.8462 43.0584L34.3552 46.4438Z" fill="#1F308D"/>
<path d="M34.4226 50.5097L34.3552 46.4438L35.4841 46.2338L34.4226 50.5097Z" fill="#1E2B7F"/>
<path d="M59.5321 40.1476L57.2619 42.748L61.2094 43.4003L59.5321 40.1476ZM39.7216 37.4804L42.62 35.498L40.0338 36.7831L39.7216 37.4804Z" fill="#1346B5"/>
<path d="M40.0329 36.7831L44.009 34.4562L42.6191 35.4978L40.0329 36.7831Z" fill="#1244AC"/>
<path d="M42.6191 35.4978L46.2498 33.7674L44.009 34.4562L42.6191 35.4978Z" fill="#0E4AB6"/>
<path d="M56.4668 38.4931L57.2623 42.748L59.5325 40.1476L56.4668 38.4931ZM44.8307 35.2963L48.2128 33.9437L46.2501 33.7674L44.8307 35.2963Z" fill="#0E4BBA"/>
<path d="M48.996 33.2718L46.2498 33.7674L48.2125 33.9437L48.996 33.2718Z" fill="#0A4EBC"/>
<path d="M51.5934 33.9101L48.2125 33.9437L48.9961 33.2718" fill="#0C54CC"/>
<path d="M57.98 35.5146L56.0089 35.7244L59.9738 38.2641L57.98 35.5146ZM51.5934 33.9101L55.9958 34.4898L53.3507 33.5489L51.5934 33.9101Z" fill="#0B4BB4"/>
<path d="M57.98 35.5146L55.9963 34.4898L58.2008 35.3551L57.98 35.5146Z" fill="#0C3889"/>
<path d="M35.046 54.5254L36.3475 55.5964L34.4227 50.5105L35.046 54.5254ZM53.01 64.6405L54.1542 61.9472L49.9843 63.0674L53.01 64.6405ZM54.1542 61.9472L57.6405 62.9145L57.852 60.2189L54.1542 61.9472Z" fill="#202575"/>
<path d="M59.3859 61.5594L57.8516 60.2182L61.5586 57.7548L59.3859 61.5594Z" fill="#1B2773"/>
<path d="M61.5587 57.7548L59.3859 61.5594L61.6234 60.5303L63.382 57.4066L61.5587 57.7548V57.7548Z" fill="#15276D"/>
<path d="M58.2008 35.3551L57.98 35.5146L60.7397 37.1677L58.2008 35.3551ZM56.0089 35.7242L57.98 35.5145L55.9963 34.4891L56.0089 35.7242Z" fill="#0C409D"/>
<path d="M48.9961 33.2718L51.5938 33.9101L53.3516 33.5489L48.9961 33.2718ZM55.9961 34.4898L51.5938 33.9101L56.0098 35.7244L55.9961 34.4898Z" fill="#0B4CB7"/>
<path d="M51.5934 33.9101L52.6737 35.745L56.0089 35.7244L51.5934 33.9101V33.9101Z" fill="#0B55CE"/>
<path d="M51.5935 33.9101L52.6737 35.745L49.0758 35.4553L51.5935 33.9101Z" fill="#0A52C5"/>
<path d="M48.2125 33.9438L49.0758 35.4553L51.5934 33.9101L48.2125 33.9438V33.9438Z" fill="#0951C4"/>
<path d="M44.8304 35.2963L48.2125 33.9437L49.0758 35.4553L44.8304 35.2963Z" fill="#0B50C4"/>
<path d="M42.6191 35.4978L44.8304 35.2963L46.2498 33.7674L42.6191 35.4978ZM44.8304 35.2963L47.1253 37.3903L49.0758 35.4552L44.8304 35.2963Z" fill="#0F4DBF"/>
<path d="M44.8303 35.2963L41.0944 38.7993L42.619 35.4978L44.8303 35.2963Z" fill="#1546B6"/>
<path d="M41.0944 38.7993L43.4783 39.1958L44.8303 35.2963L41.0944 38.7993V38.7993Z" fill="#1549BD"/>
<path d="M43.4784 39.1958L44.8304 35.2963L47.1255 37.3903L43.4784 39.1958V39.1958Z" fill="#144BC3"/>
<path d="M37.5479 39.5554L37.6931 40.9645L39.7212 37.4804L37.5479 39.5554V39.5554Z" fill="#173794"/>
<path d="M35.8462 43.0584L37.5479 39.5554L37.6931 40.9645L35.8462 43.0584V43.0584Z" fill="#192F84"/>
<path d="M37.6931 40.9645L39.7212 37.4804L41.0944 38.7993L37.6931 40.9645V40.9645Z" fill="#1A389B"/>
<path d="M37.5704 43.9852L37.6931 40.9645L35.8462 43.0584L37.5704 43.9852Z" fill="#1D3089"/>
<path d="M37.5704 43.9852L37.6932 40.9645L40.0899 42.9102L37.5704 43.9852Z" fill="#1E389F"/>
<path d="M40.0898 42.9102L41.0944 38.7993L37.6931 40.9645L40.0898 42.9102V42.9102Z" fill="#1C40AF"/>
<path d="M40.0898 42.9102L41.0944 38.7993L43.4784 39.1958L40.0898 42.9102V42.9102Z" fill="#1E41B7"/>
<path d="M35.484 46.2338L35.8462 43.0584L37.5703 43.9852L35.484 46.2338Z" fill="#192C7D"/>
<path d="M53.01 64.6403L56.2154 64.1426L57.64 62.9136L53.01 64.6403ZM34.1867 51.2489L34.4227 50.5097L34.3551 46.4438L34.1867 51.2489ZM35.484 46.2338L34.4227 50.5097L36.3475 55.5956L35.4082 49.703L35.484 46.2338Z" fill="#162467"/>
<path d="M36.3474 55.5963L37.9354 55.8189L36.8235 53.2231L36.3474 55.5963Z" fill="#1A236A"/>
<path d="M59.3859 61.5595L57.64 62.9137L56.2154 64.1426L59.5062 62.3366L59.3859 61.5595ZM50.0461 65.1103L52.5337 65.1796L56.2154 64.1426L53.01 64.6403L50.0461 65.1103ZM37.8292 58.5478L39.4981 58.8688L37.9354 55.82L37.8292 58.5478Z" fill="#132668"/>
<path d="M45.0754 62.625L42.2497 60.4501L41.0753 61.5793L45.0098 64.1178L45.0754 62.625ZM35.046 54.5254L36.9413 58.2553L36.3475 55.5964L35.046 54.5254ZM34.1867 51.2492L35.046 54.5254L34.4227 50.51L34.1867 51.2492ZM49.9841 63.0669L45.0759 62.6253L47.1498 63.595L45.0098 64.1178L42.4348 63.313L45.2816 64.5511L50.0457 65.1103L53.0096 64.6403L49.9841 63.0669ZM37.9354 55.8192L36.3475 55.5964L37.8292 58.5475L37.9354 55.8192ZM35.4082 49.7033L36.3475 55.5959L36.8235 53.2227L35.4082 49.7033ZM39.4981 58.8683L37.8292 58.5472L36.9413 58.2551L38.2782 60.0566L40.1266 61.7512L42.4352 63.313L41.0753 61.5793L39.4981 58.8683Z" fill="#1B2268"/>
<path d="M35.484 46.2338L37.7248 49.6999L37.5703 43.9852L35.484 46.2338V46.2338Z" fill="#212A81"/>
<path d="M35.4081 49.7032L36.8235 53.2231L37.7248 49.6999L35.4081 49.7032V49.7032Z" fill="#21267A"/>
<path d="M36.8234 53.2231L37.7248 49.6999L38.8451 52.4838L36.8234 53.2231V53.2231Z" fill="#262781"/>
<path d="M37.9354 55.8189L42.2317 58.4811L38.8452 52.4838L37.9354 55.8189Z" fill="#272379"/>
<path d="M36.9413 58.2551L37.8292 58.5472L36.3475 55.5962L36.9413 58.2551ZM46.4314 59.7863L45.0754 62.6245L49.9836 63.0661L46.4314 59.7863ZM37.9354 55.8183L39.4981 58.8672L41.0753 61.5782L42.2497 60.449L42.2316 58.4803L37.9354 55.8183Z" fill="#1E226D"/>
<path d="M57.8515 60.2181L57.64 62.9136L59.3859 61.5594L57.8515 60.2181ZM50.3408 59.8313L49.9841 63.0666L54.1541 61.9464L54.0056 58.3096L50.3408 59.8313Z" fill="#222475"/>
<path d="M35.4081 49.7033L37.7247 49.6999L35.484 46.2338L35.4081 49.7033ZM54.0059 58.3094L54.1543 61.9461L57.8516 60.2178L54.0059 58.3094Z" fill="#23277D"/>
<path d="M54.0057 58.3094L56.3853 56.1547L57.8516 60.2182L54.0057 58.3094Z" fill="#1E2776"/>
<path d="M57.8516 60.2182L59.6503 54.7708L56.3853 56.1546L57.8516 60.2182Z" fill="#222B86"/>
<path d="M61.5586 57.7548L57.8516 60.2182L59.6503 54.7708L61.5586 57.7548V57.7548Z" fill="#192974"/>
<path d="M63.3694 55.3172L59.6503 54.7706L61.5588 57.7548L63.3821 57.4066L63.3694 55.3172Z" fill="#172A75"/>
<path d="M63.628 52.3895L59.6503 54.7706L63.3694 55.3172L65.4644 51.7963L63.628 52.3895Z" fill="#172D7D"/>
<path d="M35.8462 43.0584L37.5479 39.5554L35.2565 43.2769L35.8462 43.0584ZM62.1443 47.3942L63.628 52.3896L64.7325 49.2363L62.1443 47.3942Z" fill="#18338A"/>
<path d="M64.7325 49.2363L63.7044 45.2922L62.1443 47.394L64.7325 49.2363V49.2363Z" fill="#153791"/>
<path d="M59.6503 54.7708L63.628 52.3895L59.7728 50.6735L59.6503 54.7708V54.7708Z" fill="#1B318B"/>
<path d="M59.6503 54.7708L56.0454 51.1283L56.3853 56.1547L59.6503 54.7708V54.7708Z" fill="#242D8D"/>
<path d="M54.0057 58.3094L51.2381 55.8589L56.3853 56.1547L54.0057 58.3094Z" fill="#2A2B8F"/>
<path d="M37.9354 55.8189L38.8451 52.4839L36.8234 53.223L37.9354 55.8189ZM51.2381 55.859L50.3408 59.8313L54.0058 58.3094L51.2381 55.859Z" fill="#27267F"/>
<path d="M45.5088 56.6715L42.8446 55.3173L42.2317 58.4811L46.4314 59.7869L50.3409 59.8313L45.5088 56.6715V56.6715Z" fill="#2D2381"/>
<path d="M50.3407 59.8313L51.2381 55.8589L45.5088 56.6715L50.3407 59.8313Z" fill="#2F2485"/>
<path d="M37.7249 49.6999L38.8742 46.0313L37.5704 43.9852L37.7249 49.6999Z" fill="#233196"/>
<path d="M40.0898 42.9102L45.1337 41.4399L42.4695 46.8825L40.0898 42.9102Z" fill="#293CB7"/>
<path d="M59.6503 54.7708L56.0454 51.1283L59.7728 50.6735L59.6503 54.7708V54.7708Z" fill="#25339C"/>
<path d="M63.628 52.3896L62.1444 47.394L59.7728 50.6735L63.628 52.3896V52.3896Z" fill="#19348F"/>
<path d="M56.3853 56.1547L52.2628 52.1688L56.0454 51.1283L56.3853 56.1547V56.1547Z" fill="#2A309A"/>
<path d="M51.2381 55.8589L56.3853 56.1546L52.2628 52.1687L51.2381 55.8589Z" fill="#302B96"/>
<path d="M51.2382 55.8589L48.4188 53.5633L52.2629 52.1687L51.2382 55.8589Z" fill="#3630A7"/>
<path d="M39.7212 37.4804L40.0329 36.7831L37.5479 39.5554L39.7212 37.4804ZM61.2094 43.4003L62.1443 47.3941L63.7044 45.2922L61.2094 43.4003Z" fill="#173DA2"/>
<path d="M40.0899 42.9102L42.4696 46.8825L38.8741 46.0313L40.0899 42.9102Z" fill="#2A36A8"/>
<path d="M38.8741 46.0313L42.4696 46.8826L40.0382 50.7122L38.8741 46.0313Z" fill="#312E9F"/>
<path d="M45.1338 41.4399L47.1255 37.3903L43.4784 39.1958L45.1338 41.4399V41.4399Z" fill="#184DCD"/>
<path d="M37.7248 49.6999L40.0381 50.7122L38.8451 52.4838L37.7248 49.6999V49.6999Z" fill="#272986"/>
<path d="M40.0381 50.7122L38.8451 52.4839L42.2316 58.4811L42.8445 55.3173L40.0381 50.7122V50.7122Z" fill="#2C2584"/>
<path d="M42.8446 55.3172L43.2197 49.7457L40.0381 50.7122L42.8446 55.3172Z" fill="#32268B"/>
<path d="M42.8445 55.3172L48.4187 53.5633L43.2197 49.7457L42.8445 55.3172V55.3172Z" fill="#372999"/>
<path d="M48.4187 53.5633L47.8755 49.2556L43.2197 49.7457L48.4187 53.5633V53.5633Z" fill="#392DA5"/>
<path d="M47.8756 49.2555L51.8072 47.7853L52.2629 52.1687L47.8756 49.2555V49.2555Z" fill="#3338BC"/>
<path d="M45.5088 56.6715L51.2381 55.8589L48.4187 53.5633L45.5088 56.6715V56.6715Z" fill="#362896"/>
<path d="M45.5088 56.6715L42.8445 55.3173L48.4187 53.5633L45.5088 56.6715V56.6715Z" fill="#35268F"/>
<path d="M45.1338 41.4399L48.5481 41.8011L47.1255 37.3903L45.1338 41.4399V41.4399Z" fill="#2648D3"/>
<path d="M50.3069 38.68L47.1255 37.3903L48.548 41.8011L50.3069 38.68Z" fill="#1057DC"/>
<path d="M50.3069 38.6799L53.6954 41.0014L48.548 41.8011L50.3069 38.6799V38.6799Z" fill="#1653DA"/>
<path d="M48.548 41.8011L53.5971 44.4785L51.8071 47.7853L48.548 41.8011V41.8011Z" fill="#2B46D5"/>
<path d="M53.5971 44.4785L53.6954 41.0014L48.548 41.8011L53.5971 44.4785Z" fill="#244AD7"/>
<path d="M53.597 44.4785L53.6953 41.0014L57.2619 42.748L53.597 44.4785V44.4785Z" fill="#2547CF"/>
<path d="M48.5481 41.8011L51.8072 47.7853L46.0908 44.9221L48.5481 41.8011Z" fill="#333CC5"/>
<path d="M47.8756 49.2556L51.8072 47.7853L46.0908 44.9221L47.8756 49.2556Z" fill="#3833B6"/>
<path d="M51.8071 47.7853L56.8488 46.8645L53.5971 44.4785L51.8071 47.7853Z" fill="#2A41C6"/>
<path d="M57.2619 42.748L56.8488 46.8645L53.597 44.4785L57.2619 42.748Z" fill="#2045C1"/>
<path d="M57.262 42.748L59.6417 45.9798L56.8488 46.8645L57.262 42.748Z" fill="#1B43B7"/>
<path d="M61.2094 43.4003L57.262 42.748L59.6417 45.9798L61.2094 43.4003V43.4003Z" fill="#1742AF"/>
<path d="M41.0945 38.7993L42.6191 35.4978L39.7207 37.4803L41.0945 38.7993ZM61.2095 43.4003L59.6417 45.9805L62.1444 47.3948L61.2095 43.4003Z" fill="#1740A9"/>
<path d="M59.7728 50.6735L62.1444 47.394L59.6417 45.9798L59.7728 50.6735Z" fill="#1B3CA4"/>
<path d="M59.7728 50.6735L59.6417 45.9798L56.8488 46.8645L59.7728 50.6735Z" fill="#1F3DAD"/>
<path d="M40.0899 42.9102L45.1337 41.4399L43.4785 39.1958L40.0899 42.9102ZM51.8067 47.7853L56.045 51.1284L56.8484 46.8645L51.8067 47.7853Z" fill="#2543C3"/>
<path d="M52.2628 52.1687L56.0454 51.1283L51.8071 47.7853L52.2628 52.1687Z" fill="#2E37B2"/>
<path d="M45.1338 41.4399L46.0908 44.9221L48.5481 41.8011L45.1338 41.4399V41.4399Z" fill="#2D40C7"/>
<path d="M45.1337 41.4399L42.4695 46.8825L46.0908 44.9221L45.1337 41.4399Z" fill="#3537B8"/>
<path d="M46.0908 44.9221L43.2197 49.7457L47.8755 49.2556L46.0908 44.9221Z" fill="#3931B0"/>
<path d="M47.8755 49.2556L48.4187 53.5633L52.2628 52.1688L47.8755 49.2556ZM43.2197 49.7457L46.0908 44.9223L42.4695 46.8828L43.2197 49.7457Z" fill="#3735B8"/>
<path d="M40.0381 50.7122L42.4696 46.8825L43.2197 49.7457L40.0381 50.7122V50.7122Z" fill="#342892"/>
<path d="M42.4352 63.313L45.0102 64.1179L41.0753 61.5793L42.4352 63.313ZM42.2497 60.4501L45.0754 62.625L46.4313 59.7869L42.2316 58.4811L42.2497 60.4501ZM49.9841 63.0666L50.3408 59.8313L46.4313 59.7869L49.9841 63.0666ZM54.154 61.9464L53.0098 64.6397L57.6398 62.9131L54.154 61.9464Z" fill="#232372"/>
<path d="M37.7248 49.6999L38.874 46.0313L40.0381 50.7122L37.7248 49.6999Z" fill="#2A2F96"/>
<path d="M38.8742 46.0313L40.09 42.9102L37.5704 43.9852L38.8742 46.0313ZM56.8489 46.8645L56.0455 51.1283L59.7729 50.6735L56.8489 46.8645Z" fill="#2636A5"/>
<path d="M66.1702 50.9247V50.9172L66.0248 46.0573V46.0518C66.0248 46.05 66.0248 46.0484 66.024 46.0468C66.0231 46.0451 66.0231 46.0424 66.0226 46.0403V46.0388L65.2918 43.6137V43.6122L65.2903 43.6082C65.2903 43.6065 65.289 43.6047 65.2881 43.603L65.2872 43.6009L63.1963 39.6557L63.1951 39.6538L63.1925 39.6497L63.1902 39.6463L63.1887 39.6442L63.1865 39.6418L63.185 39.6398L60.792 37.1183L60.7909 37.1174L60.7893 37.1157C60.7879 37.1144 60.7863 37.1133 60.7848 37.112L60.7816 37.1093L58.2434 35.2974H58.2422L58.2399 35.2957C58.2382 35.2947 58.2364 35.2938 58.2345 35.293C58.2328 35.292 58.231 35.291 58.2291 35.2903H58.228L56.025 34.4257H56.0216L53.3771 33.485H53.3746L53.3695 33.4837L53.3649 33.4827H53.3575L49.0023 33.2056H48.9948C48.9925 33.2054 48.9901 33.2054 48.9877 33.2056H48.985L46.2387 33.7012H46.2328L46.2279 33.7026L43.9896 34.3907L43.9846 34.3926C43.9827 34.3934 43.9807 34.3942 43.9789 34.3952L43.976 34.3965H43.9751L39.999 36.7236H39.9982L39.9949 36.7258L39.9918 36.7279L39.9892 36.7302L39.9867 36.7321L39.984 36.7351L39.9818 36.737L39.9808 36.7381L37.4968 39.5091L37.4958 39.5105L37.494 39.5126L37.4924 39.5149L37.4902 39.518L37.4891 39.5194L37.4883 39.5208L35.1953 43.2392L35.1942 43.2414L35.192 43.2452L35.1901 43.2498C35.1901 43.2515 35.1887 43.2532 35.1881 43.255L35.1873 43.2571L34.2859 46.4242V46.4346C34.2856 46.4364 34.2854 46.4382 34.2853 46.44V46.4413L34.1168 51.2464V51.2583C34.117 51.2603 34.1174 51.2623 34.1179 51.2642V51.2691L34.9766 54.5433V54.5446L34.9775 54.5471C34.9783 54.5494 34.9792 54.5517 34.9802 54.5539C34.9802 54.555 34.981 54.5563 34.9816 54.5574L36.8765 58.2862L36.8777 58.288C36.8789 58.2901 36.8802 58.2922 36.8815 58.2942L36.8825 58.2959L38.2185 60.0964L38.2202 60.0984C38.2214 60.0999 38.2229 60.1012 38.2241 60.1025C38.2251 60.1037 38.2261 60.1048 38.2271 60.1058L40.0756 61.8011C40.0771 61.8025 40.0786 61.8035 40.0802 61.8047L40.0839 61.8077L42.3924 63.3693L42.394 63.3701L42.3995 63.3734L42.4025 63.3748H42.4035L45.2502 64.6129L45.2531 64.6138C45.2552 64.6147 45.2573 64.6154 45.2594 64.6159L45.2627 64.6168L45.2677 64.6178H45.2706L50.0347 65.1771H50.0411L52.5287 65.2463H52.5313C52.5359 65.2463 52.5405 65.2458 52.545 65.2449L52.548 65.244H52.5501L56.2318 64.207L56.2339 64.2061L56.2371 64.2053L56.24 64.204L56.242 64.203L56.2464 64.2011L56.2479 64.2003L59.5368 62.3956H59.5377L59.5391 62.3948C59.541 62.3936 59.5428 62.3923 59.5444 62.3909L59.5488 62.3879L61.6661 60.5819L61.6682 60.5795L61.671 60.5771L61.6737 60.5741H61.6745L63.316 58.6159L63.3167 58.6149C63.3188 58.6122 63.3207 58.6093 63.3224 58.6063L63.3244 58.6033V58.6025L65.6503 54.0605C65.6503 54.0596 65.6511 54.0583 65.6517 54.0572L65.654 54.0519V54.0493C65.6546 54.0474 65.6551 54.0454 65.6555 54.0434C65.6555 54.0422 65.6563 54.041 65.6566 54.0396L66.1689 50.9324V50.9271L66.1702 50.9247ZM40.1714 61.6949L39.6929 61.2558L40.7698 62.0994L40.1714 61.6949ZM47.1588 63.5198L45.4762 62.7331L49.4588 63.0913L47.1588 63.5198ZM47.7724 49.1943L43.3548 49.6591L46.079 45.0823L47.7724 49.1943ZM46.2305 45.0725L51.6278 47.7757L47.9156 49.1639L46.2305 45.0725ZM47.8125 49.3343L48.326 53.4063L43.4114 49.7969L47.8125 49.3343ZM48.2616 53.5373L42.9234 55.2172L43.2826 49.881L48.2616 53.5373ZM47.9662 49.4022L52.1039 52.1503L48.4784 53.4655L47.9662 49.4022ZM48.0321 49.2736L51.7448 47.8852L52.175 52.0244L48.0321 49.2736ZM53.7364 44.4919L57.1777 42.8672L56.7897 46.7324L53.7364 44.4919ZM56.6719 46.8237L51.9414 47.6878L53.6211 44.5859L56.6719 46.8237ZM51.807 47.6347L48.7255 41.9766L53.5 44.508L51.807 47.6347ZM51.6343 47.6186L46.2018 44.8979L48.5371 41.9312L51.6343 47.6186ZM43.2461 49.5612L42.5539 46.9187L45.896 45.1095L43.2461 49.5612ZM42.7881 55.0859L40.1478 50.7536L43.1408 49.8444L42.7881 55.0859ZM48.1792 53.7135L45.4932 56.5826L43.034 55.3327L48.1792 53.7135ZM52.1562 52.2835L51.1982 55.7334L48.5624 53.5869L52.1562 52.2835ZM51.8964 47.947L55.8894 51.0966L52.3256 52.0767L51.8964 47.947ZM51.9765 47.8271L56.7587 46.9536L55.9967 50.998L51.9765 47.8271ZM56.9313 46.7627L57.3144 42.9412L59.5237 45.9416L56.9313 46.7627ZM59.5723 46.0767L59.6946 50.4533L56.9683 46.9019L59.5723 46.0767ZM53.6724 44.3633L53.7641 41.1149L57.0957 42.7469L53.6724 44.3633ZM53.5284 44.3605L48.7725 41.8385L53.621 41.0854L53.5284 44.3605ZM46.1224 44.7654L45.2311 41.5222L48.411 41.8585L46.1224 44.7654ZM46.0063 44.886L42.6329 46.7122L45.1147 41.6421L46.0063 44.886ZM43.1325 49.6969L40.2027 50.5868L42.4418 47.0605L43.1325 49.6969ZM42.6019 55.0569L38.9439 52.4656L40.0351 50.8452L42.6019 55.0569ZM42.8972 55.4243L45.3554 56.6738L42.3316 58.3439L42.8972 55.4243ZM48.4254 53.6606L51.0653 55.8105L45.7006 56.5712L48.4254 53.6606ZM52.2999 52.3038L56.1963 56.0712L51.3313 55.7917L52.2999 52.3038ZM52.4032 52.2039L55.9795 51.2202L56.3008 55.9724L52.4032 52.2039ZM56.8898 47.0352L59.6391 50.6173L56.1344 51.0451L56.8898 47.0352ZM59.7171 46.1042L62.039 47.4167L59.8387 50.4591L59.7171 46.1042ZM59.7416 45.953L61.1795 43.5877L62.037 47.2506L59.7416 45.953ZM59.6359 45.85L57.4246 42.847L61.0928 43.4531L59.6359 45.85ZM53.8222 40.9828L56.4199 38.6319L57.1655 42.6198L53.8222 40.9828ZM48.6834 41.7074L50.3311 38.7836L53.5053 40.9584L48.6834 41.7074ZM45.2437 41.3793L47.1115 37.5814L48.4456 41.718L45.2437 41.3793ZM42.4631 46.7324L40.1993 42.9535L44.9981 41.5549L42.4631 46.7324ZM40.0675 50.5318L38.9725 46.1284L42.3548 46.9291L40.0675 50.5318ZM38.8612 52.3312L37.8572 49.8359L39.9304 50.743L38.8612 52.3312ZM42.7651 55.349L42.1981 58.2747L39.0658 52.7275L42.7651 55.349ZM45.4652 56.7775L46.3242 59.6783L42.414 58.4626L45.4652 56.7775ZM51.145 55.9446L50.2934 59.7144L45.7078 56.7157L51.145 55.9446ZM56.2099 56.2164L54.0053 58.2125L51.4409 55.942L56.2099 56.2164ZM56.1303 51.3163L59.5246 54.746L56.4502 56.0491L56.1303 51.3163ZM56.1996 51.1819L59.6983 50.7548L59.5833 54.6008L56.1996 51.1819ZM62.117 47.5546L63.5145 52.2605L59.8828 50.6439L62.117 47.5546ZM61.3249 43.578L63.6043 45.3064L62.179 47.2266L61.3249 43.578ZM57.4011 42.6982L59.5168 40.2746L61.0801 43.3061L57.4011 42.6982ZM57.3054 42.5889L56.5649 38.6278L59.4188 40.1681L57.3054 42.5889ZM53.6892 40.9101L50.5291 38.745L56.2736 38.5707L53.6892 40.9101ZM48.5661 41.6225L47.2411 37.5147L50.2042 38.7158L48.5661 41.6225ZM45.1208 41.3021L43.5865 39.2222L46.9667 37.5487L45.1208 41.3021ZM45.0143 41.3998L40.3148 42.7697L43.4723 39.3086L45.0143 41.3998ZM42.3198 46.7729L38.9702 45.9799L40.1026 43.0726L42.3198 46.7729ZM39.9324 50.5873L37.8122 49.6595L38.8649 46.2971L39.9324 50.5873ZM38.7502 52.4415L36.9264 53.1084L37.7395 49.9301L38.7502 52.4415ZM42.0305 58.2719L38.0184 55.7856L38.8679 52.6712L42.0305 58.2719ZM46.1158 59.7636L42.3204 60.3652L42.3039 58.5781L46.1158 59.7636ZM45.6328 56.8378L50.0957 59.7566L46.4863 59.7156L45.6328 56.8378ZM51.2809 55.9924L53.8716 58.2861L50.4416 59.7115L51.2809 55.9924ZM56.3532 56.2795L57.7223 60.0737L54.1322 58.292L56.3532 56.2795ZM56.4753 56.1936L59.5315 54.8982L57.8476 59.9978L56.4753 56.1936ZM59.8406 50.7821L63.4716 52.3984L59.7255 54.6406L59.8406 50.7821ZM62.272 47.5731L64.646 49.2628L63.6327 52.1552L62.272 47.5731ZM62.2446 47.3776L63.6716 45.4552L64.6119 49.0624L62.2446 47.3776ZM61.2925 43.3734L61.9551 41.3192L63.5331 45.0724L61.2925 43.3734ZM61.193 43.213L59.6832 40.2852L61.857 41.154L61.193 43.213ZM56.7204 38.5484L59.8816 38.342L59.4836 40.0397L56.7204 38.5484ZM50.461 38.6031L52.6868 35.8429L56.2538 38.4269L50.461 38.6031ZM50.3295 38.5369L49.1835 35.5355L52.5331 35.8053L50.3295 38.5369ZM50.1809 38.5506L47.2533 37.3639L49.0479 35.5834L50.1809 38.5506ZM43.6039 39.0529L44.8626 35.4222L46.9993 37.3718L43.6039 39.0529ZM40.2269 42.6528L41.1487 38.8804L43.3362 39.2443L40.2269 42.6528ZM38.8589 45.8723L37.6768 44.0173L39.961 43.0428L38.8589 45.8723ZM38.7957 46.041L37.7854 49.2661L37.6496 44.2423L38.7957 46.041ZM37.6324 49.7711L36.8084 52.9917L35.5148 49.7743L37.6324 49.7711ZM35.4818 49.6308L35.5502 46.4691L37.5922 49.6273L35.4818 49.6308ZM38.7391 52.5985L37.9202 55.6003L36.9194 53.2639L38.7391 52.5985ZM42.0253 58.4373L39.5388 58.7895L38.1173 56.0156L42.0253 58.4373ZM42.1604 58.5632L42.1765 60.3246L39.7156 58.9095L42.1604 58.5632ZM46.3075 59.8786L45.0487 62.5133L42.4258 60.4948L46.3075 59.8786ZM46.4542 59.9053L49.7803 62.9755L45.1849 62.5622L46.4542 59.9053ZM46.6173 59.8601L50.2606 59.9011L49.9282 62.9162L46.6173 59.8601ZM53.9375 58.4153L54.0765 61.8215L50.5058 59.8406L53.9375 58.4153ZM54.0821 58.4277L57.6855 60.2161L54.221 61.8356L54.0821 58.4277ZM59.6706 54.9369L61.4595 57.734L57.9846 60.0431L59.6706 54.9369ZM59.7952 54.8647L63.2394 55.3706L61.5631 57.6289L59.7952 54.8647ZM59.8593 54.7289L63.5433 52.5237L63.3037 55.2351L59.8593 54.7289ZM64.725 49.4737L65.3755 51.7494L63.7431 52.2768L64.725 49.4737ZM63.8594 45.6038L65.7252 47.9534L64.7667 49.0841L63.8594 45.6038ZM62.1135 41.3245L64.5367 43.0991L63.704 45.1054L62.1135 41.3245ZM59.6158 40.1043L60.0064 38.4385L61.7516 40.9579L59.6158 40.1043ZM56.526 38.4176L56.1054 35.8724L59.7501 38.207L56.526 38.4176ZM56.366 38.3327L52.8934 35.8154L55.9479 35.7965L56.366 38.3327ZM49.2998 35.4017L51.5676 34.01L52.5405 35.6628L49.2998 35.4017ZM47.1223 37.2914L45.0234 35.3753L48.9076 35.5215L47.1223 37.2914ZM43.4291 39.1155L41.25 38.7523L44.6673 35.5481L43.4291 39.1155ZM40.0469 42.7827L37.8159 40.9716L40.982 38.956L40.0469 42.7827ZM39.9521 42.8909L37.6469 43.875L37.7593 41.1113L39.9521 42.8909ZM37.6459 49.4454L35.5748 46.2417L37.5025 44.1636L37.6459 49.4454ZM36.7487 53.23L36.3555 55.1898L35.5797 50.3226L36.7487 53.23ZM36.8485 53.4643L37.8192 55.73L36.4331 55.5357L36.8485 53.4643ZM39.3668 58.7699L37.9039 58.4884L37.997 56.0959L39.3668 58.7699ZM42.1309 60.4646L41.0918 61.464L39.6955 59.0644L42.1309 60.4646ZM42.2549 60.5447L44.7511 62.466L41.2174 61.5422L42.2549 60.5447ZM50.4004 59.9465L53.9648 61.9231L50.0683 62.9699L50.4004 59.9465ZM57.7696 60.3355L57.5745 62.8211L54.3613 61.9291L57.7696 60.3355ZM61.3452 57.9826L59.367 61.4474L57.9696 60.2265L61.3452 57.9826ZM63.2986 55.533L63.3095 57.3474L61.7263 57.6497L63.2986 55.533ZM63.6951 52.4431L65.3048 51.9236L63.4683 55.0099L63.6951 52.4431ZM64.8118 49.2534L65.7258 48.1753L65.4276 51.4072L64.8118 49.2534ZM63.7864 45.2807L64.6067 43.3046L65.67 47.6529L63.7864 45.2807ZM62.0415 41.0927L62.6179 40.0862L64.3554 42.7874L62.0415 41.0927ZM61.9414 40.9782L60.2362 38.5172L62.5179 39.9721L61.9414 40.9782ZM56.2199 35.7741L57.9461 35.5898L59.6924 37.9978L56.2199 35.7741ZM52.7147 35.6729L51.7637 34.0577L55.6506 35.6548L52.7147 35.6729ZM49.1015 35.3552L48.3358 34.0143L51.335 33.9845L49.1015 35.3552ZM48.9492 35.3787L45.1715 35.2372L48.1811 34.0341L48.9492 35.3787ZM41.3144 38.4944L42.6671 35.5656L44.6288 35.3867L41.3144 38.4944ZM41.0713 38.6775L39.8348 37.4898L42.4445 35.7044L41.0713 38.6775ZM40.9786 38.7878L37.9042 40.7451L39.7375 37.5956L40.9786 38.7878ZM37.5031 43.8676L35.9601 43.038L37.613 41.1641L37.5031 43.8676ZM37.4544 44.0043L35.5804 46.0242L35.9058 43.172L37.4544 44.0043ZM35.3369 49.6686L34.5446 50.3169L35.3979 46.8794L35.3369 49.6686ZM35.3567 49.838L36.1656 54.912L34.5081 50.5332L35.3567 49.838ZM37.861 55.8809L37.7682 58.2653L36.4732 55.6864L37.861 55.8809ZM39.4523 58.9325L40.7676 61.1935L38.0606 58.6643L39.4523 58.9325ZM45.001 62.6798L44.9437 63.9896L41.4914 61.7622L45.001 62.6798ZM45.1426 62.7357L46.9337 63.5734L45.0858 64.0254L45.1426 62.7357ZM49.9141 63.1525L49.9698 64.9895L47.366 63.6271L49.9141 63.1525ZM54.0294 62.0539L52.9732 64.5407L50.18 63.0881L54.0294 62.0539ZM54.1948 62.0325L57.4066 62.9236L53.141 64.5146L54.1948 62.0325ZM57.9111 60.3665L59.272 61.556L57.7246 62.7571L57.9111 60.3665ZM61.6038 57.8191L63.1735 57.5195L59.7353 61.0927L61.6038 57.8191ZM63.4513 57.1258L63.4405 55.3573L64.8877 54.473L63.4513 57.1258ZM63.5785 55.1046L65.3352 52.1526L65.0131 54.2287L63.5785 55.1046ZM65.8186 48.7296L66.0237 50.9001L65.5595 51.5413L65.8186 48.7296ZM64.7522 43.2921L65.1536 43.6685L65.5551 46.5759L64.7522 43.2921ZM62.7176 39.976L63.0953 39.7865L64.1873 42.2611L62.7176 39.976ZM60.0761 38.2438L60.7391 37.2947L62.3618 39.701L60.0761 38.2438ZM59.9732 38.14L58.2441 35.7568L60.6367 37.1894L59.9732 38.14ZM56.0801 35.6445L56.0695 34.6083L57.7343 35.4684L56.0801 35.6445ZM55.9359 35.6165L52.1307 34.0531L55.925 34.5527L55.9359 35.6165ZM48.409 33.8699L49.0148 33.3504L51.0236 33.8442L48.409 33.8699ZM45.1004 35.1108L46.2784 33.8419L47.9072 33.9883L45.1004 35.1108ZM44.7961 35.2271L43.0123 35.3898L45.9411 33.9938L44.7961 35.2271ZM39.8906 37.2771L40.0879 36.8357L41.7249 36.0221L39.8906 37.2771ZM37.7418 40.7373L37.6228 39.5828L39.4043 37.8829L37.7418 40.7373ZM37.618 40.9406L36.1415 42.6146L37.502 39.8139L37.618 40.9406ZM35.4182 46.1728L34.4749 46.3482L35.72 43.5211L35.4182 46.1728ZM35.3869 46.3247L34.4846 49.9576L34.4273 46.5031L35.3869 46.3247ZM36.1843 55.3689L35.1125 54.4869L34.5993 51.1807L36.1843 55.3689ZM37.687 58.4249L37.0024 58.1994L36.5445 56.1494L37.687 58.4249ZM40.6127 61.2456L38.3387 60.0078L37.9737 58.7807L40.6127 61.2456ZM41.0275 61.635L42.0119 62.8902L39.0021 60.5325L41.0275 61.635ZM41.3959 61.8715L44.5267 63.8914L42.478 63.251L41.3959 61.8715ZM47.1398 63.6708L49.5734 64.9437L45.3436 64.1098L47.1398 63.6708ZM50.0596 63.1868L52.7834 64.6033L50.1154 65.0265L50.0596 63.1868ZM57.2895 63.1207L56.1838 64.0746L53.6955 64.461L57.2895 63.1207ZM59.3334 61.6909L59.4254 62.2861L57.9961 62.7285L59.3334 61.6909ZM63.0421 57.8628L61.5719 60.4741L59.7013 61.3345L63.0421 57.8628ZM63.4523 57.4275L64.4367 55.6091L63.3839 58.1033L63.4523 57.4275ZM65.533 51.8238L65.9047 51.3104L65.3071 53.2751L65.533 51.8238ZM65.8905 47.9492V47.9448L65.8852 47.9067L65.9222 47.42L65.96 48.6804L65.8905 47.9492ZM65.7917 47.2325L65.4198 44.5392L65.8803 46.0675L65.7917 47.2325ZM64.6853 43.0317L64.0065 41.4935L64.9565 43.2857L64.6853 43.0317ZM62.6387 39.8554L61.2831 37.8457L63.0125 39.6684L62.6387 39.8554ZM58.1104 35.5093L58.201 35.4438L59.2431 36.1878L58.1104 35.5093ZM57.9737 35.4308L57.269 35.0667L58.052 35.3741L57.9737 35.4308ZM52.0256 33.8945L53.346 33.6231L55.333 34.33L52.0256 33.8945ZM51.5948 33.8364L49.7968 33.3945L52.8116 33.5859L51.5948 33.8364ZM48.1887 33.8694L46.7863 33.7433L48.7485 33.3892L48.1887 33.8694ZM43.2395 35.1222L44.0419 34.5207L45.3354 34.1231L43.2395 35.1222ZM42.5809 35.4367L41.8849 35.7826L42.955 35.1564L42.5809 35.4367ZM39.6612 37.4383L38.8355 38.2266L39.7796 37.1738L39.6612 37.4383ZM35.7941 43.0011L35.427 43.1378L36.8531 40.8215L35.7941 43.0011ZM35.3156 43.3314L35.7121 43.1847L34.7103 45.4591L35.3156 43.3314ZM34.3291 49.2331L34.3502 50.4991L34.2773 50.7292L34.3291 49.2331ZM34.3975 50.8226L34.7587 53.1494L34.2608 51.251L34.3975 50.8226ZM36.2818 55.6359L36.7456 57.7127L35.2659 54.7988L36.2818 55.6359ZM37.7701 58.6037L38.0921 59.6864L37.1347 58.3945L37.7701 58.6037ZM44.9624 64.1784L45.0968 64.3926L43.6903 63.7812L44.9624 64.1784ZM45.3238 64.4838L45.1586 64.2205L48.22 64.8237L45.3238 64.4838ZM52.8229 64.7425L52.5019 65.1074L50.8214 65.0606L52.8229 64.7425ZM53.0459 64.7072L55.0493 64.3962L52.7482 65.0442L53.0459 64.7072ZM57.6748 62.9777L58.8496 62.6143L56.7779 63.7514L57.6748 62.9777ZM59.5568 62.1984L59.4645 61.6022L61.1812 60.8127L59.5568 62.1984ZM63.2755 57.7414L63.1951 58.5426L62.0661 59.8895L63.2755 57.7414ZM65.1349 54.3253L65.425 54.1856L64.0972 56.7849L65.1349 54.3253ZM65.5212 53.9799L65.1956 54.1367L65.8502 51.9843L65.5212 53.9799Z" fill="url(#paint1_radial)"/>
<path d="M66.1702 50.9247V50.9172L66.0248 46.0573V46.0518C66.0248 46.05 66.0248 46.0484 66.024 46.0468C66.0231 46.0451 66.0231 46.0424 66.0226 46.0403V46.0388L65.2918 43.6137V43.6122L65.2903 43.6082C65.2903 43.6065 65.289 43.6047 65.2881 43.603L65.2872 43.6009L63.1963 39.6557L63.1951 39.6538L63.1925 39.6497L63.1902 39.6463L63.1887 39.6442L63.1865 39.6418L63.185 39.6398L60.792 37.1183L60.7909 37.1174L60.7893 37.1157C60.7879 37.1144 60.7863 37.1133 60.7848 37.112L60.7816 37.1093L58.2434 35.2974H58.2422L58.2399 35.2957C58.2382 35.2947 58.2364 35.2938 58.2345 35.293C58.2328 35.292 58.231 35.291 58.2291 35.2903H58.228L56.025 34.4257H56.0216L53.3771 33.485H53.3746L53.3695 33.4837L53.3649 33.4827H53.3575L49.0023 33.2056H48.9948C48.9925 33.2054 48.9901 33.2054 48.9877 33.2056H48.985L46.2387 33.7012H46.2328L46.2279 33.7026L43.9896 34.3907L43.9846 34.3926C43.9827 34.3934 43.9807 34.3942 43.9789 34.3952L43.976 34.3965H43.9751L39.999 36.7236H39.9982L39.9949 36.7258L39.9918 36.7279L39.9892 36.7302L39.9867 36.7321L39.984 36.7351L39.9818 36.737L39.9808 36.7381L37.4968 39.5091L37.4958 39.5105L37.494 39.5126L37.4924 39.5149L37.4902 39.518L37.4891 39.5194L37.4883 39.5208L35.1953 43.2392L35.1942 43.2414L35.192 43.2452L35.1901 43.2498C35.1901 43.2515 35.1887 43.2532 35.1881 43.255L35.1873 43.2571L34.2859 46.4242V46.4346C34.2856 46.4364 34.2854 46.4382 34.2853 46.44V46.4413L34.1168 51.2464V51.2583C34.117 51.2603 34.1174 51.2623 34.1179 51.2642V51.2691L34.9766 54.5433V54.5446L34.9775 54.5471C34.9783 54.5494 34.9792 54.5517 34.9802 54.5539C34.9802 54.555 34.981 54.5563 34.9816 54.5574L36.8765 58.2862L36.8777 58.288C36.8789 58.2901 36.8802 58.2922 36.8815 58.2942L36.8825 58.2959L38.2185 60.0964L38.2202 60.0984C38.2214 60.0999 38.2229 60.1012 38.2241 60.1025C38.2251 60.1037 38.2261 60.1048 38.2271 60.1058L40.0756 61.8011C40.0771 61.8025 40.0786 61.8035 40.0802 61.8047L40.0839 61.8077L42.3924 63.3693L42.394 63.3701L42.3995 63.3734L42.4025 63.3748H42.4035L45.2502 64.6129L45.2531 64.6138C45.2552 64.6147 45.2573 64.6154 45.2594 64.6159L45.2627 64.6168L45.2677 64.6178H45.2706L50.0347 65.1771H50.0411L52.5287 65.2463H52.5313C52.5359 65.2463 52.5405 65.2458 52.545 65.2449L52.548 65.244H52.5501L56.2318 64.207L56.2339 64.2061L56.2371 64.2053L56.24 64.204L56.242 64.203L56.2464 64.2011L56.2479 64.2003L59.5368 62.3956H59.5377L59.5391 62.3948C59.541 62.3936 59.5428 62.3923 59.5444 62.3909L59.5488 62.3879L61.6661 60.5819L61.6682 60.5795L61.671 60.5771L61.6737 60.5741H61.6745L63.316 58.6159L63.3167 58.6149C63.3188 58.6122 63.3207 58.6093 63.3224 58.6063L63.3244 58.6033V58.6025L65.6503 54.0605C65.6503 54.0596 65.6511 54.0583 65.6517 54.0572L65.654 54.0519V54.0493C65.6546 54.0474 65.6551 54.0454 65.6555 54.0434C65.6555 54.0422 65.6563 54.041 65.6566 54.0396L66.1689 50.9324V50.9271L66.1702 50.9247ZM40.1714 61.6949L39.6929 61.2558L40.7698 62.0994L40.1714 61.6949ZM47.1588 63.5198L45.4762 62.7331L49.4588 63.0913L47.1588 63.5198ZM47.7724 49.1943L43.3548 49.6591L46.079 45.0823L47.7724 49.1943ZM46.2305 45.0725L51.6278 47.7757L47.9156 49.1639L46.2305 45.0725ZM47.8125 49.3343L48.326 53.4063L43.4114 49.7969L47.8125 49.3343ZM48.2616 53.5373L42.9234 55.2172L43.2826 49.881L48.2616 53.5373ZM47.9662 49.4022L52.1039 52.1503L48.4784 53.4655L47.9662 49.4022ZM48.0321 49.2736L51.7448 47.8852L52.175 52.0244L48.0321 49.2736ZM53.7364 44.4919L57.1777 42.8672L56.7897 46.7324L53.7364 44.4919ZM56.6719 46.8237L51.9414 47.6878L53.6211 44.5859L56.6719 46.8237ZM51.807 47.6347L48.7255 41.9766L53.5 44.508L51.807 47.6347ZM51.6343 47.6186L46.2018 44.8979L48.5371 41.9312L51.6343 47.6186ZM43.2461 49.5612L42.5539 46.9187L45.896 45.1095L43.2461 49.5612ZM42.7881 55.0859L40.1478 50.7536L43.1408 49.8444L42.7881 55.0859ZM48.1792 53.7135L45.4932 56.5826L43.034 55.3327L48.1792 53.7135ZM52.1562 52.2835L51.1982 55.7334L48.5624 53.5869L52.1562 52.2835ZM51.8964 47.947L55.8894 51.0966L52.3256 52.0767L51.8964 47.947ZM51.9765 47.8271L56.7587 46.9536L55.9967 50.998L51.9765 47.8271ZM56.9313 46.7627L57.3144 42.9412L59.5237 45.9416L56.9313 46.7627ZM59.5723 46.0767L59.6946 50.4533L56.9683 46.9019L59.5723 46.0767ZM53.6724 44.3633L53.7641 41.1149L57.0957 42.7469L53.6724 44.3633ZM53.5284 44.3605L48.7725 41.8385L53.621 41.0854L53.5284 44.3605ZM46.1224 44.7654L45.2311 41.5222L48.411 41.8585L46.1224 44.7654ZM46.0063 44.886L42.6329 46.7122L45.1147 41.6421L46.0063 44.886ZM43.1325 49.6969L40.2027 50.5868L42.4418 47.0605L43.1325 49.6969ZM42.6019 55.0569L38.9439 52.4656L40.0351 50.8452L42.6019 55.0569ZM42.8972 55.4243L45.3554 56.6738L42.3316 58.3439L42.8972 55.4243ZM48.4254 53.6606L51.0653 55.8105L45.7006 56.5712L48.4254 53.6606ZM52.2999 52.3038L56.1963 56.0712L51.3313 55.7917L52.2999 52.3038ZM52.4032 52.2039L55.9795 51.2202L56.3008 55.9724L52.4032 52.2039ZM56.8898 47.0352L59.6391 50.6173L56.1344 51.0451L56.8898 47.0352ZM59.7171 46.1042L62.039 47.4167L59.8387 50.4591L59.7171 46.1042ZM59.7416 45.953L61.1795 43.5877L62.037 47.2506L59.7416 45.953ZM59.6359 45.85L57.4246 42.847L61.0928 43.4531L59.6359 45.85ZM53.8222 40.9828L56.4199 38.6319L57.1655 42.6198L53.8222 40.9828ZM48.6834 41.7074L50.3311 38.7836L53.5053 40.9584L48.6834 41.7074ZM45.2437 41.3793L47.1115 37.5814L48.4456 41.718L45.2437 41.3793ZM42.4631 46.7324L40.1993 42.9535L44.9981 41.5549L42.4631 46.7324ZM40.0675 50.5318L38.9725 46.1284L42.3548 46.9291L40.0675 50.5318ZM38.8612 52.3312L37.8572 49.8359L39.9304 50.743L38.8612 52.3312ZM42.7651 55.349L42.1981 58.2747L39.0658 52.7275L42.7651 55.349ZM45.4652 56.7775L46.3242 59.6783L42.414 58.4626L45.4652 56.7775ZM51.145 55.9446L50.2934 59.7144L45.7078 56.7157L51.145 55.9446ZM56.2099 56.2164L54.0053 58.2125L51.4409 55.942L56.2099 56.2164ZM56.1303 51.3163L59.5246 54.746L56.4502 56.0491L56.1303 51.3163ZM56.1996 51.1819L59.6983 50.7548L59.5833 54.6008L56.1996 51.1819ZM62.117 47.5546L63.5145 52.2605L59.8828 50.6439L62.117 47.5546ZM61.3249 43.578L63.6043 45.3064L62.179 47.2266L61.3249 43.578ZM57.4011 42.6982L59.5168 40.2746L61.0801 43.3061L57.4011 42.6982ZM57.3054 42.5889L56.5649 38.6278L59.4188 40.1681L57.3054 42.5889ZM53.6892 40.9101L50.5291 38.745L56.2736 38.5707L53.6892 40.9101ZM48.5661 41.6225L47.2411 37.5147L50.2042 38.7158L48.5661 41.6225ZM45.1208 41.3021L43.5865 39.2222L46.9667 37.5487L45.1208 41.3021ZM45.0143 41.3998L40.3148 42.7697L43.4723 39.3086L45.0143 41.3998ZM42.3198 46.7729L38.9702 45.9799L40.1026 43.0726L42.3198 46.7729ZM39.9324 50.5873L37.8122 49.6595L38.8649 46.2971L39.9324 50.5873ZM38.7502 52.4415L36.9264 53.1084L37.7395 49.9301L38.7502 52.4415ZM42.0305 58.2719L38.0184 55.7856L38.8679 52.6712L42.0305 58.2719ZM46.1158 59.7636L42.3204 60.3652L42.3039 58.5781L46.1158 59.7636ZM45.6328 56.8378L50.0957 59.7566L46.4863 59.7156L45.6328 56.8378ZM51.2809 55.9924L53.8716 58.2861L50.4416 59.7115L51.2809 55.9924ZM56.3532 56.2795L57.7223 60.0737L54.1322 58.292L56.3532 56.2795ZM56.4753 56.1936L59.5315 54.8982L57.8476 59.9978L56.4753 56.1936ZM59.8406 50.7821L63.4716 52.3984L59.7255 54.6406L59.8406 50.7821ZM62.272 47.5731L64.646 49.2628L63.6327 52.1552L62.272 47.5731ZM62.2446 47.3776L63.6716 45.4552L64.6119 49.0624L62.2446 47.3776ZM61.2925 43.3734L61.9551 41.3192L63.5331 45.0724L61.2925 43.3734ZM61.193 43.213L59.6832 40.2852L61.857 41.154L61.193 43.213ZM56.7204 38.5484L59.8816 38.342L59.4836 40.0397L56.7204 38.5484ZM50.461 38.6031L52.6868 35.8429L56.2538 38.4269L50.461 38.6031ZM50.3295 38.5369L49.1835 35.5355L52.5331 35.8053L50.3295 38.5369ZM50.1809 38.5506L47.2533 37.3639L49.0479 35.5834L50.1809 38.5506ZM43.6039 39.0529L44.8626 35.4222L46.9993 37.3718L43.6039 39.0529ZM40.2269 42.6528L41.1487 38.8804L43.3362 39.2443L40.2269 42.6528ZM38.8589 45.8723L37.6768 44.0173L39.961 43.0428L38.8589 45.8723ZM38.7957 46.041L37.7854 49.2661L37.6496 44.2423L38.7957 46.041ZM37.6324 49.7711L36.8084 52.9917L35.5148 49.7743L37.6324 49.7711ZM35.4818 49.6308L35.5502 46.4691L37.5922 49.6273L35.4818 49.6308ZM38.7391 52.5985L37.9202 55.6003L36.9194 53.2639L38.7391 52.5985ZM42.0253 58.4373L39.5388 58.7895L38.1173 56.0156L42.0253 58.4373ZM42.1604 58.5632L42.1765 60.3246L39.7156 58.9095L42.1604 58.5632ZM46.3075 59.8786L45.0487 62.5133L42.4258 60.4948L46.3075 59.8786ZM46.4542 59.9053L49.7803 62.9755L45.1849 62.5622L46.4542 59.9053ZM46.6173 59.8601L50.2606 59.9011L49.9282 62.9162L46.6173 59.8601ZM53.9375 58.4153L54.0765 61.8215L50.5058 59.8406L53.9375 58.4153ZM54.0821 58.4277L57.6855 60.2161L54.221 61.8356L54.0821 58.4277ZM59.6706 54.9369L61.4595 57.734L57.9846 60.0431L59.6706 54.9369ZM59.7952 54.8647L63.2394 55.3706L61.5631 57.6289L59.7952 54.8647ZM59.8593 54.7289L63.5433 52.5237L63.3037 55.2351L59.8593 54.7289ZM64.725 49.4737L65.3755 51.7494L63.7431 52.2768L64.725 49.4737ZM63.8594 45.6038L65.7252 47.9534L64.7667 49.0841L63.8594 45.6038ZM62.1135 41.3245L64.5367 43.0991L63.704 45.1054L62.1135 41.3245ZM59.6158 40.1043L60.0064 38.4385L61.7516 40.9579L59.6158 40.1043ZM56.526 38.4176L56.1054 35.8724L59.7501 38.207L56.526 38.4176ZM56.366 38.3327L52.8934 35.8154L55.9479 35.7965L56.366 38.3327ZM49.2998 35.4017L51.5676 34.01L52.5405 35.6628L49.2998 35.4017ZM47.1223 37.2914L45.0234 35.3753L48.9076 35.5215L47.1223 37.2914ZM43.4291 39.1155L41.25 38.7523L44.6673 35.5481L43.4291 39.1155ZM40.0469 42.7827L37.8159 40.9716L40.982 38.956L40.0469 42.7827ZM39.9521 42.8909L37.6469 43.875L37.7593 41.1113L39.9521 42.8909ZM37.6459 49.4454L35.5748 46.2417L37.5025 44.1636L37.6459 49.4454ZM36.7487 53.23L36.3555 55.1898L35.5797 50.3226L36.7487 53.23ZM36.8485 53.4643L37.8192 55.73L36.4331 55.5357L36.8485 53.4643ZM39.3668 58.7699L37.9039 58.4884L37.997 56.0959L39.3668 58.7699ZM42.1309 60.4646L41.0918 61.464L39.6955 59.0644L42.1309 60.4646ZM42.2549 60.5447L44.7511 62.466L41.2174 61.5422L42.2549 60.5447ZM50.4004 59.9465L53.9648 61.9231L50.0683 62.9699L50.4004 59.9465ZM57.7696 60.3355L57.5745 62.8211L54.3613 61.9291L57.7696 60.3355ZM61.3452 57.9826L59.367 61.4474L57.9696 60.2265L61.3452 57.9826ZM63.2986 55.533L63.3095 57.3474L61.7263 57.6497L63.2986 55.533ZM63.6951 52.4431L65.3048 51.9236L63.4683 55.0099L63.6951 52.4431ZM64.8118 49.2534L65.7258 48.1753L65.4276 51.4072L64.8118 49.2534ZM63.7864 45.2807L64.6067 43.3046L65.67 47.6529L63.7864 45.2807ZM62.0415 41.0927L62.6179 40.0862L64.3554 42.7874L62.0415 41.0927ZM61.9414 40.9782L60.2362 38.5172L62.5179 39.9721L61.9414 40.9782ZM56.2199 35.7741L57.9461 35.5898L59.6924 37.9978L56.2199 35.7741ZM52.7147 35.6729L51.7637 34.0577L55.6506 35.6548L52.7147 35.6729ZM49.1015 35.3552L48.3358 34.0143L51.335 33.9845L49.1015 35.3552ZM48.9492 35.3787L45.1715 35.2372L48.1811 34.0341L48.9492 35.3787ZM41.3144 38.4944L42.6671 35.5656L44.6288 35.3867L41.3144 38.4944ZM41.0713 38.6775L39.8348 37.4898L42.4445 35.7044L41.0713 38.6775ZM40.9786 38.7878L37.9042 40.7451L39.7375 37.5956L40.9786 38.7878ZM37.5031 43.8676L35.9601 43.038L37.613 41.1641L37.5031 43.8676ZM37.4544 44.0043L35.5804 46.0242L35.9058 43.172L37.4544 44.0043ZM35.3369 49.6686L34.5446 50.3169L35.3979 46.8794L35.3369 49.6686ZM35.3567 49.838L36.1656 54.912L34.5081 50.5332L35.3567 49.838ZM37.861 55.8809L37.7682 58.2653L36.4732 55.6864L37.861 55.8809ZM39.4523 58.9325L40.7676 61.1935L38.0606 58.6643L39.4523 58.9325ZM45.001 62.6798L44.9437 63.9896L41.4914 61.7622L45.001 62.6798ZM45.1426 62.7357L46.9337 63.5734L45.0858 64.0254L45.1426 62.7357ZM49.9141 63.1525L49.9698 64.9895L47.366 63.6271L49.9141 63.1525ZM54.0294 62.0539L52.9732 64.5407L50.18 63.0881L54.0294 62.0539ZM54.1948 62.0325L57.4066 62.9236L53.141 64.5146L54.1948 62.0325ZM57.9111 60.3665L59.272 61.556L57.7246 62.7571L57.9111 60.3665ZM61.6038 57.8191L63.1735 57.5195L59.7353 61.0927L61.6038 57.8191ZM63.4513 57.1258L63.4405 55.3573L64.8877 54.473L63.4513 57.1258ZM63.5785 55.1046L65.3352 52.1526L65.0131 54.2287L63.5785 55.1046ZM65.8186 48.7296L66.0237 50.9001L65.5595 51.5413L65.8186 48.7296ZM64.7522 43.2921L65.1536 43.6685L65.5551 46.5759L64.7522 43.2921ZM62.7176 39.976L63.0953 39.7865L64.1873 42.2611L62.7176 39.976ZM60.0761 38.2438L60.7391 37.2947L62.3618 39.701L60.0761 38.2438ZM59.9732 38.14L58.2441 35.7568L60.6367 37.1894L59.9732 38.14ZM56.0801 35.6445L56.0695 34.6083L57.7343 35.4684L56.0801 35.6445ZM55.9359 35.6165L52.1307 34.0531L55.925 34.5527L55.9359 35.6165ZM48.409 33.8699L49.0148 33.3504L51.0236 33.8442L48.409 33.8699ZM45.1004 35.1108L46.2784 33.8419L47.9072 33.9883L45.1004 35.1108ZM44.7961 35.2271L43.0123 35.3898L45.9411 33.9938L44.7961 35.2271ZM39.8906 37.2771L40.0879 36.8357L41.7249 36.0221L39.8906 37.2771ZM37.7418 40.7373L37.6228 39.5828L39.4043 37.8829L37.7418 40.7373ZM37.618 40.9406L36.1415 42.6146L37.502 39.8139L37.618 40.9406ZM35.4182 46.1728L34.4749 46.3482L35.72 43.5211L35.4182 46.1728ZM35.3869 46.3247L34.4846 49.9576L34.4273 46.5031L35.3869 46.3247ZM36.1843 55.3689L35.1125 54.4869L34.5993 51.1807L36.1843 55.3689ZM37.687 58.4249L37.0024 58.1994L36.5445 56.1494L37.687 58.4249ZM40.6127 61.2456L38.3387 60.0078L37.9737 58.7807L40.6127 61.2456ZM41.0275 61.635L42.0119 62.8902L39.0021 60.5325L41.0275 61.635ZM41.3959 61.8715L44.5267 63.8914L42.478 63.251L41.3959 61.8715ZM47.1398 63.6708L49.5734 64.9437L45.3436 64.1098L47.1398 63.6708ZM50.0596 63.1868L52.7834 64.6033L50.1154 65.0265L50.0596 63.1868ZM57.2895 63.1207L56.1838 64.0746L53.6955 64.461L57.2895 63.1207ZM59.3334 61.6909L59.4254 62.2861L57.9961 62.7285L59.3334 61.6909ZM63.0421 57.8628L61.5719 60.4741L59.7013 61.3345L63.0421 57.8628ZM63.4523 57.4275L64.4367 55.6091L63.3839 58.1033L63.4523 57.4275ZM65.533 51.8238L65.9047 51.3104L65.3071 53.2751L65.533 51.8238ZM65.8905 47.9492V47.9448L65.8852 47.9067L65.9222 47.42L65.96 48.6804L65.8905 47.9492ZM65.7917 47.2325L65.4198 44.5392L65.8803 46.0675L65.7917 47.2325ZM64.6853 43.0317L64.0065 41.4935L64.9565 43.2857L64.6853 43.0317ZM62.6387 39.8554L61.2831 37.8457L63.0125 39.6684L62.6387 39.8554ZM58.1104 35.5093L58.201 35.4438L59.2431 36.1878L58.1104 35.5093ZM57.9737 35.4308L57.269 35.0667L58.052 35.3741L57.9737 35.4308ZM52.0256 33.8945L53.346 33.6231L55.333 34.33L52.0256 33.8945ZM51.5948 33.8364L49.7968 33.3945L52.8116 33.5859L51.5948 33.8364ZM48.1887 33.8694L46.7863 33.7433L48.7485 33.3892L48.1887 33.8694ZM43.2395 35.1222L44.0419 34.5207L45.3354 34.1231L43.2395 35.1222ZM42.5809 35.4367L41.8849 35.7826L42.955 35.1564L42.5809 35.4367ZM39.6612 37.4383L38.8355 38.2266L39.7796 37.1738L39.6612 37.4383ZM35.7941 43.0011L35.427 43.1378L36.8531 40.8215L35.7941 43.0011ZM35.3156 43.3314L35.7121 43.1847L34.7103 45.4591L35.3156 43.3314ZM34.3291 49.2331L34.3502 50.4991L34.2773 50.7292L34.3291 49.2331ZM34.3975 50.8226L34.7587 53.1494L34.2608 51.251L34.3975 50.8226ZM36.2818 55.6359L36.7456 57.7127L35.2659 54.7988L36.2818 55.6359ZM37.7701 58.6037L38.0921 59.6864L37.1347 58.3945L37.7701 58.6037ZM44.9624 64.1784L45.0968 64.3926L43.6903 63.7812L44.9624 64.1784ZM45.3238 64.4838L45.1586 64.2205L48.22 64.8237L45.3238 64.4838ZM52.8229 64.7425L52.5019 65.1074L50.8214 65.0606L52.8229 64.7425ZM53.0459 64.7072L55.0493 64.3962L52.7482 65.0442L53.0459 64.7072ZM57.6748 62.9777L58.8496 62.6143L56.7779 63.7514L57.6748 62.9777ZM59.5568 62.1984L59.4645 61.6022L61.1812 60.8127L59.5568 62.1984ZM63.2755 57.7414L63.1951 58.5426L62.0661 59.8895L63.2755 57.7414ZM65.1349 54.3253L65.425 54.1856L64.0972 56.7849L65.1349 54.3253ZM65.5212 53.9799L65.1956 54.1367L65.8502 51.9843L65.5212 53.9799Z" fill="url(#paint2_radial)"/>
<path d="M80.4854 37.7445C79.0558 34.3096 76.1602 30.6013 73.8864 29.4293C75.7371 33.0524 76.808 36.688 77.2173 39.4008C77.2173 39.393 77.2188 39.4075 77.2222 39.4317C77.2239 39.4434 77.2259 39.4554 77.2277 39.4672C80.3312 47.871 78.6406 56.4169 76.2041 61.639C72.4345 69.7191 63.3081 77.9999 49.0233 77.5959C33.5891 77.1595 19.9931 65.7214 17.455 50.7402C16.9926 48.3779 17.455 47.1783 17.6874 45.2601C17.4038 46.7389 17.296 47.166 17.1542 49.7933C17.1542 49.8494 17.1508 49.9049 17.1508 49.9611C17.1509 68.1045 31.8784 82.8125 50.0458 82.8125C57.8006 82.8157 65.307 80.0788 71.2397 75.0849C77.1725 70.0911 81.1498 63.1615 82.4695 55.5199C82.5253 55.0994 82.5699 54.6766 82.6191 54.2525C83.273 48.6183 82.5465 42.6965 80.4854 37.7445V37.7445Z" fill="url(#paint3_radial)"/>
<path d="M80.4854 37.7445C79.0558 34.3096 76.1602 30.6013 73.8864 29.4293C75.7371 33.0524 76.808 36.688 77.2173 39.4008C77.2173 39.393 77.2188 39.4075 77.2222 39.4317C77.2239 39.4434 77.2259 39.4554 77.2277 39.4672C80.3312 47.871 78.6406 56.4169 76.2041 61.639C72.4345 69.7191 63.3081 77.9999 49.0233 77.5959C33.5891 77.1595 19.9931 65.7214 17.455 50.7402C16.9926 48.3779 17.455 47.1783 17.6874 45.2601C17.4038 46.7389 17.296 47.166 17.1542 49.7933C17.1542 49.8494 17.1508 49.9049 17.1508 49.9611C17.1509 68.1045 31.8784 82.8125 50.0458 82.8125C57.8006 82.8157 65.307 80.0788 71.2397 75.0849C77.1725 70.0911 81.1498 63.1615 82.4695 55.5199C82.5253 55.0994 82.5699 54.6766 82.6191 54.2525C83.273 48.6183 82.5465 42.6965 80.4854 37.7445V37.7445Z" fill="url(#paint4_radial)"/>
<path d="M17.455 50.7402C19.9931 65.7214 33.5891 77.1594 49.0234 77.5958C63.3082 77.9998 72.4346 69.7184 76.2042 61.639C78.6406 56.4163 80.3314 47.8714 77.2278 39.4672L77.2267 39.4636L77.2223 39.4316C77.2189 39.4074 77.2167 39.3929 77.2174 39.4007C77.2174 39.4062 77.2194 39.4193 77.2238 39.4554C78.3904 47.0652 74.515 54.4372 68.4566 59.4218C68.4458 59.4477 68.4384 59.4646 68.4384 59.4646C56.6334 69.0653 45.337 65.2571 43.0497 63.6982C42.8891 63.6211 42.7296 63.5417 42.5712 63.4599C35.6888 60.1747 32.8455 53.9119 33.4551 48.5409C27.6437 48.5409 25.6621 43.6453 25.6621 43.6453C25.6621 43.6453 30.8797 39.9294 37.7564 43.1612C44.1252 46.1544 50.1065 43.6456 50.1072 43.6453C50.0949 43.3784 44.3698 41.1038 42.1377 38.9073C40.9451 37.7336 40.3788 37.1678 39.8773 36.7433C39.6052 36.5138 39.3208 36.2993 39.0253 36.1008C38.7996 35.948 38.5723 35.7976 38.3435 35.6496C35.9443 34.0921 31.1728 34.1779 31.0153 34.1819H31C29.696 32.5323 29.788 27.0902 29.8624 25.9539C29.8467 25.8833 28.8895 26.4502 28.7641 26.5355C27.6132 27.3561 26.5372 28.2768 25.5486 29.2871C24.4241 30.426 23.3965 31.6567 22.4767 32.9665C22.4767 32.9681 22.4757 32.9699 22.4752 32.9715C22.4752 32.9699 22.4762 32.9681 22.4767 32.9663C20.3618 35.9596 18.8616 39.3425 18.0629 42.9195C18.047 42.9915 16.8788 48.0939 17.455 50.7402V50.7402Z" fill="url(#paint5_radial)"/>
<path d="M61.6504 37.7764C62.8503 38.9529 63.8784 40.2929 64.7041 41.7565C64.8853 41.8924 65.0542 42.0279 65.1979 42.1601C72.6553 49.0234 68.7481 58.7304 68.4565 59.4218C74.5149 54.4372 78.3903 47.0652 77.2237 39.4554C73.504 30.1953 67.1969 26.4613 62.0459 18.3312C61.7854 17.92 61.5251 17.5078 61.2711 17.0733C61.1417 16.8515 61.0209 16.6248 60.9089 16.3937C60.6953 15.981 60.5306 15.5449 60.418 15.0941C60.4188 15.0727 60.4116 15.0518 60.3977 15.0355C60.3839 15.0192 60.3645 15.0086 60.3433 15.0059C60.3231 15.0001 60.3017 15.0001 60.2815 15.0059C60.2769 15.0075 60.2701 15.0129 60.2651 15.0148C60.2579 15.0176 60.2487 15.0242 60.2411 15.0284C58.9688 15.6338 51.4249 27.5645 61.6504 37.7764V37.7764Z" fill="url(#paint6_linear)"/>
<path d="M48.9961 33.2718L53.3512 33.5489L55.9963 34.4898L58.2008 35.3551L60.7397 37.1677L63.1313 39.6884L63.9621 41.2562C64.0737 41.3245 64.3039 41.473 64.4997 41.6059C64.5715 41.6562 64.6364 41.7064 64.7048 41.7563C63.8791 40.2926 62.851 38.9527 61.651 37.7761C51.4249 27.5645 58.9687 15.6338 60.2413 15.0273C60.245 15.0224 60.2527 15.0114 60.255 15.0088C51.9917 19.8426 49.1884 28.7844 48.9309 33.2582L48.9296 33.2833L48.9961 33.2718Z" fill="url(#paint7_linear)"/>
<path d="M38.3434 35.6504C38.5725 35.798 38.7998 35.9484 39.0252 36.1016C38.2754 33.4817 38.2435 30.7084 38.9329 28.072C35.5538 29.6088 32.9254 32.0382 31.0147 34.1833C31.1728 34.1788 35.9442 34.0929 38.3434 35.6504Z" fill="url(#paint8_radial)"/>
<path d="M35.2781 52.9326C35.2781 52.9326 36.7971 47.2807 46.1514 47.2807C47.1631 47.2807 50.0533 44.4629 50.1066 43.6453C50.1066 43.6453 44.1252 46.1541 37.7568 43.1613C30.8799 39.9293 25.6641 43.6453 25.6641 43.6453C25.6641 43.6453 27.6465 48.5412 33.457 48.5412C32.8486 53.9115 35.691 60.1746 42.5734 63.46C42.7279 63.5338 42.8729 63.6131 43.0301 63.6842C39.0105 61.6102 35.6938 57.6918 35.2781 52.9326Z" fill="url(#paint9_radial)"/>
<path d="M65.1979 42.1601C65.0542 42.0279 64.8852 41.8924 64.7041 41.7565C64.6371 41.7063 64.5715 41.6562 64.499 41.6061C62.7426 40.3737 59.5975 39.1565 56.5674 39.6829C68.3992 45.5909 65.2228 65.9361 48.8276 65.1673C47.3677 65.1078 45.9249 64.8299 44.5474 64.3429C44.2216 64.2206 43.8994 64.089 43.5812 63.9483C43.3955 63.8637 43.2101 63.7784 43.0268 63.6836C43.0334 63.6883 43.0424 63.6933 43.0491 63.6973C45.3362 65.2559 56.6326 69.0643 68.4378 59.4637C68.4378 59.4637 68.4451 59.4467 68.4559 59.4209C68.7481 58.7307 72.6552 49.0234 65.1979 42.1601V42.1601Z" fill="url(#paint10_radial)"/>
<path d="M80.4826 37.7432C79.053 34.3082 76.1573 30.5999 73.8835 29.4279C75.7341 33.051 76.8052 36.6866 77.2145 39.3994C77.2145 39.4048 77.2166 39.418 77.2209 39.4541C73.5019 30.194 67.194 26.4599 62.0431 18.3298C61.7833 17.9185 61.5223 17.5065 61.2682 17.072C61.1388 16.8502 61.0181 16.6235 60.9062 16.3923C60.6927 15.9799 60.5281 15.544 60.4155 15.0935C60.4163 15.0722 60.409 15.0513 60.3952 15.035C60.3813 15.0187 60.3619 15.0082 60.3407 15.0055C60.3205 14.9997 60.2992 14.9997 60.279 15.0055C60.2744 15.0071 60.2675 15.0124 60.2626 15.0144C60.2554 15.0172 60.2462 15.0238 60.2386 15.028C60.2421 15.0231 60.2499 15.012 60.2522 15.0094C51.9889 19.8433 49.1872 28.8115 48.9296 33.2853L48.9963 33.2733L53.3515 33.5504L55.8026 34.4223L58.201 35.3566L60.7399 37.1692L63.1287 39.6885C63.1287 39.6885 63.9509 41.2317 63.9626 41.2577C62.0562 40.1238 59.2858 39.2103 56.5662 39.6828C68.3979 45.5908 65.2215 65.9359 48.8264 65.1672C47.366 65.1076 45.9228 64.8294 44.5449 64.3418C44.2191 64.2197 43.8969 64.0881 43.5787 63.9474C43.393 63.8627 43.2076 63.7773 43.0243 63.6827C43.0309 63.6873 43.0399 63.6924 43.0466 63.697C42.886 63.6199 42.7264 63.5404 42.5681 63.4587C42.7219 63.5322 42.8665 63.6123 43.0244 63.6827C39.0071 61.6091 35.69 57.69 35.2756 52.931C35.2756 52.931 36.794 47.2798 46.148 47.2798C47.1598 47.2798 50.0503 44.4615 50.104 43.6441C50.0917 43.3772 44.3665 41.1026 42.1345 38.9061C40.9419 37.7324 40.3756 37.1666 39.8742 36.7421C39.6021 36.5126 39.3176 36.2981 39.0221 36.0995C38.2723 33.4796 38.2405 30.7064 38.9298 28.0699C35.5507 29.6068 32.9223 32.0361 31.0115 34.1812H30.9963C29.6923 32.5316 29.7843 27.0895 29.8586 25.9532C29.843 25.8827 28.8858 26.4495 28.7603 26.5348C27.6097 27.3552 26.534 28.2757 25.5456 29.2856C24.4212 30.4245 23.3937 31.6551 22.4738 32.9648C22.4735 32.9666 22.473 32.9683 22.4723 32.9699C22.473 32.9682 22.4735 32.9665 22.4738 32.9647C20.359 35.958 18.8587 39.3409 18.06 42.9178C18.0443 42.9891 18.031 43.0629 18.0156 43.1347C17.9538 43.424 17.6754 44.8918 17.6366 45.2068C17.6336 45.2308 17.6395 45.1826 17.6366 45.2068C17.3827 46.7236 17.2207 48.2544 17.1515 49.7908C17.1515 49.8469 17.1479 49.9024 17.1479 49.9586C17.1479 68.1018 31.8756 82.81 50.0425 82.81C57.7971 82.8134 65.3035 80.0766 71.2363 75.0829C77.1691 70.0893 81.1467 63.16 82.4667 55.5185C82.5225 55.098 82.5671 54.6752 82.6163 54.2511C83.2701 48.617 82.5437 42.6951 80.4826 37.7432V37.7432ZM77.2194 39.4303C77.2211 39.442 77.2231 39.4541 77.2249 39.4658L77.2237 39.4623C77.2222 39.4509 77.2207 39.4408 77.2194 39.4303V39.4303Z" fill="url(#paint11_linear)"/>
<path d="M50.1066 43.6456C50.1066 43.6456 49.9672 43.704 49.7101 43.792C49.0676 44.878 46.7831 46.9502 45.9094 46.9468C36.5553 46.9058 35.0129 52.4958 35.0129 52.4958C35.1836 54.4063 35.812 56.2476 36.8449 57.8638C35.9715 56.353 35.437 54.6704 35.2787 52.9325C35.2787 52.9325 36.7971 47.2814 46.1512 47.2814C47.1629 47.2814 50.0533 44.463 50.1072 43.6456H50.1066Z" fill="url(#paint12_linear)"/>
<path d="M77.2278 39.4669L77.2266 39.4636C77.2249 39.4524 77.2237 39.4422 77.2221 39.4318C77.2211 39.4214 77.2196 39.411 77.2175 39.4007C77.219 39.419 77.221 39.4373 77.2237 39.4554C77.0029 38.9068 76.7673 38.3643 76.5171 37.8285C76.4335 37.6488 76.3436 37.4808 76.2574 37.3054C76.0933 36.9684 75.9292 36.6307 75.7574 36.3083C75.6514 36.1092 75.54 35.9204 75.4316 35.7267C75.2726 35.4429 75.115 35.1573 74.951 34.8837C74.8308 34.6837 74.7067 34.4921 74.5846 34.2972C74.4248 34.0426 74.2655 33.7872 74.1016 33.5406C73.972 33.3452 73.8391 33.156 73.707 32.9653C73.5439 32.7297 73.3808 32.4938 73.2148 32.2642C73.077 32.0745 72.937 31.8891 72.7976 31.7036C72.6321 31.4823 72.4647 31.2624 72.2954 31.0439C72.1506 30.8586 72.0047 30.6748 71.8579 30.4926C71.6882 30.281 71.5173 30.0705 71.3451 29.8611C71.1952 29.6798 71.0445 29.4992 70.8929 29.3192C70.8109 29.2216 70.7289 29.1214 70.6468 29.0241C70.6824 29.0663 70.7167 29.1102 70.752 29.1529C67.9019 25.7908 64.8088 22.6923 62.0466 18.3316C61.7857 17.9206 61.5254 17.5084 61.2716 17.0737C61.1421 16.852 61.0213 16.6253 60.9095 16.3941C60.7234 16.0245 60.5719 15.6385 60.4569 15.241C60.4512 15.2198 60.4408 15.1876 60.4371 15.1714C60.4259 15.128 60.4189 15.0949 60.4189 15.0949C60.4196 15.0735 60.4123 15.0526 60.3985 15.0363C60.3846 15.02 60.3652 15.0095 60.344 15.0067C60.3238 15.0011 60.3025 15.0011 60.2823 15.0067C60.2777 15.0083 60.2707 15.0138 60.2657 15.0159C60.2606 15.0179 60.2495 15.025 60.2417 15.0287C60.1695 15.0692 60.1024 15.1184 60.0421 15.1753C60.0261 15.1892 60.0102 15.2034 59.9946 15.2178C59.9028 15.3044 59.816 15.396 59.7344 15.4922C59.7311 15.4959 59.7285 15.4979 59.7252 15.5016C59.726 15.5008 59.7269 15.5008 59.7277 15.5C57.7569 17.8165 52.7241 27.8845 60.8351 36.9149C53.2413 27.981 58.0266 18.3261 60.1064 15.7968C60.217 16.1375 60.3525 16.4696 60.5116 16.7905C60.6237 17.0215 60.7445 17.2482 60.8738 17.4701C61.1275 17.9051 61.388 18.3178 61.6487 18.7279C66.7996 26.858 73.1066 30.5922 76.8263 39.8523C76.8238 39.8341 76.8218 39.8159 76.8201 39.7976C76.8223 39.8079 76.8238 39.8182 76.8246 39.8287C76.8263 39.8391 76.8275 39.8495 76.8291 39.8605L76.8305 39.8639C79.934 48.268 78.2432 56.8137 75.8067 62.0358C74.4989 64.8093 72.7325 67.3423 70.5818 69.5279C72.9109 67.2544 74.815 64.5828 76.2042 61.6393C78.6407 56.4168 80.3312 47.8712 77.2278 39.4669V39.4669Z" fill="url(#paint13_linear)"/>
<path d="M60.2414 15.0273C60.245 15.0224 60.2527 15.0114 60.255 15.0088C52.8114 19.3631 49.7988 27.0503 49.0861 31.8027C49.9047 27.4119 52.7192 20.7049 59.0269 16.4705C59.546 15.6508 60.0035 15.1412 60.2414 15.0273V15.0273Z" fill="url(#paint14_linear)"/>
<path d="M68.4383 59.4646C68.4383 59.4646 68.4456 59.4477 68.4564 59.4218C68.7481 58.7307 72.6552 49.0234 65.1979 42.1601C65.0542 42.0279 64.8852 41.8924 64.7041 41.7565C64.6371 41.7064 64.5714 41.6562 64.499 41.6062C62.8016 40.4152 59.8073 39.2387 56.8733 39.636L56.8662 39.6369C56.7666 39.6505 56.667 39.6659 56.5674 39.6829C68.2657 45.5244 65.2918 65.4781 49.3766 65.1849C49.4199 65.187 49.4632 65.1904 49.5063 65.1922C65.6403 65.8236 68.819 46.0394 57.6097 39.8367C60.0389 39.813 62.3886 40.7 63.8396 41.6357C63.9133 41.6831 63.9809 41.7306 64.0497 41.7781C64.2361 41.9068 64.4102 42.0356 64.559 42.1622C72.2799 48.7285 68.7557 58.5807 68.4914 59.2832C68.486 59.2977 68.4805 59.3122 68.475 59.3267" fill="url(#paint15_linear)"/>
<path d="M37.8443 43.4895C43.2283 45.8219 48.2254 44.3399 49.7389 43.782C48.3443 44.2633 43.1914 45.7152 37.7568 43.1613C31.5744 40.2561 26.7346 42.9645 25.8185 43.5414L25.7748 43.5688L25.7392 43.592L25.7119 43.6098L25.6941 43.6207L25.6818 43.6289L25.6982 43.6645L25.7174 43.7068V43.715L25.7461 43.7766C25.7926 43.875 25.8637 44.0158 25.9621 44.1867C26.6922 45.4787 28.892 48.5111 33.4666 48.5111C32.876 53.7215 35.5338 59.7699 41.976 63.1264C35.8236 59.5717 33.226 53.1459 33.9506 48.0203C29.1982 47.8945 27.0723 45.0453 26.4652 43.8381C28.1933 42.9221 32.5807 41.209 37.8443 43.4895Z" fill="url(#paint16_linear)"/>
<path d="M39.0201 36.0827C38.9683 36.0523 38.9147 36.0212 38.8593 35.9892C38.9166 36.0275 38.9718 36.0647 39.0252 36.101C39.0234 36.0949 39.0215 36.0888 39.0201 36.0827V36.0827ZM38.9863 35.9621C38.2753 33.3823 38.2569 30.6606 38.9329 28.0714C35.7296 29.5283 33.202 31.7869 31.3198 33.8454C33.1122 32.0995 35.4341 30.2261 38.2621 28.9424C38.0871 30.2851 37.9363 33.0339 38.9863 35.9621Z" fill="url(#paint17_linear)"/>
<path d="M18.2481 54.1836C18.239 54.1523 18.2309 54.1208 18.222 54.0894C17.9029 52.9883 17.6469 51.87 17.455 50.7398C17.204 49.5872 17.2841 47.969 17.455 46.5033C17.328 47.2641 17.2484 48.0374 17.1542 49.7929C17.1542 49.8489 17.1508 49.9044 17.1508 49.9606C17.1508 64.3187 26.375 76.5234 39.2265 80.9918C28.0861 76.7255 19.833 66.5156 18.2481 54.1836Z" fill="url(#paint18_linear)"/>
<path d="M17.9848 50.8727C17.4087 48.2263 18.5769 43.124 18.5927 43.0523C19.3913 39.4754 20.8915 36.0924 23.0065 33.0992L23.005 33.1044C23.005 33.1028 23.0059 33.101 23.0065 33.0994C23.9264 31.7896 24.954 30.5589 26.0786 29.42C27.0669 28.41 28.1426 27.4895 29.2932 26.6692C29.3389 26.6394 29.3852 26.6105 29.432 26.5825C29.4206 29.0817 29.5624 33.2987 30.7203 34.6813H30.7355C30.8941 34.6731 35.6815 34.4619 38.1309 35.9558C38.3645 36.0975 38.5966 36.2417 38.827 36.3884C39.1287 36.5789 39.4198 36.7858 39.699 37.008C40.2136 37.4193 40.7969 37.97 42.0249 39.112C43.8022 40.765 47.679 42.4098 49.353 43.1933C47.7221 42.3718 43.8737 40.6164 42.1378 38.9081C40.9452 37.7344 40.3789 37.1687 39.8774 36.7441C39.6053 36.5146 39.3209 36.3001 39.0254 36.1016C38.7997 35.9488 38.5725 35.7984 38.3436 35.6504C35.9445 34.0929 31.173 34.1786 31.0155 34.1827H31.0002C29.8082 32.675 29.7827 28.0011 29.8438 26.3403C29.8463 26.2763 29.8487 26.2172 29.8512 26.1625L29.854 26.1039C29.8548 26.0876 29.8557 26.0714 29.8565 26.0552C29.8586 26.0194 29.8605 25.9848 29.8625 25.9548C29.8616 25.9506 29.8568 25.949 29.8495 25.9491C29.8471 25.9491 29.843 25.9503 29.8398 25.9507C29.8328 25.9518 29.8259 25.9533 29.8192 25.9554C29.8139 25.9569 29.8073 25.9595 29.8011 25.9617C29.783 25.968 29.7652 25.9751 29.7478 25.9831L29.7158 25.9976C29.6931 26.0082 29.6705 26.0191 29.6481 26.0305L29.6071 26.0511L29.5736 26.0686L29.5246 26.0943L29.4972 26.1092C29.2072 26.2652 28.8392 26.4857 28.7647 26.5364C27.6136 27.3567 26.5374 28.2771 25.5486 29.2871C24.4241 30.4259 23.3965 31.6567 22.4767 32.9665C22.4767 32.9681 22.4757 32.9699 22.4752 32.9715C22.4752 32.9699 22.4762 32.9681 22.4767 32.9663C20.3618 35.9596 18.8616 39.3425 18.0629 42.9195C18.047 42.9907 16.8788 48.093 17.455 50.7398C19.6152 63.4889 29.7838 73.6702 42.2781 76.6906C30.027 73.5141 20.1142 63.4411 17.9848 50.8727V50.8727Z" fill="url(#paint19_linear)"/>
<path d="M80.4854 37.7445C79.224 34.7139 76.8213 31.4715 74.7116 29.945L74.6535 29.904C74.5881 29.8577 74.523 29.8129 74.4582 29.7697C74.4336 29.7533 74.409 29.7371 74.3844 29.7211C74.3229 29.6814 74.2618 29.6434 74.2011 29.607C74.1776 29.5934 74.1539 29.5781 74.1304 29.5644C74.0501 29.5175 73.9687 29.4726 73.8862 29.4296C73.9751 29.6035 74.0605 29.7774 74.146 29.9513C74.1987 30.0593 74.251 30.1674 74.3029 30.2757C75.8982 33.6137 76.84 36.8995 77.2174 39.401C77.2174 39.4065 77.2194 39.4196 77.2238 39.4557C78.3904 47.0655 74.515 54.4375 68.4566 59.4221C68.4458 59.448 68.4384 59.4649 68.4384 59.4649C60.9079 65.5899 53.585 66.2568 48.675 65.5329C53.5676 66.4467 61.285 66.0615 69.2333 59.5974L69.2514 59.5546C75.3097 54.57 79.1853 47.1978 78.0187 39.5882C78.0162 39.57 78.0141 39.5518 78.0123 39.5335C77.6772 37.3129 76.8968 34.4742 75.6101 31.53C77.0505 33.0557 78.2623 34.782 79.208 36.655C81.5386 41.4074 82.5903 47.1878 82.2479 52.7627C82.2222 53.1824 82.201 53.6005 82.1686 54.0169C80.382 69.3978 67.5442 81.7494 51.2999 82.6595C49.1317 82.7817 46.9568 82.6933 44.8057 82.3957C46.5386 82.673 48.2908 82.8124 50.0457 82.8125C66.3153 82.8125 79.8247 71.0155 82.4694 55.5199C82.5252 55.0993 82.5698 54.6766 82.619 54.2525C83.2729 48.6183 82.5464 42.6965 80.4854 37.7445V37.7445ZM77.2276 39.4672L77.2265 39.4636L77.2222 39.4316C77.2238 39.4434 77.2258 39.4554 77.2276 39.4672V39.4672Z" fill="url(#paint20_linear)"/>
<defs>
<linearGradient id="paint0_linear" x1="100" y1="0" x2="0" y2="100" gradientUnits="userSpaceOnUse">
<stop stop-color="#0B4CB7"/>
<stop offset="1" stop-color="#1B2268"/>
</linearGradient>
<radialGradient id="paint1_radial" cx="0" cy="0" r="1" gradientUnits="userSpaceOnUse" gradientTransform="translate(51.7462 41.2157) scale(19.2321 19.2245)">
<stop offset="0.1" stop-color="#00DDFF" stop-opacity="0.4"/>
<stop offset="0.9" stop-color="#7542E5" stop-opacity="0.25"/>
</radialGradient>
<radialGradient id="paint2_radial" cx="0" cy="0" r="1" gradientUnits="userSpaceOnUse" gradientTransform="translate(49.8993 50.091) scale(16.3472 16.3408)">
<stop offset="0.91" stop-color="#7542E5" stop-opacity="0"/>
<stop offset="1" stop-color="#00DDFF" stop-opacity="0.4"/>
</radialGradient>
<radialGradient id="paint3_radial" cx="0" cy="0" r="1" gradientUnits="userSpaceOnUse" gradientTransform="translate(62.6857 22.4895) scale(68.3402 68.3305)">
<stop stop-color="#80EBFF"/>
<stop offset="0.26" stop-color="#00DDFF"/>
<stop offset="0.53" stop-color="#0090ED"/>
<stop offset="0.86" stop-color="#0060DF"/>
</radialGradient>
<radialGradient id="paint4_radial" cx="0" cy="0" r="1" gradientUnits="userSpaceOnUse" gradientTransform="translate(42.243 50.7826) scale(68.3402 68.3305)">
<stop offset="0.3" stop-color="#321C64" stop-opacity="0.8"/>
<stop offset="0.37" stop-color="#212F83" stop-opacity="0.5"/>
<stop offset="0.48" stop-color="#0A47AC" stop-opacity="0.14"/>
<stop offset="0.53" stop-color="#0250BB" stop-opacity="0"/>
</radialGradient>
<radialGradient id="paint5_radial" cx="0" cy="0" r="1" gradientUnits="userSpaceOnUse" gradientTransform="translate(63.4449 0.116717) scale(108.506 108.491)">
<stop stop-color="#80EBFF"/>
<stop offset="0.47" stop-color="#00B3F4"/>
<stop offset="0.84" stop-color="#0060DF"/>
<stop offset="1" stop-color="#592ACB"/>
</radialGradient>
<linearGradient id="paint6_linear" x1="65.2147" y1="10.5595" x2="81.7098" y2="61.6035" gradientUnits="userSpaceOnUse">
<stop stop-color="#AAF2FF"/>
<stop offset="0.29" stop-color="#00DDFF"/>
<stop offset="0.61" stop-color="#0090ED"/>
<stop offset="0.89" stop-color="#0250BB"/>
</linearGradient>
<linearGradient id="paint7_linear" x1="54.9242" y1="15.0088" x2="65.4885" y2="45.9125" gradientUnits="userSpaceOnUse">
<stop stop-color="#AAF2FF"/>
<stop offset="0.29" stop-color="#00DDFF"/>
<stop offset="0.74" stop-color="#0090ED"/>
<stop offset="1" stop-color="#0250BB"/>
</linearGradient>
<radialGradient id="paint8_radial" cx="0" cy="0" r="1" gradientUnits="userSpaceOnUse" gradientTransform="translate(47.6765 19.7087) scale(24.0315 24.0277)">
<stop stop-color="#00DDFF"/>
<stop offset="0.82" stop-color="#0090ED"/>
</radialGradient>
<radialGradient id="paint9_radial" cx="0" cy="0" r="1" gradientUnits="userSpaceOnUse" gradientTransform="translate(58.4117 32.0108) scale(68.3728 68.3709)">
<stop offset="0.29" stop-color="#80EBFF"/>
<stop offset="1" stop-color="#00B3F4"/>
</radialGradient>
<radialGradient id="paint10_radial" cx="0" cy="0" r="1" gradientUnits="userSpaceOnUse" gradientTransform="translate(46.4381 28.2868) scale(60.293 60.2824)">
<stop offset="0.18" stop-color="#AAF2FF"/>
<stop offset="0.43" stop-color="#00DDFF"/>
<stop offset="0.69" stop-color="#0060DF"/>
</radialGradient>
<linearGradient id="paint11_linear" x1="73.651" y1="25.1725" x2="28.8566" y2="70.5473" gradientUnits="userSpaceOnUse">
<stop offset="0.24" stop-color="#80EBFF" stop-opacity="0.5"/>
<stop offset="0.7" stop-color="#00DDFF" stop-opacity="0"/>
</linearGradient>
<linearGradient id="paint12_linear" x1="44.2204" y1="42.2238" x2="38.6904" y2="64.9907" gradientUnits="userSpaceOnUse">
<stop stop-color="#BFF3FF" stop-opacity="0.9"/>
<stop offset="1" stop-color="#80EBFF" stop-opacity="0.5"/>
</linearGradient>
<linearGradient id="paint13_linear" x1="67.866" y1="13.912" x2="63.918" y2="90.6245" gradientUnits="userSpaceOnUse">
<stop stop-color="#BFF3FF"/>
<stop offset="1" stop-color="#00DDFF" stop-opacity="0"/>
</linearGradient>
<linearGradient id="paint14_linear" x1="54.8939" y1="14.337" x2="53.6332" y2="38.9882" gradientUnits="userSpaceOnUse">
<stop stop-color="#BFF3FF"/>
<stop offset="1" stop-color="#AAF2FF" stop-opacity="0.5"/>
</linearGradient>
<linearGradient id="paint15_linear" x1="60.1682" y1="39.0443" x2="58.2314" y2="75.9423" gradientUnits="userSpaceOnUse">
<stop stop-color="#BFF3FF"/>
<stop offset="1" stop-color="#00DDFF" stop-opacity="0"/>
</linearGradient>
<linearGradient id="paint16_linear" x1="37.4698" y1="41.4146" x2="38.9778" y2="68.0458" gradientUnits="userSpaceOnUse">
<stop stop-color="#BFF3FF" stop-opacity="0.8"/>
<stop offset="1" stop-color="#80EBFF" stop-opacity="0.2"/>
</linearGradient>
<linearGradient id="paint17_linear" x1="40.3351" y1="26.2246" x2="32.7329" y2="38.0694" gradientUnits="userSpaceOnUse">
<stop stop-color="#BFF3FF" stop-opacity="0.8"/>
<stop offset="1" stop-color="#80EBFF" stop-opacity="0.2"/>
</linearGradient>
<linearGradient id="paint18_linear" x1="28.6302" y1="46.1584" x2="25.9412" y2="93.6628" gradientUnits="userSpaceOnUse">
<stop stop-color="#00DDFF" stop-opacity="0.4"/>
<stop offset="1" stop-color="#00DDFF" stop-opacity="0"/>
</linearGradient>
<linearGradient id="paint19_linear" x1="33.3242" y1="19.8601" x2="33.3242" y2="76.1832" gradientUnits="userSpaceOnUse">
<stop stop-color="#BFF3FF"/>
<stop offset="1" stop-color="#00DDFF" stop-opacity="0"/>
</linearGradient>
<linearGradient id="paint20_linear" x1="64.9702" y1="27.8281" x2="60.4835" y2="105.105" gradientUnits="userSpaceOnUse">
<stop stop-color="#BFF3FF" stop-opacity="0.8"/>
<stop offset="1" stop-color="#00DDFF" stop-opacity="0"/>
</linearGradient>
</defs>
</svg>
