<svg width="100" height="100" viewBox="0 0 100 100" fill="none" xmlns="http://www.w3.org/2000/svg">
<path d="M0 25C0 11.1929 11.1929 0 25 0H75C88.8071 0 100 11.1929 100 25V75C100 88.8071 88.8071 100 75 100H25C11.1929 100 0 88.8071 0 75V25Z" fill="url(#paint0_linear)"/>
<path d="M80.4488 37.7436C79.0207 34.3086 76.1285 30.6003 73.8573 29.4282C75.7057 33.0519 76.7756 36.687 77.1843 39.3999C77.1843 39.4052 77.1864 39.4185 77.1908 39.4546C73.4754 30.1942 67.1756 26.4602 62.0313 18.3298C61.7715 17.9187 61.511 17.5065 61.2573 17.072C61.1281 16.8501 61.0074 16.6233 60.8955 16.3922C60.6818 15.9796 60.5169 15.5434 60.4043 15.0926C60.4051 15.0712 60.3979 15.0503 60.3841 15.034C60.3702 15.0178 60.3508 15.0072 60.3296 15.0045C60.3095 14.9987 60.2881 14.9987 60.268 15.0045C60.2633 15.0061 60.2565 15.0115 60.2516 15.0134C60.2443 15.0163 60.2352 15.0228 60.2275 15.0271C60.2312 15.0221 60.2389 15.0111 60.2412 15.0085C51.9875 19.8423 49.1875 28.7844 48.9302 33.2582C45.6342 33.4848 42.483 34.6992 39.8873 36.7429C39.6156 36.5134 39.3314 36.2989 39.0362 36.1003C38.2873 33.4803 38.2555 30.7072 38.9441 28.0706C35.5688 29.6074 32.9435 32.0368 31.0349 34.1819H31.0197C29.7172 32.5321 29.8091 27.0899 29.8833 25.9536C29.8678 25.8832 28.9117 26.4499 28.7864 26.5354C27.6371 27.3558 26.5626 28.2763 25.5755 29.2861C24.4522 30.4252 23.4259 31.656 22.5072 32.9657C22.5072 32.9673 22.5063 32.9692 22.5057 32.9709C22.5057 32.9691 22.5067 32.9673 22.5072 32.9657C20.3944 35.9597 18.896 39.3428 18.0985 42.9195C18.0827 42.9907 18.0695 43.0645 18.0542 43.1363C17.9924 43.4256 17.7698 44.8726 17.7308 45.1871C17.7278 45.2113 17.7264 45.2345 17.7236 45.2587C17.4358 46.7548 17.2576 48.2699 17.1904 49.7919C17.1904 49.848 17.187 49.9035 17.187 49.9597C17.1875 68.104 31.8984 82.8125 50.0443 82.8125C66.2954 82.8125 79.7888 71.0153 82.4305 55.5193C82.4862 55.0988 82.5307 54.676 82.5798 54.2518C83.2329 48.6176 82.5073 42.6957 80.4488 37.7436ZM42.5784 63.4595C42.732 63.533 42.8764 63.6132 43.0342 63.6836C43.0407 63.6881 43.0498 63.6932 43.0565 63.6973C42.8959 63.6205 42.7365 63.5412 42.5784 63.4595V63.4595ZM77.1934 39.4627L77.189 39.4308C77.1906 39.4424 77.1927 39.4546 77.1945 39.4662L77.1934 39.4627Z" fill="url(#paint1_linear)"/>
<path d="M80.4487 37.7436C79.0207 34.3087 76.1284 30.6003 73.8573 29.4282C75.7057 33.0519 76.7755 36.687 77.1843 39.3999C77.1843 39.392 77.1858 39.4065 77.1892 39.4308C77.1909 39.4425 77.1929 39.4546 77.1947 39.4662C80.2948 47.8703 78.6059 56.4164 76.1722 61.6386C72.4071 69.7187 63.2912 77.9997 49.0231 77.5959C33.6074 77.1593 20.0266 65.721 17.4914 50.7397C17.0294 48.3772 17.4914 47.1776 17.7238 45.2594C17.4407 46.7382 17.3328 47.1653 17.1906 49.7926C17.1906 49.8487 17.1872 49.9042 17.1872 49.9604C17.1875 68.104 31.8984 82.8125 50.0443 82.8125C66.2953 82.8125 79.7888 71.0153 82.4305 55.5193C82.4861 55.0988 82.5307 54.6761 82.5798 54.2518C83.2329 48.6176 82.5073 42.6957 80.4487 37.7436Z" fill="url(#paint2_radial)"/>
<path d="M80.4487 37.7436C79.0207 34.3087 76.1284 30.6003 73.8573 29.4282C75.7057 33.0519 76.7755 36.687 77.1843 39.3999C77.1843 39.392 77.1858 39.4065 77.1892 39.4308C77.1909 39.4425 77.1929 39.4546 77.1947 39.4662C80.2948 47.8703 78.6059 56.4164 76.1722 61.6386C72.4071 69.7187 63.2912 77.9997 49.0231 77.5959C33.6074 77.1593 20.0266 65.721 17.4914 50.7397C17.0294 48.3772 17.4914 47.1776 17.7238 45.2594C17.4407 46.7382 17.3328 47.1653 17.1906 49.7926C17.1906 49.8487 17.1872 49.9042 17.1872 49.9604C17.1875 68.104 31.8984 82.8125 50.0443 82.8125C66.2953 82.8125 79.7888 71.0153 82.4305 55.5193C82.4861 55.0988 82.5307 54.6761 82.5798 54.2518C83.2329 48.6176 82.5073 42.6957 80.4487 37.7436Z" fill="url(#paint3_radial)"/>
<path d="M64.4816 41.6055C64.5532 41.6558 64.6183 41.7058 64.6857 41.7558C63.8611 40.2924 62.8343 38.9525 61.6355 37.7757C51.4219 27.5633 58.9573 15.6325 60.2281 15.0265C60.2318 15.0216 60.2395 15.0105 60.2418 15.0079C51.9881 19.8417 49.1881 28.7838 48.9308 33.2577C49.3136 33.2312 49.6953 33.199 50.085 33.199C56.2443 33.199 61.6088 36.5856 64.4816 41.6055V41.6055Z" fill="url(#paint4_radial)"/>
<path d="M50.1056 43.6445C50.0518 44.4618 47.1642 47.2802 46.1544 47.2802C36.8112 47.2802 35.2946 52.9315 35.2946 52.9315C35.7084 57.6907 39.0216 61.6097 43.0343 63.6835C43.2174 63.7781 43.4027 63.8635 43.5881 63.948C43.9059 64.0888 44.2277 64.2204 44.5531 64.3426C45.929 64.8297 47.3702 65.1076 48.8285 65.1672C65.2047 65.9352 68.3774 45.5899 56.5592 39.6817C59.5858 39.1553 62.7273 40.3725 64.4817 41.6049C61.609 36.5854 56.2444 33.1989 50.0852 33.1989C49.6955 33.1989 49.314 33.231 48.931 33.2576C45.6351 33.4841 42.4839 34.6985 39.8882 36.7422C40.3891 37.1661 40.9546 37.7326 42.1459 38.9062C44.3747 41.1029 50.0934 43.3776 50.1056 43.6445V43.6445Z" fill="url(#paint5_radial)"/>
<path d="M50.1056 43.6445C50.0518 44.4618 47.1642 47.2802 46.1544 47.2802C36.8112 47.2802 35.2946 52.9315 35.2946 52.9315C35.7084 57.6907 39.0216 61.6097 43.0343 63.6835C43.2174 63.7781 43.4027 63.8635 43.5881 63.948C43.9059 64.0888 44.2277 64.2204 44.5531 64.3426C45.929 64.8297 47.3702 65.1076 48.8285 65.1672C65.2047 65.9352 68.3774 45.5899 56.5592 39.6817C59.5858 39.1553 62.7273 40.3725 64.4817 41.6049C61.609 36.5854 56.2444 33.1989 50.0852 33.1989C49.6955 33.1989 49.314 33.231 48.931 33.2576C45.6351 33.4841 42.4839 34.6985 39.8882 36.7422C40.3891 37.1661 40.9546 37.7326 42.1459 38.9062C44.3747 41.1029 50.0934 43.3776 50.1056 43.6445V43.6445Z" fill="url(#paint6_radial)"/>
<path d="M38.3556 35.6495C38.5844 35.7971 38.8114 35.9475 39.0366 36.1006C38.2876 33.4805 38.2558 30.7074 38.9444 28.0709C35.5691 29.6077 32.9438 32.0371 31.0352 34.1822C31.1931 34.1777 35.959 34.092 38.3556 35.6495V35.6495Z" fill="url(#paint7_radial)"/>
<path d="M17.4915 50.7397C20.0266 65.721 33.6075 77.1593 49.0232 77.5959C63.2913 77.9997 72.4071 69.7181 76.1722 61.6386C78.6058 56.416 80.2949 47.871 77.1948 39.4662L77.1937 39.4627L77.1893 39.4308C77.1859 39.4065 77.1838 39.392 77.1844 39.3999C77.1844 39.4053 77.1864 39.4185 77.1908 39.4546C78.3562 47.0645 74.4851 54.4368 68.4338 59.4216L68.4156 59.4644C56.6243 69.0652 45.3411 65.2569 43.0565 63.698C42.8959 63.6207 42.7364 63.5413 42.578 63.4597C35.7035 60.1745 32.8636 53.9115 33.4725 48.5404C27.6678 48.5404 25.6886 43.6446 25.6886 43.6446C25.6886 43.6446 30.9001 39.9288 37.7688 43.1605C44.1303 46.1537 50.1046 43.6449 50.1053 43.6446C50.0931 43.3778 44.3745 41.103 42.1451 38.9065C40.9539 37.7329 40.3883 37.167 39.8874 36.7425C39.6156 36.513 39.3315 36.2985 39.0363 36.1C38.8109 35.9472 38.5839 35.7968 38.3553 35.6488C35.9589 34.0913 31.1929 34.177 31.035 34.1811H31.0198C29.7173 32.5313 29.8091 27.0891 29.8834 25.9528C29.8678 25.8824 28.9117 26.4491 28.7865 26.5346C27.6371 27.355 26.5626 28.2755 25.5755 29.2853C24.4522 30.4247 23.4259 31.6557 22.5073 32.9657C22.5073 32.9673 22.5063 32.9692 22.5058 32.9709C22.5058 32.9691 22.5067 32.9673 22.5073 32.9657C20.3945 35.9597 18.896 39.3428 18.0985 42.9195C18.0828 42.9907 16.9159 48.0932 17.4915 50.7397V50.7397Z" fill="url(#paint8_radial)"/>
<path d="M61.6354 37.7756C62.8342 38.9523 63.861 40.2922 64.6856 41.7557C64.8665 41.8916 65.0355 42.0271 65.1789 42.1593C72.6276 49.0226 68.7248 58.7296 68.4338 59.4214C74.4851 54.4367 78.3561 47.0644 77.1907 39.4545C73.4754 30.1942 67.1755 26.4602 62.0312 18.3298C61.7715 17.9187 61.511 17.5065 61.2573 17.072C61.1281 16.8501 61.0074 16.6233 60.8955 16.3922C60.6818 15.9796 60.5169 15.5434 60.4043 15.0926C60.4051 15.0712 60.3978 15.0503 60.384 15.034C60.3702 15.0178 60.3508 15.0072 60.3296 15.0045C60.3095 14.9987 60.2881 14.9987 60.268 15.0045C60.2633 15.0061 60.2565 15.0115 60.2516 15.0134C60.2443 15.0163 60.2352 15.0228 60.2275 15.0271C58.9572 15.6325 51.4219 27.5634 61.6354 37.7756V37.7756Z" fill="url(#paint9_radial)"/>
<path d="M65.1789 42.1593C65.0355 42.0271 64.8665 41.8916 64.6856 41.7557C64.6187 41.7054 64.5531 41.6554 64.4815 41.6053C62.7271 40.373 59.5856 39.1558 56.559 39.6821C68.3771 45.5903 65.2044 65.9357 48.8283 65.1676C47.3699 65.1081 45.9288 64.8301 44.5529 64.343C44.2276 64.2207 43.9057 64.0891 43.5878 63.9485C43.4024 63.864 43.2172 63.7785 43.0341 63.6839C43.0407 63.6884 43.0497 63.6935 43.0564 63.6976C45.341 65.2562 56.6242 69.0648 68.4156 59.464L68.4337 59.4212C68.7248 58.7302 72.6276 49.0227 65.1789 42.1593V42.1593Z" fill="url(#paint10_radial)"/>
<path d="M35.2944 52.9317C35.2944 52.9317 36.811 47.2804 46.1542 47.2804C47.1643 47.2804 50.052 44.4619 50.1054 43.6446C50.1589 42.8273 44.1308 46.1537 37.7689 43.1605C30.9002 39.9287 25.6887 43.6446 25.6887 43.6446C25.6887 43.6446 27.6679 48.5404 33.4726 48.5404C32.8638 53.9115 35.7037 60.1752 42.5781 63.4597C42.7318 63.5331 42.8761 63.6134 43.0339 63.6838C39.0215 61.6099 35.7082 57.6908 35.2944 52.9317V52.9317Z" fill="url(#paint11_radial)"/>
<path d="M80.4488 37.7436C79.0207 34.3086 76.1285 30.6003 73.8573 29.4282C75.7057 33.0519 76.7756 36.687 77.1843 39.3999C77.1843 39.4052 77.1864 39.4185 77.1908 39.4546C73.4754 30.1942 67.1756 26.4602 62.0313 18.3298C61.7715 17.9187 61.511 17.5065 61.2573 17.072C61.1281 16.8501 61.0074 16.6233 60.8955 16.3922C60.6818 15.9796 60.5169 15.5434 60.4043 15.0926C60.4051 15.0712 60.3979 15.0503 60.3841 15.034C60.3702 15.0178 60.3508 15.0072 60.3297 15.0045C60.3095 14.9987 60.2881 14.9987 60.268 15.0045C60.2633 15.0061 60.2565 15.0115 60.2516 15.0134C60.2443 15.0163 60.2352 15.0228 60.2275 15.0271C60.2312 15.0221 60.2389 15.0111 60.2412 15.0085C51.9875 19.8423 49.1875 28.7844 48.9302 33.2582C49.313 33.2317 49.6947 33.1996 50.0844 33.1996C56.244 33.1996 61.6085 36.5861 64.4808 41.6056C62.7265 40.3732 59.5849 39.156 56.5584 39.6824C68.3765 45.5905 65.2038 65.9359 48.8276 65.1678C47.3693 65.1083 45.9282 64.8304 44.5523 64.3433C44.2269 64.2209 43.9051 64.0893 43.5872 63.9487C43.4018 63.8642 43.2166 63.7788 43.0335 63.6842C43.0401 63.6887 43.0491 63.6937 43.0558 63.6978C42.8952 63.6206 42.7357 63.5411 42.5773 63.4595C42.7309 63.533 42.8753 63.6132 43.0331 63.6836C39.0204 61.6099 35.7072 57.6908 35.2933 52.9316C35.2933 52.9316 36.8099 47.2804 46.1531 47.2804C47.1632 47.2804 50.0509 44.4619 50.1043 43.6446C50.0922 43.3777 44.3735 41.103 42.1441 38.9065C40.9529 37.7329 40.3873 37.167 39.8864 36.7425C39.6146 36.513 39.3305 36.2984 39.0353 36.0999C38.2864 33.4798 38.2546 30.7068 38.9431 28.0702C35.5678 29.607 32.9426 32.0364 31.034 34.1815H31.0188C29.7163 32.5317 29.8081 27.0895 29.8824 25.9532C29.8668 25.8828 28.9107 26.4495 28.7855 26.535C27.6361 27.3554 26.5616 28.2759 25.5745 29.2857C24.4516 30.425 23.4256 31.6559 22.5072 32.9657C22.5072 32.9673 22.5063 32.9692 22.5057 32.9709C22.5057 32.9691 22.5067 32.9673 22.5072 32.9657C20.3944 35.9597 18.896 39.3428 18.0985 42.9195C18.0827 42.9907 18.0695 43.0645 18.0542 43.1363C17.9924 43.4256 17.7143 44.8935 17.6754 45.2084C17.6724 45.2326 17.6783 45.1843 17.6754 45.2084C17.4219 46.7253 17.2601 48.2562 17.1909 49.7926C17.1909 49.8486 17.1875 49.9042 17.1875 49.9603C17.1875 68.104 31.8984 82.8125 50.0443 82.8125C66.2954 82.8125 79.7888 71.0153 82.4305 55.5193C82.4862 55.0988 82.5307 54.676 82.5798 54.2518C83.2329 48.6176 82.5074 42.6957 80.4488 37.7436ZM77.1893 39.4308C77.1909 39.4424 77.193 39.4546 77.1947 39.4662L77.1936 39.4627L77.1893 39.4308V39.4308Z" fill="url(#paint12_linear)"/>
<defs>
<linearGradient id="paint0_linear" x1="100" y1="0" x2="0" y2="100" gradientUnits="userSpaceOnUse">
<stop stop-color="#5B33B4"/>
<stop offset="1" stop-color="#28297D"/>
</linearGradient>
<linearGradient id="paint1_linear" x1="79.5039" y1="32.4114" x2="22.6539" y2="68.2224" gradientUnits="userSpaceOnUse">
<stop stop-color="#3FE1B0"/>
<stop offset="0.406" stop-color="#00B3F4"/>
<stop offset="0.421" stop-color="#03B0F4"/>
<stop offset="0.818" stop-color="#5561E9"/>
<stop offset="1" stop-color="#7542E5"/>
</linearGradient>
<radialGradient id="paint2_radial" cx="0" cy="0" r="1" gradientUnits="userSpaceOnUse" gradientTransform="translate(73.4072 22.5264) scale(68.4991 68.4881)">
<stop offset="0.108" stop-color="#3FE1B0"/>
<stop offset="0.122" stop-color="#3BDCB3"/>
<stop offset="0.254" stop-color="#1BB3D3"/>
<stop offset="0.358" stop-color="#0799E6"/>
<stop offset="0.42" stop-color="#0090ED"/>
<stop offset="0.487" stop-color="#2482F1"/>
<stop offset="0.64" stop-color="#7165FB"/>
<stop offset="0.71" stop-color="#9059FF"/>
<stop offset="0.795" stop-color="#7D49ED"/>
<stop offset="0.86" stop-color="#7542E5"/>
</radialGradient>
<radialGradient id="paint3_radial" cx="0" cy="0" r="1" gradientUnits="userSpaceOnUse" gradientTransform="translate(48.377 50.5261) scale(68.4991 68.4881)">
<stop offset="0.3" stop-color="#45278D"/>
<stop offset="0.341" stop-color="#562896" stop-opacity="0.787"/>
<stop offset="0.43" stop-color="#782AA9" stop-opacity="0.364"/>
<stop offset="0.495" stop-color="#8D2BB5" stop-opacity="0.1"/>
<stop offset="0.53" stop-color="#952BB9" stop-opacity="0"/>
</radialGradient>
<radialGradient id="paint4_radial" cx="0" cy="0" r="1" gradientUnits="userSpaceOnUse" gradientTransform="translate(56.6354 6.9837) scale(49.6247 49.6167)">
<stop offset="0.132" stop-color="#3FE1B0"/>
<stop offset="0.289" stop-color="#28D0C8"/>
<stop offset="0.526" stop-color="#00B3F4"/>
</radialGradient>
<radialGradient id="paint5_radial" cx="0" cy="0" r="1" gradientUnits="userSpaceOnUse" gradientTransform="translate(40.8003 68.4159) scale(32.6154 32.6102)">
<stop offset="0.287" stop-color="#0060DF"/>
<stop offset="0.417" stop-color="#2357E1"/>
<stop offset="0.604" stop-color="#4F4CE3"/>
<stop offset="0.748" stop-color="#6B45E4"/>
<stop offset="0.833" stop-color="#7542E5"/>
</radialGradient>
<radialGradient id="paint6_radial" cx="0" cy="0" r="1" gradientUnits="userSpaceOnUse" gradientTransform="translate(49.3258 41.9817) rotate(-13.5992) scale(17.292 20.2531)">
<stop offset="0.206" stop-color="#45278D" stop-opacity="0"/>
<stop offset="0.251" stop-color="#44268A" stop-opacity="0.055"/>
<stop offset="0.725" stop-color="#371F6F" stop-opacity="0.591"/>
<stop offset="0.956" stop-color="#321C64" stop-opacity="0.8"/>
</radialGradient>
<radialGradient id="paint7_radial" cx="0" cy="0" r="1" gradientUnits="userSpaceOnUse" gradientTransform="translate(47.5123 19.724) scale(23.4635 23.4598)">
<stop stop-color="#00DDFF"/>
<stop offset="0.235" stop-color="#00D6FD"/>
<stop offset="0.572" stop-color="#00C3F8"/>
<stop offset="0.792" stop-color="#00B3F4"/>
</radialGradient>
<radialGradient id="paint8_radial" cx="0" cy="0" r="1" gradientUnits="userSpaceOnUse" gradientTransform="translate(65.9552 4.84424) scale(100.108 100.092)">
<stop offset="0.126" stop-color="#3FE1B0"/>
<stop offset="0.429" stop-color="#00DDFF"/>
<stop offset="0.479" stop-color="#1EC1FF"/>
<stop offset="0.624" stop-color="#7077FF"/>
<stop offset="0.69" stop-color="#9059FF"/>
<stop offset="0.904" stop-color="#B833E1"/>
</radialGradient>
<radialGradient id="paint9_radial" cx="0" cy="0" r="1" gradientUnits="userSpaceOnUse" gradientTransform="translate(56.2139 15.7251) rotate(83.9915) scale(73.3221 48.1126)">
<stop stop-color="#54FFBD"/>
<stop offset="0.095" stop-color="#4CF3B8"/>
<stop offset="0.197" stop-color="#3FE1B0"/>
<stop offset="0.257" stop-color="#33D8BD"/>
<stop offset="0.369" stop-color="#12C0E1"/>
<stop offset="0.423" stop-color="#00B3F4"/>
<stop offset="0.737" stop-color="#0060DF"/>
</radialGradient>
<radialGradient id="paint10_radial" cx="0" cy="0" r="1" gradientUnits="userSpaceOnUse" gradientTransform="translate(46.9595 28.4133) scale(62.4993 62.4892)">
<stop offset="0.137" stop-color="#3FE1B0"/>
<stop offset="0.435" stop-color="#00DDFF"/>
<stop offset="0.484" stop-color="#1EC1FF"/>
<stop offset="0.622" stop-color="#7077FF"/>
<stop offset="0.685" stop-color="#9059FF"/>
</radialGradient>
<radialGradient id="paint11_radial" cx="0" cy="0" r="1" gradientUnits="userSpaceOnUse" gradientTransform="translate(63.4576 32.0709) scale(68.4051 68.394)">
<stop offset="0.094" stop-color="#54FFBD"/>
<stop offset="0.242" stop-color="#41F7CC"/>
<stop offset="0.543" stop-color="#0FE3F3"/>
<stop offset="0.626" stop-color="#00DDFF"/>
</radialGradient>
<linearGradient id="paint12_linear" x1="75.4412" y1="25.2227" x2="29.0335" y2="71.6303" gradientUnits="userSpaceOnUse">
<stop offset="0.167" stop-color="#54FFBD" stop-opacity="0.8"/>
<stop offset="0.236" stop-color="#43F8CA" stop-opacity="0.639"/>
<stop offset="0.361" stop-color="#27EDE1" stop-opacity="0.368"/>
<stop offset="0.466" stop-color="#12E4F1" stop-opacity="0.169"/>
<stop offset="0.545" stop-color="#05DFFB" stop-opacity="0.046"/>
<stop offset="0.589" stop-color="#00DDFF" stop-opacity="0"/>
</linearGradient>
</defs>
</svg>
