<svg width="100" height="100" viewBox="0 0 100 100" fill="none" xmlns="http://www.w3.org/2000/svg">
<path d="M0 25C0 11.1929 11.1929 0 25 0H75C88.8071 0 100 11.1929 100 25V75C100 88.8071 88.8071 100 75 100H25C11.1929 100 0 88.8071 0 75V25Z" fill="url(#paint0_linear)"/>
<path d="M75.265 30.705C72.88 27.57 69.955 24.99 66.67 23.025C66.52 22.935 66.325 22.965 66.19 23.085C66.01 23.265 66.055 23.55 66.25 23.685C72.34 27.63 77.035 33.99 78.13 42.48C80.38 59.73 68.335 74.13 51.385 74.175C32.755 74.235 21.415 57.765 24.385 42.975C24.535 42.24 24.46 41.52 24.7 40.815C24.835 38.22 25.825 34.14 27.955 29.97C25.81 31.08 23.08 34.59 21.73 37.83C19.78 42.51 19.105 48.105 19.72 53.43C19.765 53.835 19.81 54.225 19.855 54.63C22.36 69.3 35.14 80.46 50.515 80.43C67.645 80.4 81.595 66.345 81.505 49.2C81.475 42.27 79.15 35.865 75.265 30.705Z" fill="url(#paint1_radial)"/>
<path opacity="0.67" d="M75.265 30.705C72.88 27.57 69.955 24.99 66.67 23.025C66.52 22.935 66.325 22.965 66.19 23.085C66.01 23.265 66.055 23.55 66.25 23.685C72.34 27.63 77.035 33.99 78.13 42.48C80.38 59.73 68.335 74.13 51.385 74.175C32.755 74.235 21.415 57.765 24.385 42.975C24.535 42.24 24.46 41.52 24.7 40.815C24.835 38.22 25.825 34.14 27.955 29.97C25.81 31.08 23.08 34.59 21.73 37.83C19.78 42.51 19.105 48.105 19.72 53.43C19.765 53.835 19.81 54.225 19.855 54.63C22.36 69.3 35.14 80.46 50.515 80.43C67.645 80.4 81.595 66.345 81.505 49.2C81.475 42.27 79.15 35.865 75.265 30.705Z" fill="url(#paint2_radial)"/>
<path d="M75.265 30.705C72.88 27.57 69.955 24.99 66.67 23.025C66.52 22.935 66.325 22.965 66.19 23.085C66.01 23.265 66.055 23.55 66.25 23.685C72.34 27.63 77.035 33.99 78.13 42.48C80.38 59.73 68.335 74.13 51.385 74.175C32.755 74.235 21.415 57.765 24.385 42.975C24.535 42.24 24.46 41.52 24.7 40.815C24.835 38.22 25.825 34.14 27.955 29.97C25.81 31.08 23.08 34.59 21.73 37.83C19.78 42.51 19.105 48.105 19.72 53.43C19.765 53.835 19.81 54.225 19.855 54.63C22.36 69.3 35.14 80.46 50.515 80.43C67.645 80.4 81.595 66.345 81.505 49.2C81.475 42.27 79.15 35.865 75.265 30.705Z" fill="url(#paint3_radial)"/>
<path d="M75.265 30.705C72.88 27.57 69.955 24.99 66.67 23.025C66.52 22.935 66.325 22.965 66.19 23.085C66.01 23.265 66.055 23.55 66.25 23.685C72.34 27.63 77.035 33.99 78.13 42.48C80.38 59.73 68.335 74.13 51.385 74.175C32.755 74.235 21.415 57.765 24.385 42.975C24.535 42.24 24.46 41.52 24.7 40.815C24.835 38.22 25.825 34.14 27.955 29.97C25.81 31.08 23.08 34.59 21.73 37.83C19.78 42.51 19.105 48.105 19.72 53.43C19.765 53.835 19.81 54.225 19.855 54.63C22.36 69.3 35.14 80.46 50.515 80.43C67.645 80.4 81.595 66.345 81.505 49.2C81.475 42.27 79.15 35.865 75.265 30.705Z" fill="url(#paint4_radial)"/>
<path d="M75.265 30.705C72.88 27.57 69.955 24.99 66.67 23.025C66.52 22.935 66.325 22.965 66.19 23.085C66.01 23.265 66.055 23.55 66.25 23.685C72.34 27.63 77.035 33.99 78.13 42.48C80.38 59.73 68.335 74.13 51.385 74.175C32.755 74.235 21.415 57.765 24.385 42.975C24.535 42.24 24.46 41.52 24.7 40.815C24.835 38.22 25.825 34.14 27.955 29.97C25.81 31.08 23.08 34.59 21.73 37.83C19.78 42.51 19.105 48.105 19.72 53.43C19.765 53.835 19.81 54.225 19.855 54.63C22.36 69.3 35.14 80.46 50.515 80.43C67.645 80.4 81.595 66.345 81.505 49.2C81.475 42.27 79.15 35.865 75.265 30.705Z" fill="url(#paint5_radial)"/>
<path d="M78.895 41.625C77.89 32.595 72.82 26.43 66.34 22.83C65.26 22.23 63.895 22.485 63.115 23.445L63.1 23.46C70.48 28.005 75.13 36.06 75.37 44.46C75.655 54.675 67.27 62.82 57.61 63.285C50.59 63.63 43.975 60.24 40.735 53.445C40.015 51.93 39.49 50.4 39.22 48.54C37.69 38.22 44.635 29.415 51.01 27.225C47.575 24.225 38.95 24.435 32.545 29.145C27.925 32.535 24.925 37.695 23.935 43.845C23.185 48.54 23.89 53.415 25.75 57.765C27.64 62.205 30.715 66.12 34.6 69C38.8 72.135 43.87 73.95 49.09 74.34C49.855 74.4 50.635 74.43 51.4 74.43C71.905 74.46 80.815 58.92 78.895 41.625Z" fill="url(#paint6_radial)"/>
<path d="M78.895 41.625C77.89 32.595 72.82 26.43 66.34 22.83C65.26 22.23 63.895 22.485 63.115 23.445L63.1 23.46C70.48 28.005 75.13 36.06 75.37 44.46C75.655 54.675 67.27 62.82 57.61 63.285C50.59 63.63 43.975 60.24 40.735 53.445C40.015 51.93 39.49 50.4 39.22 48.54C37.69 38.22 44.635 29.415 51.01 27.225C47.575 24.225 38.95 24.435 32.545 29.145C27.925 32.535 24.925 37.695 23.935 43.845C23.185 48.54 23.89 53.415 25.75 57.765C27.64 62.205 30.715 66.12 34.6 69C38.8 72.135 43.87 73.95 49.09 74.34C49.855 74.4 50.635 74.43 51.4 74.43C71.905 74.46 80.815 58.92 78.895 41.625Z" fill="url(#paint7_radial)"/>
<path opacity="0.53" d="M78.895 41.625C77.89 32.595 72.82 26.43 66.34 22.83C65.26 22.23 63.895 22.485 63.115 23.445L63.1 23.46C70.48 28.005 75.13 36.06 75.37 44.46C75.655 54.675 67.27 62.82 57.61 63.285C50.59 63.63 43.975 60.24 40.735 53.445C40.015 51.93 39.49 50.4 39.22 48.54C37.69 38.22 44.635 29.415 51.01 27.225C47.575 24.225 38.95 24.435 32.545 29.145C27.925 32.535 24.925 37.695 23.935 43.845C23.185 48.54 23.89 53.415 25.75 57.765C27.64 62.205 30.715 66.12 34.6 69C38.8 72.135 43.87 73.95 49.09 74.34C49.855 74.4 50.635 74.43 51.4 74.43C71.905 74.46 80.815 58.92 78.895 41.625Z" fill="url(#paint8_radial)"/>
<path opacity="0.53" d="M78.895 41.625C77.89 32.595 72.82 26.43 66.34 22.83C65.26 22.23 63.895 22.485 63.115 23.445L63.1 23.46C70.48 28.005 75.13 36.06 75.37 44.46C75.655 54.675 67.27 62.82 57.61 63.285C50.59 63.63 43.975 60.24 40.735 53.445C40.015 51.93 39.49 50.4 39.22 48.54C37.69 38.22 44.635 29.415 51.01 27.225C47.575 24.225 38.95 24.435 32.545 29.145C27.925 32.535 24.925 37.695 23.935 43.845C23.185 48.54 23.89 53.415 25.75 57.765C27.64 62.205 30.715 66.12 34.6 69C38.8 72.135 43.87 73.95 49.09 74.34C49.855 74.4 50.635 74.43 51.4 74.43C71.905 74.46 80.815 58.92 78.895 41.625Z" fill="url(#paint9_radial)"/>
<path d="M63.145 23.415C63.13 23.43 63.13 23.445 63.115 23.46C62.23 24.555 62.41 26.145 63.49 27.045C68.14 30.855 71.26 36.27 71.26 42.525C71.26 51.165 64.57 57.75 56.74 57.285C45.1 56.58 42.175 44.685 48.22 39.54C46.585 39.195 43.525 39.87 41.38 43.065C39.46 45.93 39.565 50.34 40.75 53.475C43.99 60.255 50.605 63.735 57.625 63.315C70.885 62.505 76.555 51.57 76.915 43.785C77.305 35.34 75.4 27.855 66.37 22.815C65.275 22.2 63.925 22.455 63.145 23.415Z" fill="url(#paint10_radial)"/>
<path d="M75.265 30.705C74.44 29.61 73.525 28.59 72.565 27.63C71.8 26.82 70.975 26.07 70.105 25.365C70.6 25.8 71.08 26.265 71.545 26.745C73.225 28.56 74.56 30.705 75.325 33.045C76.945 37.935 76.84 44.07 73.75 48.87C70.06 54.6 64.06 57.435 57.58 57.3C57.295 57.3 57.025 57.3 56.74 57.285C45.1 56.58 42.175 44.685 48.22 39.54C46.585 39.195 43.525 39.87 41.38 43.065C39.46 45.93 39.565 50.34 40.75 53.475C40.03 51.96 39.505 50.43 39.235 48.57C37.705 38.25 44.65 29.445 51.025 27.255C47.59 24.255 38.965 24.465 32.56 29.175C28.825 31.92 26.155 35.82 24.745 40.47C24.955 37.86 25.945 33.975 27.97 29.985C25.825 31.095 23.095 34.605 21.745 37.845C19.795 42.525 19.12 48.12 19.735 53.445C19.78 53.85 19.825 54.24 19.87 54.645C22.36 69.285 35.125 80.445 50.47 80.445C67.615 80.445 81.52 66.54 81.52 49.395C81.505 42.375 79.18 35.91 75.265 30.705Z" fill="url(#paint11_linear)"/>
<path d="M75.325 33.045C74.545 30.705 73.225 28.56 71.545 26.745C67.945 22.875 62.65 20.4 57.55 19.275C53.26 18.33 48.76 18.345 44.71 19.2C40.3 20.13 36.43 22.035 33.985 24.405C42.445 19.455 53.845 20.37 61.645 25.92C62.95 26.85 64.165 27.915 65.26 29.085C70.45 34.68 72.565 44.025 68.2 50.745C66.01 54.15 61.3 57.33 56.905 57.3C63.64 57.66 69.925 54.81 73.735 48.885C76.84 44.07 76.945 37.935 75.325 33.045Z" fill="url(#paint12_linear)"/>
<path d="M75.325 33.045C74.545 30.705 73.225 28.56 71.545 26.745C67.945 22.875 62.65 20.4 57.55 19.275C53.26 18.33 48.76 18.345 44.71 19.2C40.3 20.13 36.43 22.035 33.985 24.405C42.445 19.455 53.845 20.37 61.645 25.92C62.95 26.85 64.165 27.915 65.26 29.085C70.45 34.68 72.565 44.025 68.2 50.745C66.01 54.15 61.3 57.33 56.905 57.3C63.64 57.66 69.925 54.81 73.735 48.885C76.84 44.07 76.945 37.935 75.325 33.045Z" fill="url(#paint13_linear)"/>
<defs>
<linearGradient id="paint0_linear" x1="100" y1="0" x2="0" y2="100" gradientUnits="userSpaceOnUse">
<stop stop-color="#404FA0"/>
<stop offset="1" stop-color="#2A2A2B"/>
</linearGradient>
<radialGradient id="paint1_radial" cx="0" cy="0" r="1" gradientUnits="userSpaceOnUse" gradientTransform="translate(74.9438 30.5112) scale(70.0624)">
<stop stop-color="#FFF44F"/>
<stop offset="0.2949" stop-color="#FF980E"/>
<stop offset="0.4315" stop-color="#FF5D36"/>
<stop offset="0.5302" stop-color="#FF3750"/>
<stop offset="0.7493" stop-color="#F5156C"/>
<stop offset="0.7648" stop-color="#F1136E"/>
<stop offset="0.8801" stop-color="#DA057A"/>
<stop offset="0.9528" stop-color="#D2007F"/>
</radialGradient>
<radialGradient id="paint2_radial" cx="0" cy="0" r="1" gradientUnits="userSpaceOnUse" gradientTransform="translate(24.6303 36.5596) scale(40.4654)">
<stop stop-color="#B5007F"/>
<stop offset="1" stop-color="#F5156C" stop-opacity="0"/>
</radialGradient>
<radialGradient id="paint3_radial" cx="0" cy="0" r="1" gradientUnits="userSpaceOnUse" gradientTransform="translate(80.9598 30.1364) scale(76.7548)">
<stop stop-color="#FFDD00" stop-opacity="0.6"/>
<stop offset="0.0836672" stop-color="#FFD801" stop-opacity="0.5244"/>
<stop offset="0.1822" stop-color="#FECA05" stop-opacity="0.4353"/>
<stop offset="0.2884" stop-color="#FEB20C" stop-opacity="0.3394"/>
<stop offset="0.3998" stop-color="#FD9115" stop-opacity="0.2388"/>
<stop offset="0.5154" stop-color="#FB6621" stop-opacity="0.1343"/>
<stop offset="0.6329" stop-color="#F9332F" stop-opacity="0.028164"/>
<stop offset="0.664" stop-color="#F92433" stop-opacity="0"/>
</radialGradient>
<radialGradient id="paint4_radial" cx="0" cy="0" r="1" gradientUnits="userSpaceOnUse" gradientTransform="translate(52.2713 54.9422) scale(103.124)">
<stop offset="0.1528" stop-color="#960E18"/>
<stop offset="0.2061" stop-color="#CC2335" stop-opacity="0.5541"/>
<stop offset="0.2495" stop-color="#F13148" stop-opacity="0.1914"/>
<stop offset="0.2724" stop-color="#FF3750" stop-opacity="0"/>
</radialGradient>
<radialGradient id="paint5_radial" cx="0" cy="0" r="1" gradientUnits="userSpaceOnUse" gradientTransform="translate(44.2038 53.6971) scale(103.842)">
<stop offset="0.1129" stop-color="#960E18"/>
<stop offset="0.1893" stop-color="#CC2335" stop-opacity="0.5541"/>
<stop offset="0.2515" stop-color="#F13148" stop-opacity="0.1914"/>
<stop offset="0.2843" stop-color="#FF3750" stop-opacity="0"/>
</radialGradient>
<radialGradient id="paint6_radial" cx="0" cy="0" r="1" gradientUnits="userSpaceOnUse" gradientTransform="translate(73.4621 28.4819) scale(65.2538)">
<stop stop-color="#FF980E"/>
<stop offset="0.295" stop-color="#FF7139"/>
<stop offset="0.4846" stop-color="#FF5B51"/>
<stop offset="0.626" stop-color="#FF4F5E"/>
<stop offset="0.7365" stop-color="#FF4055"/>
<stop offset="0.8428" stop-color="#FF3750"/>
</radialGradient>
<radialGradient id="paint7_radial" cx="0" cy="0" r="1" gradientUnits="userSpaceOnUse" gradientTransform="translate(73.4621 30.8804) scale(61.9024)">
<stop offset="0.0840745" stop-color="#FFDE08"/>
<stop offset="0.2081" stop-color="#FFD609" stop-opacity="0.832"/>
<stop offset="0.4033" stop-color="#FFBF0B" stop-opacity="0.5677"/>
<stop offset="0.6437" stop-color="#FF9B0F" stop-opacity="0.242"/>
<stop offset="0.8224" stop-color="#FF7B12" stop-opacity="0"/>
</radialGradient>
<radialGradient id="paint8_radial" cx="0" cy="0" r="1" gradientUnits="userSpaceOnUse" gradientTransform="translate(58.1997 50.117) rotate(75.6841) scale(31.1582 32.5161)">
<stop offset="0.3634" stop-color="#FF3750"/>
<stop offset="0.4111" stop-color="#FF444B" stop-opacity="0.7895"/>
<stop offset="0.5902" stop-color="#FF7139" stop-opacity="0"/>
</radialGradient>
<radialGradient id="paint9_radial" cx="0" cy="0" r="1" gradientUnits="userSpaceOnUse" gradientTransform="translate(52.6157 52.6861) rotate(75.6841) scale(31.5142 31.5413)">
<stop offset="0.2159" stop-color="#FF3750" stop-opacity="0.8"/>
<stop offset="0.2702" stop-color="#FF444B" stop-opacity="0.6316"/>
<stop offset="0.4739" stop-color="#FF7139" stop-opacity="0"/>
</radialGradient>
<radialGradient id="paint10_radial" cx="0" cy="0" r="1" gradientUnits="userSpaceOnUse" gradientTransform="translate(86.6664 20.9512) scale(110.399)">
<stop offset="0.0535657" stop-color="#FFF44F"/>
<stop offset="0.4573" stop-color="#FF980E"/>
<stop offset="0.5211" stop-color="#FF8424"/>
<stop offset="0.5871" stop-color="#FF7634"/>
<stop offset="0.6393" stop-color="#FF7139"/>
</radialGradient>
<linearGradient id="paint11_linear" x1="65.2454" y1="24.0225" x2="33.5943" y2="78.8438" gradientUnits="userSpaceOnUse">
<stop stop-color="#FFF44F" stop-opacity="0.8"/>
<stop offset="0.75" stop-color="#FFF44F" stop-opacity="0"/>
</linearGradient>
<linearGradient id="paint12_linear" x1="55.1686" y1="57.4815" x2="55.1686" y2="18.9569" gradientUnits="userSpaceOnUse">
<stop stop-color="#3A8EE6"/>
<stop offset="0.1016" stop-color="#4D82EB"/>
<stop offset="0.3885" stop-color="#7D65FA"/>
<stop offset="0.5309" stop-color="#9059FF"/>
<stop offset="0.6915" stop-color="#9D50F8"/>
<stop offset="0.9888" stop-color="#C03AE7"/>
<stop offset="1" stop-color="#C139E6"/>
</linearGradient>
<linearGradient id="paint13_linear" x1="48.3935" y1="17.5562" x2="69.4111" y2="53.9598" gradientUnits="userSpaceOnUse">
<stop offset="0.8054" stop-color="#9059FF" stop-opacity="0"/>
<stop offset="1" stop-color="#6E008B" stop-opacity="0.5"/>
</linearGradient>
</defs>
</svg>
