<svg width="100" height="100" viewBox="0 0 100 100" fill="none" xmlns="http://www.w3.org/2000/svg">
<rect width="100" height="100" rx="25" fill="white"/>
<path d="M50 84.5C50 84.7761 49.776 85.0004 49.4999 84.9964C42.7522 84.9 36.1721 82.8546 30.555 79.1014C24.7993 75.2556 20.3133 69.7893 17.6642 63.3939C15.0151 56.9985 14.322 49.9612 15.6725 43.1718C17.023 36.3825 20.3564 30.1461 25.2513 25.2513C30.1461 20.3564 36.3825 17.023 43.1718 15.6725C49.9612 14.322 56.9985 15.0152 63.3939 17.6642C69.7893 20.3133 75.2556 24.7993 79.1014 30.555C82.8546 36.1721 84.9 42.7522 84.9964 49.4999C85.0004 49.7761 84.7761 50 84.5 50L77.2717 50C76.9955 50 76.7721 49.7761 76.767 49.5C76.6714 44.3798 75.1089 39.3904 72.2598 35.1265C69.3181 30.7239 65.137 27.2925 60.2451 25.2662C55.3532 23.2399 49.9703 22.7098 44.7771 23.7427C39.5839 24.7757 34.8137 27.3255 31.0696 31.0696C27.3255 34.8137 24.7757 39.5839 23.7427 44.7771C22.7098 49.9703 23.2399 55.3532 25.2662 60.2451C27.2925 65.137 30.7239 69.3181 35.1265 72.2598C39.3904 75.1089 44.3798 76.6714 49.5 76.767C49.7761 76.7721 50 76.9955 50 77.2717L50 84.5Z" fill="#F4413A"/>
<path d="M50 70.5C50 70.7761 49.7761 71.0006 49.5 70.994C45.5214 70.8993 41.6477 69.6757 38.333 67.4609C34.8796 65.1534 32.188 61.8736 30.5985 58.0364C29.0091 54.1991 28.5932 49.9767 29.4035 45.9031C30.2138 41.8295 32.2139 38.0877 35.1508 35.1508C38.0877 32.2139 41.8295 30.2138 45.9031 29.4035C49.9767 28.5932 54.1991 29.0091 58.0364 30.5985C61.8736 32.188 65.1534 34.8796 67.4609 38.333C69.6757 41.6477 70.8993 45.5214 70.994 49.5C71.0006 49.7761 70.7761 50 70.5 50L64.3879 50C64.1118 50 63.8888 49.7761 63.8789 49.5001C63.7863 46.9284 62.9807 44.4294 61.5474 42.2843C60.0213 40.0004 57.8524 38.2204 55.3147 37.1693C52.777 36.1181 49.9846 35.8431 47.2906 36.379C44.5966 36.9148 42.122 38.2375 40.1798 40.1798C38.2375 42.122 36.9148 44.5966 36.379 47.2906C35.8431 49.9846 36.1181 52.777 37.1693 55.3147C38.2204 57.8524 40.0004 60.0213 42.2843 61.5474C44.4294 62.9807 46.9284 63.7863 49.5001 63.8789C49.7761 63.8888 50 64.1118 50 64.3879L50 70.5Z" fill="#F4413A"/>
</svg>
