<svg width="100" height="100" viewBox="0 0 100 100" fill="none" xmlns="http://www.w3.org/2000/svg">
<g clip-path="url(#clip0)">
<path d="M0 0H100V100H0V0Z" fill="#FCB96F"/>
<rect y="85" width="100" height="15" fill="#554741"/>
<path d="M0 85V58C50.0839 59.7235 89.29 63.7369 100 71.5V85H0Z" fill="#FADA7B"/>
<rect width="22" height="100" fill="#AAA09B"/>
<circle cx="11" cy="80" r="4" fill="#8A7D77"/>
<circle cx="11" cy="20" r="4" fill="#8A7D77"/>
<circle cx="11" cy="50" r="4" fill="#8A7D77"/>
<circle cx="11" cy="65" r="4" fill="#8A7D77"/>
<rect x="7" y="31" width="55" height="8" rx="4" fill="#8A7D77"/>
<path d="M48.9584 69.7115L37.454 89.4991C37.1719 89.9844 36.4273 89.708 36.5302 89.1562L41.7418 61.2033C41.7612 61.0992 41.8131 61.0041 41.89 60.9314L51.0715 52.2599C51.1643 52.1723 51.2872 52.1235 51.4148 52.1235H52.8702C53.1237 52.1235 53.3371 52.3132 53.3668 52.565L55.3421 69.3555C55.379 69.6694 55.119 69.9384 54.804 69.9122L49.4322 69.4645C49.2399 69.4485 49.0555 69.5446 48.9584 69.7115Z" fill="#ECECEC"/>
<path d="M74.4612 69.7115L85.9657 89.4991C86.2478 89.9844 86.9924 89.708 86.8895 89.1562L81.6779 61.2033C81.6585 61.0992 81.6066 61.0041 81.5297 60.9314L72.3482 52.2599C72.2553 52.1723 72.1325 52.1235 72.0048 52.1235H70.5495C70.2959 52.1235 70.0825 52.3132 70.0529 52.565L68.0776 69.3555C68.0406 69.6694 68.3007 69.9384 68.6157 69.9122L73.9875 69.4645C74.1798 69.4485 74.3642 69.5446 74.4612 69.7115Z" fill="#ECECEC"/>
<path d="M55.8645 77.6203L55.4685 73.6609C55.4391 73.3665 55.6703 73.1111 55.9661 73.1111H67.4537C67.7495 73.1111 67.9806 73.3665 67.9512 73.6609L67.5557 77.6162C67.5203 77.97 67.1353 78.174 66.817 78.0155C62.8231 76.0264 60.3814 76.1466 56.5999 78.0199C56.2823 78.1773 55.8998 77.973 55.8645 77.6203Z" fill="#ECECEC"/>
<path d="M61.2594 7.95576C52.5423 26.622 50.7661 40.827 55.3524 73.7231C55.3869 73.9699 55.5991 74.1605 55.8483 74.1605H67.5716C67.8208 74.1605 68.033 73.9699 68.0675 73.7231C72.6538 40.827 70.8775 26.622 62.1604 7.95576C61.9822 7.57416 61.4376 7.57416 61.2594 7.95576Z" fill="white"/>
<path d="M67.8703 53.2234C63.1441 53.5751 60.236 53.5708 55.5492 53.2231C55.2186 53.1986 54.9535 53.4957 55.0185 53.8208L55.3386 55.4213C55.3829 55.6426 55.5708 55.807 55.796 55.8217C60.3502 56.119 63.0683 56.1004 67.622 55.8203C67.8481 55.8064 68.0371 55.6417 68.0815 55.4196L68.4012 53.8211C68.4663 53.4959 68.2011 53.1987 67.8703 53.2234Z" fill="#FADA7B"/>
<path d="M66.8073 57.4148C62.9144 57.6625 60.4727 57.6595 56.6122 57.4146C56.2773 57.3933 56.0144 57.7003 56.09 58.0272L56.2979 58.9276C56.3479 59.1438 56.5345 59.3014 56.7561 59.3138C60.5627 59.5277 62.8559 59.5144 66.6621 59.3126C66.8844 59.3008 67.072 59.1431 67.1221 58.9262L67.3297 58.0275C67.4052 57.7004 67.1422 57.3935 66.8073 57.4148Z" fill="#FADA7B"/>
<path d="M65.0344 22.1296C62.4534 21.5949 60.8795 21.5013 58.366 22.1195C58.1674 22.1684 58.0204 22.3362 57.9951 22.5392L57.5525 26.0916C57.528 26.2874 57.6216 26.4802 57.7918 26.5802C60.9411 28.4321 62.3944 28.3566 65.6156 26.5648C65.7923 26.4665 65.891 26.2698 65.866 26.0691L65.4268 22.5555C65.4004 22.3445 65.2427 22.1728 65.0344 22.1296Z" fill="#47B9C8"/>
</g>
<defs>
<clipPath id="clip0">
<rect width="100" height="100" rx="25" fill="white"/>
</clipPath>
</defs>
</svg>
