<svg width="100" height="100" viewBox="0 0 100 100" fill="none" xmlns="http://www.w3.org/2000/svg">
<path d="M0 25C0 11.1929 11.1929 0 25 0H75C88.8071 0 100 11.1929 100 25V75C100 88.8071 88.8071 100 75 100H25C11.1929 100 0 88.8071 0 75V25Z" fill="#FCFCFC"/>
<g filter="url(#filter0_d)">
<path d="M65 23.3333C65 19.6517 62.015 16.6667 58.3333 16.6667C54.6517 16.6667 51.6667 19.6517 51.6667 23.3333C51.6667 25.4233 51.6667 39.5683 51.6667 41.6667C51.6667 45.3483 54.6517 48.3333 58.3333 48.3333C62.015 48.3333 65 45.3483 65 41.6667C65 39.5683 65 25.4233 65 23.3333Z" fill="#33D375"/>
<path d="M81.6667 41.6667C81.6667 45.3483 78.6817 48.3333 75 48.3333C73.0083 48.3333 68.3333 48.3333 68.3333 48.3333C68.3333 48.3333 68.3333 43.3567 68.3333 41.6667C68.3333 37.985 71.3183 35 75 35C78.6817 35 81.6667 37.985 81.6667 41.6667Z" fill="#33D375"/>
<path d="M23.3333 33.3333C19.6517 33.3333 16.6667 36.3183 16.6667 40C16.6667 43.6817 19.6517 46.6667 23.3333 46.6667C25.4233 46.6667 39.5683 46.6667 41.6667 46.6667C45.3483 46.6667 48.3333 43.6817 48.3333 40C48.3333 36.3183 45.3483 33.3333 41.6667 33.3333C39.5683 33.3333 25.4233 33.3333 23.3333 33.3333Z" fill="#40C4FF"/>
<path d="M41.6667 16.6667C45.3483 16.6667 48.3333 19.6517 48.3333 23.3333C48.3333 25.325 48.3333 30 48.3333 30C48.3333 30 43.3567 30 41.6667 30C37.985 30 35 27.015 35 23.3333C35 19.6517 37.985 16.6667 41.6667 16.6667Z" fill="#40C4FF"/>
<path d="M33.3333 75.01C33.3333 78.6867 36.3183 81.6667 40 81.6667C43.6817 81.6667 46.6667 78.6867 46.6667 75.01C46.6667 72.9233 46.6667 58.7983 46.6667 56.7033C46.6667 53.0267 43.6817 50.0467 40 50.0467C36.3183 50.0467 33.3333 53.0267 33.3333 56.7033C33.3333 58.7983 33.3333 72.9233 33.3333 75.01Z" fill="#E91E63"/>
<path d="M16.6667 56.7033C16.6667 53.0267 19.6517 50.0467 23.3333 50.0467C25.325 50.0467 30 50.0467 30 50.0467C30 50.0467 30 55.015 30 56.7033C30 60.38 27.015 63.36 23.3333 63.36C19.6517 63.36 16.6667 60.38 16.6667 56.7033Z" fill="#E91E63"/>
<path d="M75 65C78.6817 65 81.6667 62.015 81.6667 58.3333C81.6667 54.6517 78.6817 51.6667 75 51.6667C72.91 51.6667 58.765 51.6667 56.6667 51.6667C52.985 51.6667 50 54.6517 50 58.3333C50 62.015 52.985 65 56.6667 65C58.7633 65 72.91 65 75 65Z" fill="#FFC107"/>
<path d="M56.6667 81.6666C52.985 81.6666 50 78.6817 50 75C50 73.0083 50 68.3333 50 68.3333C50 68.3333 54.9767 68.3333 56.6667 68.3333C60.3483 68.3333 63.3333 71.3183 63.3333 75C63.3333 78.6817 60.3483 81.6666 56.6667 81.6666Z" fill="#FFC107"/>
</g>
<defs>
<filter id="filter0_d" x="6" y="10" width="88" height="88" filterUnits="userSpaceOnUse" color-interpolation-filters="sRGB">
<feFlood flood-opacity="0" result="BackgroundImageFix"/>
<feColorMatrix in="SourceAlpha" type="matrix" values="0 0 0 0 0 0 0 0 0 0 0 0 0 0 0 0 0 0 127 0"/>
<feOffset dy="4"/>
<feGaussianBlur stdDeviation="2"/>
<feColorMatrix type="matrix" values="0 0 0 0 0 0 0 0 0 0 0 0 0 0 0 0 0 0 0.25 0"/>
<feBlend mode="normal" in2="BackgroundImageFix" result="effect1_dropShadow"/>
<feBlend mode="normal" in="SourceGraphic" in2="effect1_dropShadow" result="shape"/>
</filter>
</defs>
</svg>
