<svg width="100" height="100" viewBox="0 0 100 100" fill="none" xmlns="http://www.w3.org/2000/svg">
<g clip-path="url(#clip0)">
<rect width="100" height="100" rx="25" fill="url(#paint0_linear)"/>
<rect x="10" y="10" width="80" height="80" rx="22" fill="white"/>
<path d="M50.0009 0C22.3868 0 0 22.3862 0 50.0003C0 77.6156 22.3868 100 50.0009 100C77.618 100 100.002 77.6156 100.002 50.0003C100.002 22.3879 77.618 0.00238829 50.0003 0.00238829L50.0009 0V0ZM72.931 72.1148C72.0354 73.5836 70.1128 74.0493 68.644 73.1477C56.9043 65.9768 42.1255 64.3528 24.7207 68.3293C23.0435 68.7115 21.3717 67.6606 20.9896 65.9828C20.6057 64.305 21.6523 62.6332 23.3337 62.2511C42.3804 57.8978 58.7182 59.7732 71.898 67.8278C73.3668 68.7294 73.8326 70.646 72.931 72.1148V72.1148ZM79.051 58.4985C77.9225 60.3345 75.5223 60.9136 73.6893 59.7852C60.2491 51.5222 39.7616 49.1298 23.8645 53.9553C21.8028 54.5781 19.6253 53.4162 18.9995 51.358C18.3786 49.2963 19.5411 47.123 21.5992 46.4961C39.7581 40.9863 62.3329 43.6552 77.7673 53.1397C79.6003 54.2682 80.1795 56.6684 79.051 58.4991V58.4985ZM79.5764 44.3215C63.4614 34.7498 36.8736 33.8697 21.4876 38.5394C19.0169 39.2888 16.4041 37.894 15.6553 35.4233C14.9066 32.9514 16.3002 30.3404 18.7727 29.5893C36.4347 24.2275 65.7959 25.2635 84.3495 36.2777C86.5765 37.5967 87.305 40.4668 85.9854 42.6861C84.6719 44.9084 81.794 45.6411 79.5788 44.3215H79.5764Z" fill="url(#paint1_linear)"/>
</g>
<defs>
<linearGradient id="paint0_linear" x1="50" y1="0" x2="50" y2="100" gradientUnits="userSpaceOnUse">
<stop offset="0.0001" stop-color="#3EB986"/>
<stop offset="1" stop-color="#42969B"/>
</linearGradient>
<linearGradient id="paint1_linear" x1="50.0012" y1="0" x2="50.0012" y2="100" gradientUnits="userSpaceOnUse">
<stop offset="0.0001" stop-color="#3EB986"/>
<stop offset="1" stop-color="#42969B"/>
</linearGradient>
<clipPath id="clip0">
<rect width="100" height="100" rx="25" fill="white"/>
</clipPath>
</defs>
</svg>
