<svg width="100" height="100" viewBox="0 0 100 100" fill="none" xmlns="http://www.w3.org/2000/svg">
<rect width="100" height="100" rx="25" fill="#D2F5E7"/>
<path d="M50.4998 13C29.7897 13 13 29.7892 13 50.4993C13 71.2103 29.7897 87.9982 50.4998 87.9982C71.2121 87.9982 88 71.2103 88 50.4993C88 29.7906 71.2121 13.0018 50.4993 13.0018L50.4998 13V13ZM67.6969 67.0848C67.0252 68.1864 65.5833 68.5357 64.4818 67.8595C55.6772 62.4815 44.5933 61.2635 31.5401 64.2458C30.2822 64.5324 29.0284 63.7442 28.7418 62.4859C28.4539 61.2276 29.2389 59.9738 30.4999 59.6872C44.7846 56.4223 57.0376 57.8289 66.9222 63.8696C68.0238 64.5458 68.3731 65.9832 67.6969 67.0848V67.0848ZM72.2868 56.8728C71.4405 58.2498 69.6404 58.6841 68.2656 57.8378C58.1857 51.6408 42.8205 49.8464 30.898 53.4655C29.3517 53.9326 27.7186 53.0612 27.2493 51.5176C26.7836 49.9714 27.6555 48.3414 29.199 47.8712C42.8178 43.739 59.7486 45.7406 71.3241 52.8538C72.6988 53.7002 73.1332 55.5003 72.2868 56.8733V56.8728ZM72.6809 46.2403C60.5949 39.0617 40.6545 38.4017 29.1153 41.9039C27.2623 42.4659 25.3027 41.4198 24.7412 39.5668C24.1797 37.713 25.2248 35.7548 27.0792 35.1914C40.3254 31.1702 62.3458 31.9471 76.2606 40.2076C77.9309 41.1968 78.4772 43.3494 77.4875 45.0138C76.5024 46.6805 74.344 47.23 72.6827 46.2403H72.6809Z" fill="url(#paint0_linear)"/>
<defs>
<linearGradient id="paint0_linear" x1="50.5" y1="13" x2="50.5" y2="87.9982" gradientUnits="userSpaceOnUse">
<stop offset="0.0001" stop-color="#42CF95"/>
<stop offset="1" stop-color="#247075"/>
</linearGradient>
</defs>
</svg>
