<svg width="100" height="100" viewBox="0 0 100 100" fill="none" xmlns="http://www.w3.org/2000/svg">
<rect width="100" height="100" rx="25" fill="black"/>
<path d="M50.0006 15C30.6707 15 15 30.6703 15 50.0002C15 69.3309 30.6707 85 50.0006 85C69.3326 85 85.0017 69.3309 85.0017 50.0002C85.0017 30.6716 69.3326 15.0017 50.0002 15.0017L50.0006 15V15ZM66.0517 65.4803C65.4248 66.5085 64.079 66.8345 63.0508 66.2034C54.833 61.1838 44.4878 60.047 32.3045 62.8305C31.1305 63.098 29.9602 62.3624 29.6927 61.188C29.424 60.0135 30.1566 58.8433 31.3336 58.5758C44.6663 55.5285 56.1027 56.8413 65.3286 62.4794C66.3568 63.1106 66.6828 64.4522 66.0517 65.4803V65.4803ZM70.3357 55.9489C69.5458 57.2341 67.8656 57.6396 66.5825 56.8496C57.1744 51.0656 42.8332 49.3908 31.7052 52.7687C30.262 53.2047 28.7377 52.3913 28.2997 50.9506C27.865 49.5074 28.6788 47.9861 30.1194 47.5472C42.8306 43.6904 58.633 45.5586 69.4371 52.1978C70.7202 52.9877 71.1256 54.6679 70.3357 55.9493V55.9489ZM70.7035 46.0251C59.423 39.3249 40.8115 38.7088 30.0413 41.9776C28.3118 42.5021 26.4828 41.5258 25.9587 39.7963C25.4346 38.066 26.4101 36.2383 28.1409 35.7125C40.5043 31.9593 61.0572 32.6844 74.0446 40.3944C75.6036 41.3177 76.1135 43.3268 75.1898 44.8803C74.2703 46.4359 72.2558 46.9487 70.7052 46.0251H70.7035Z" fill="url(#paint0_linear)"/>
<defs>
<linearGradient id="paint0_linear" x1="50.0008" y1="15" x2="50.0008" y2="85" gradientUnits="userSpaceOnUse">
<stop offset="0.0001" stop-color="#42CF61"/>
<stop offset="1" stop-color="#309197"/>
</linearGradient>
</defs>
</svg>
