<svg width="100" height="100" viewBox="0 0 100 100" fill="none" xmlns="http://www.w3.org/2000/svg">
<rect width="100" height="100" rx="25" fill="url(#paint0_linear)"/>
<path d="M50.0007 10C27.9094 10 10 27.9089 10 50.0002C10 72.0925 27.9094 90 50.0007 90C72.0944 90 90.0019 72.0925 90.0019 50.0002C90.0019 27.9104 72.0944 10.0019 50.0002 10.0019L50.0007 10V10ZM68.3448 67.6918C67.6283 68.8669 66.0902 69.2394 64.9152 68.5182C55.5234 62.7815 43.7004 61.4822 29.7766 64.6635C28.4348 64.9692 27.0974 64.1285 26.7917 62.7863C26.4845 61.444 27.3219 60.1066 28.667 59.8009C43.9043 56.3183 56.9746 57.8186 67.5184 64.2622C68.6935 64.9835 69.0661 66.5168 68.3448 67.6918V67.6918ZM73.2408 56.7988C72.338 58.2676 70.4178 58.7309 68.9514 57.8281C58.1993 51.2178 41.8093 49.3038 29.0916 53.1643C27.4422 53.6625 25.7002 52.7329 25.1996 51.0864C24.7029 49.4371 25.6329 47.6984 27.2794 47.1969C41.8065 42.789 59.8663 44.9241 72.2138 52.5118C73.6802 53.4146 74.1436 55.3347 73.2408 56.7993V56.7988ZM73.6611 45.4572C60.7691 37.7998 39.4989 37.0958 27.19 40.8315C25.2135 41.431 23.1232 40.3152 22.5243 38.3386C21.9253 36.3611 23.0401 34.2723 25.0181 33.6714C39.1478 29.382 62.6367 30.2108 77.4796 39.0222C79.2612 40.0773 79.844 42.3734 78.7884 44.1489C77.7375 45.9267 75.4352 46.5128 73.663 45.4572H73.6611Z" fill="white" fill-opacity="0.85"/>
<defs>
<linearGradient id="paint0_linear" x1="50" y1="0" x2="50" y2="100" gradientUnits="userSpaceOnUse">
<stop offset="0.0001" stop-color="#42CF95"/>
<stop offset="1" stop-color="#247075"/>
</linearGradient>
</defs>
</svg>
