<svg width="100" height="100" viewBox="0 0 100 100" fill="none" xmlns="http://www.w3.org/2000/svg">
<path d="M25 6.5H75C85.2173 6.5 93.5 14.7827 93.5 25V75C93.5 85.2173 85.2173 93.5 75 93.5H25C14.7827 93.5 6.5 85.2173 6.5 75V25C6.5 14.7827 14.7827 6.5 25 6.5Z" fill="#262626" stroke="black" stroke-width="13"/>
<path d="M29.44 31.326C28.8333 30.8927 28.2527 30.572 27.698 30.364C27.1607 30.1387 26.5367 30.026 25.826 30.026C24.63 30.026 24.032 30.4247 24.032 31.222C24.032 31.534 24.214 31.794 24.578 32.002C24.9593 32.21 25.4273 32.418 25.982 32.626C26.554 32.834 27.1607 33.0593 27.802 33.302C28.4607 33.5447 29.0673 33.8567 29.622 34.238C30.194 34.602 30.662 35.0527 31.026 35.59C31.4073 36.1273 31.598 36.786 31.598 37.566C31.598 38.658 31.2253 39.6113 30.48 40.426C29.7347 41.2233 28.634 41.7433 27.178 41.986V45.86H24.63V42.064C23.7807 41.9773 22.9053 41.7607 22.004 41.414C21.1027 41.05 20.3227 40.582 19.664 40.01L21.328 37.41C22.16 37.9127 22.94 38.3113 23.668 38.606C24.4133 38.8833 25.202 39.022 26.034 39.022C26.658 39.022 27.1347 38.918 27.464 38.71C27.7933 38.502 27.958 38.216 27.958 37.852C27.958 37.488 27.7673 37.1847 27.386 36.942C27.022 36.6993 26.554 36.4653 25.982 36.24C25.4273 36.0147 24.8207 35.7807 24.162 35.538C23.5033 35.2953 22.888 34.992 22.316 34.628C21.7613 34.264 21.2933 33.8133 20.912 33.276C20.548 32.7387 20.366 32.0713 20.366 31.274C20.366 30.1473 20.7473 29.2113 21.51 28.466C22.2727 27.7207 23.3127 27.244 24.63 27.036V23.63H27.178V27.01C28.0793 27.1313 28.8593 27.3827 29.518 27.764C30.194 28.128 30.8007 28.5873 31.338 29.142L29.44 31.326Z" fill="#14FF00"/>
<rect x="37" y="24" width="13" height="22" fill="#14FF00" fill-opacity="0.38"/>
<rect x="2" y="2" width="96" height="96" rx="23" stroke="url(#paint0_linear)" stroke-width="4"/>
<defs>
<linearGradient id="paint0_linear" x1="50" y1="0" x2="50" y2="100" gradientUnits="userSpaceOnUse">
<stop stop-color="#D2E7EE"/>
<stop offset="1" stop-color="#757473"/>
</linearGradient>
</defs>
</svg>
