<svg width="100" height="100" viewBox="0 0 100 100" fill="none" xmlns="http://www.w3.org/2000/svg">
<path d="M25 6.5H75C85.2173 6.5 93.5 14.7827 93.5 25V75C93.5 85.2173 85.2173 93.5 75 93.5H25C14.7827 93.5 6.5 85.2173 6.5 75V25C6.5 14.7827 14.7827 6.5 25 6.5Z" fill="#262626" stroke="black" stroke-width="13"/>
<path d="M28.648 32.818L20.156 38.318V35.392L25.986 31.74V31.652L20.156 28V25.074L28.648 30.574V32.818ZM43.0714 40.188V42.608H32.5114V40.188H43.0714Z" fill="#14FF00"/>
<rect x="2" y="2" width="96" height="96" rx="23" stroke="url(#paint0_linear)" stroke-width="4"/>
<defs>
<linearGradient id="paint0_linear" x1="50" y1="0" x2="50" y2="100" gradientUnits="userSpaceOnUse">
<stop stop-color="#D2E7EE"/>
<stop offset="1" stop-color="#757473"/>
</linearGradient>
</defs>
</svg>
