<svg width="100" height="100" viewBox="0 0 100 100" fill="none" xmlns="http://www.w3.org/2000/svg">
<path d="M0 25C0 11.1929 11.1929 0 25 0H75C88.8071 0 100 11.1929 100 25V75C100 88.8071 88.8071 100 75 100H25C11.1929 100 0 88.8071 0 75V25Z" fill="url(#paint0_linear)"/>
<g filter="url(#filter0_d)">
<path d="M66.4 18.6391C66.6938 18.7828 75.2875 22.8828 79.4844 24.8859C80.8703 25.5469 81.75 26.9437 81.75 28.4781V70.4469C81.75 71.9797 80.8766 73.375 79.4953 74.0391C75.5141 75.9578 67.6031 79.7672 67.0766 80.0172C66.6891 80.2016 65.6703 80.75 64.8453 80.75C63.7859 80.75 63.075 80.2563 62.3766 79.6094L66.125 67.7984V20.9297L62.6031 19.1562C63.3563 18.4203 64.4 18.25 65.0172 18.25C65.5828 18.25 66.0438 18.4656 66.4 18.6391Z" fill="url(#paint1_linear)"/>
<path d="M27.0625 64.9625L66.125 35.2391V21.1094C66.125 19.0797 63.5281 18.2844 62.4734 19.2594C61.45 20.2031 20.2781 57.6859 20.2781 57.6859C18.8719 58.9828 18.9515 61.2281 20.4453 62.4234C20.4453 62.4234 22.514 64.3484 23.2625 64.8828C24.4125 65.7031 25.9234 65.7969 27.0625 64.9625Z" fill="url(#paint2_linear)"/>
<path d="M27.0625 34.0375L66.125 63.8094V77.5141C66.125 79.3859 63.9062 80.9406 62.3765 79.6094L20.2781 41.3141C18.8719 40.0172 18.9515 37.7719 20.4453 36.5766C20.4453 36.5766 22.514 34.6516 23.2625 34.1172C24.4125 33.2969 25.9234 33.2031 27.0625 34.0375Z" fill="#0288D1"/>
</g>
<defs>
<filter id="filter0_d" x="9" y="12" width="83" height="83" filterUnits="userSpaceOnUse" color-interpolation-filters="sRGB">
<feFlood flood-opacity="0" result="BackgroundImageFix"/>
<feColorMatrix in="SourceAlpha" type="matrix" values="0 0 0 0 0 0 0 0 0 0 0 0 0 0 0 0 0 0 127 0"/>
<feOffset dy="4"/>
<feGaussianBlur stdDeviation="2"/>
<feColorMatrix type="matrix" values="0 0 0 0 0 0 0 0 0 0 0 0 0 0 0 0 0 0 0.25 0"/>
<feBlend mode="normal" in2="BackgroundImageFix" result="effect1_dropShadow"/>
<feBlend mode="normal" in="SourceGraphic" in2="effect1_dropShadow" result="shape"/>
</filter>
<linearGradient id="paint0_linear" x1="50" y1="0" x2="50" y2="100" gradientUnits="userSpaceOnUse">
<stop stop-color="#FEFCFF"/>
<stop offset="1" stop-color="#D5D5D6"/>
</linearGradient>
<linearGradient id="paint1_linear" x1="72.0625" y1="79.7656" x2="72.0625" y2="23.5937" gradientUnits="userSpaceOnUse">
<stop stop-color="#29B6F6"/>
<stop offset="1" stop-color="#13B2F6"/>
</linearGradient>
<linearGradient id="paint2_linear" x1="22.5078" y1="66.3766" x2="67.364" y2="23.2078" gradientUnits="userSpaceOnUse">
<stop offset="0.115" stop-color="#0076BB"/>
<stop offset="0.257" stop-color="#0069B0"/>
<stop offset="0.28" stop-color="#0069B0"/>
<stop offset="0.424" stop-color="#0069B0"/>
<stop offset="0.491" stop-color="#0072B7"/>
<stop offset="0.577" stop-color="#0076BB"/>
<stop offset="0.795" stop-color="#0076BB"/>
<stop offset="1" stop-color="#006EB9"/>
</linearGradient>
</defs>
</svg>
