<svg width="100" height="100" viewBox="0 0 100 100" fill="none" xmlns="http://www.w3.org/2000/svg">
<path d="M0 0H100V100H0V0Z" fill="#D2D6DC"/>
<path d="M64.84 21.1965C65.1142 21.3306 73.135 25.1573 77.0521 27.0269C78.3456 27.6437 79.1667 28.9475 79.1667 30.3796V69.5504C79.1667 70.981 78.3515 72.2833 77.0623 72.9031C73.3465 74.694 65.9629 78.2494 65.4715 78.4827C65.1098 78.6548 64.159 79.1667 63.389 79.1667C62.4002 79.1667 61.7367 78.7058 61.0848 78.1021L64.5834 67.0785V23.3344L61.2963 21.6792C61.9992 20.9923 62.9734 20.8333 63.5494 20.8333C64.0773 20.8333 64.5075 21.0346 64.84 21.1965Z" fill="url(#paint0_linear)"/>
<path d="M28.125 64.4317L64.5833 36.6898V23.5021C64.5833 21.6077 62.1596 20.8654 61.1752 21.7754C60.22 22.6562 21.7929 57.6402 21.7929 57.6402C20.4804 58.8506 20.5548 60.9462 21.949 62.0619C21.949 62.0619 23.8798 63.8585 24.5783 64.3573C25.6517 65.1229 27.0619 65.2104 28.125 64.4317Z" fill="url(#paint1_linear)"/>
<path d="M28.125 35.5683L64.5833 63.3554V76.1465C64.5833 77.8935 62.5125 79.3446 61.0848 78.1021L21.7929 42.3598C20.4804 41.1494 20.5548 39.0538 21.949 37.9381C21.949 37.9381 23.8798 36.1415 24.5783 35.6427C25.6517 34.8771 27.0619 34.7896 28.125 35.5683Z" fill="#0288D1"/>
<defs>
<linearGradient id="paint0_linear" x1="70.125" y1="78.2479" x2="70.125" y2="25.8208" gradientUnits="userSpaceOnUse">
<stop stop-color="#29B6F6"/>
<stop offset="1" stop-color="#13B2F6"/>
</linearGradient>
<linearGradient id="paint1_linear" x1="23.874" y1="65.7515" x2="65.7398" y2="25.4606" gradientUnits="userSpaceOnUse">
<stop offset="0.115" stop-color="#0076BB"/>
<stop offset="0.257" stop-color="#0069B0"/>
<stop offset="0.28" stop-color="#0069B0"/>
<stop offset="0.424" stop-color="#0069B0"/>
<stop offset="0.491" stop-color="#0072B7"/>
<stop offset="0.577" stop-color="#0076BB"/>
<stop offset="0.795" stop-color="#0076BB"/>
<stop offset="1" stop-color="#006EB9"/>
</linearGradient>
</defs>
</svg>
