<svg width="100" height="100" viewBox="0 0 100 100" fill="none" xmlns="http://www.w3.org/2000/svg">
<rect width="100" height="100" rx="25" fill="#2D8CFF"/>
<path fill-rule="evenodd" clip-rule="evenodd" d="M71.9689 46.798C72.2411 47.2675 72.3301 47.8018 72.3595 48.4024L72.3981 49.2029V54.8005L72.4376 55.6018C72.5166 56.9105 73.4817 57.8782 74.8005 57.9605L75.5976 58V49.2029L75.6371 48.4024C75.6699 47.8085 75.7581 47.2642 76.0344 46.7913C76.316 46.3062 76.7203 45.9038 77.2066 45.6243C77.6929 45.3449 78.2442 45.1984 78.8051 45.1994C79.3659 45.2004 79.9167 45.349 80.402 45.6302C80.8873 45.9114 81.2901 46.3153 81.5699 46.8013C81.8421 47.2709 81.9269 47.8152 81.9597 48.4024L81.9991 49.2003V54.8005L82.0386 55.6018C82.1209 56.9173 83.0785 57.8849 84.4015 57.9605L85.1986 58V48.4024C85.1986 46.7052 84.5246 45.0776 83.3248 43.8773C82.125 42.677 80.4976 42.0024 78.8005 42.0017C77.8921 42.0007 76.9941 42.1936 76.1662 42.5675C75.3384 42.9414 74.5999 43.4876 74 44.1697C73.3998 43.4879 72.6613 42.9418 71.8335 42.5678C71.0058 42.1938 70.1078 42.0005 69.1995 42.0008C67.8706 42.0008 66.6375 42.404 65.6161 43.1004C64.9928 42.4049 63.5985 42.0008 62.798 42.0008V58L63.5985 57.9605C64.9374 57.8723 65.9051 56.9307 65.9571 55.6018L66 54.8005V49.2029L66.0395 48.4024C66.0731 47.7984 66.1571 47.2675 66.4301 46.7946C66.7119 46.3099 67.116 45.9075 67.6019 45.6278C68.0879 45.348 68.6387 45.2006 69.1995 45.2003C69.7606 45.2005 70.3119 45.3481 70.798 45.6285C71.2841 45.909 71.6879 46.3123 71.9689 46.798ZM17.1995 57.9614L18 58H29.9992L29.9597 57.202C29.8513 55.8866 28.9198 54.9257 27.6002 54.84L26.7997 54.8005H19.601L29.1987 45.1995L29.1592 44.4024C29.097 43.0735 28.126 42.1134 26.7997 42.0403L25.9992 42.0042L14 42.0008L14.0395 42.8013C14.1445 44.1042 15.0895 45.0853 16.3982 45.1609L17.1995 45.2003H24.3981L14.8005 54.8013L14.84 55.6018C14.9189 56.9206 15.8706 57.8765 17.1995 57.9614ZM59.6573 44.3427C60.4002 45.0855 60.9896 45.9674 61.3917 46.938C61.7938 47.9087 62.0008 48.949 62.0008 49.9996C62.0008 51.0502 61.7938 52.0905 61.3917 53.0611C60.9896 54.0317 60.4002 54.9136 59.6573 55.6564C58.1562 57.1563 56.1211 57.9988 53.9991 57.9988C51.8772 57.9988 49.8421 57.1563 48.341 55.6564C45.2171 52.5325 45.2171 47.4666 48.341 44.3427C49.0833 43.6001 49.9646 43.0111 50.9346 42.6091C51.9045 42.2071 52.9442 42.0002 53.9941 42C55.0458 41.9993 56.0873 42.2059 57.059 42.608C58.0307 43.0101 58.9137 43.5991 59.6573 44.3427ZM57.3935 46.6081C58.2933 47.5086 58.7988 48.7295 58.7988 50.0025C58.7988 51.2755 58.2933 52.4964 57.3935 53.3969C56.493 54.2967 55.2721 54.8021 53.9991 54.8021C52.7262 54.8021 51.5053 54.2967 50.6048 53.3969C49.705 52.4964 49.1995 51.2755 49.1995 50.0025C49.1995 48.7295 49.705 47.5086 50.6048 46.6081C51.5053 45.7084 52.7262 45.2029 53.9991 45.2029C55.2721 45.2029 56.493 45.7084 57.3935 46.6081ZM37.2045 42C38.2545 42.0003 39.2942 42.2074 40.2642 42.6095C41.2341 43.0116 42.1154 43.6008 42.8576 44.3436C45.9824 47.4666 45.9824 52.5334 42.8576 55.6564C41.3566 57.1563 39.3214 57.9988 37.1995 57.9988C35.0775 57.9988 33.0424 57.1563 31.5414 55.6564C28.4175 52.5325 28.4175 47.4666 31.5414 44.3427C32.2837 43.6001 33.1649 43.0111 34.1349 42.6091C35.1049 42.2071 36.1445 42.0002 37.1945 42H37.2045ZM40.5939 46.6065C41.4939 47.507 41.9995 48.7281 41.9995 50.0013C41.9995 51.2745 41.4939 52.4955 40.5939 53.3961C39.6934 54.2959 38.4725 54.8013 37.1995 54.8013C35.9265 54.8013 34.7056 54.2959 33.8051 53.3961C32.9053 52.4956 32.3999 51.2747 32.3999 50.0017C32.3999 48.7287 32.9053 47.5078 33.8051 46.6073C34.7056 45.7075 35.9265 45.2021 37.1995 45.2021C38.4725 45.2021 39.6934 45.7067 40.5939 46.6065Z" fill="white"/>
</svg>
