<svg width="100" height="100" viewBox="0 0 100 100" fill="none" xmlns="http://www.w3.org/2000/svg">
<rect width="100" height="100" rx="25" fill="url(#paint0_linear)"/>
<g filter="url(#filter0_d)">
<path d="M20 36C20 34.3431 21.3431 33 23 33H55.2105C60.1811 33 64.2105 37.0294 64.2105 42V63.6842C64.2105 65.3411 62.8674 66.6842 61.2105 66.6842H29C24.0294 66.6842 20 62.6548 20 57.6842V36Z" fill="white"/>
<path d="M66 44.5898C66 43.5954 66.4927 42.6657 67.3155 42.1073L76.0523 36.1788C78.0443 34.8271 80.7368 36.254 80.7368 38.6612V61.023C80.7368 63.4303 78.0443 64.8571 76.0523 63.5054L67.3155 57.5769C66.4927 57.0185 66 56.0888 66 55.0944V44.5898Z" fill="white"/>
</g>
<defs>
<filter id="filter0_d" x="16" y="33" width="68.7368" height="41.6842" filterUnits="userSpaceOnUse" color-interpolation-filters="sRGB">
<feFlood flood-opacity="0" result="BackgroundImageFix"/>
<feColorMatrix in="SourceAlpha" type="matrix" values="0 0 0 0 0 0 0 0 0 0 0 0 0 0 0 0 0 0 127 0"/>
<feOffset dy="4"/>
<feGaussianBlur stdDeviation="2"/>
<feColorMatrix type="matrix" values="0 0 0 0 0 0 0 0 0 0 0 0 0 0 0 0 0 0 0.25 0"/>
<feBlend mode="normal" in2="BackgroundImageFix" result="effect1_dropShadow"/>
<feBlend mode="normal" in="SourceGraphic" in2="effect1_dropShadow" result="shape"/>
</filter>
<linearGradient id="paint0_linear" x1="50" y1="0" x2="50" y2="100" gradientUnits="userSpaceOnUse">
<stop stop-color="#175DDC"/>
<stop offset="0.0001" stop-color="#2CB4FF"/>
<stop offset="1" stop-color="#2C6DFF"/>
</linearGradient>
</defs>
</svg>
